<svg xmlns="http://www.w3.org/2000/svg" width="27.167" height="29.4" viewBox="0 0 27.167 29.4">
  <path id="Icon_awesome-calendar-day" data-name="Icon awesome-calendar-day" d="M0,26.644A2.837,2.837,0,0,0,2.911,29.4H24.256a2.837,2.837,0,0,0,2.911-2.756V11.025H0ZM3.881,15.619a.948.948,0,0,1,.97-.919h5.821a.948.948,0,0,1,.97.919v5.513a.948.948,0,0,1-.97.919H4.851a.948.948,0,0,1-.97-.919ZM24.256,3.675H21.345V.919A.948.948,0,0,0,20.375,0h-1.94a.948.948,0,0,0-.97.919V3.675H9.7V.919A.948.948,0,0,0,8.732,0H6.792a.948.948,0,0,0-.97.919V3.675H2.911A2.837,2.837,0,0,0,0,6.431V9.188H27.167V6.431A2.837,2.837,0,0,0,24.256,3.675Z" fill="#fff"/>
</svg>
