<svg xmlns="http://www.w3.org/2000/svg" xmlns:xlink="http://www.w3.org/1999/xlink" width="411" height="59.28" viewBox="0 0 411 59.28">
  <defs>
    <clipPath id="clip-path">
      <rect id="Rectangle_4847" data-name="Rectangle 4847" width="411" height="59.28" fill="none"/>
    </clipPath>
  </defs>
  <g id="Groupe_12270" data-name="Groupe 12270" transform="translate(0 0)">
    <g id="Groupe_12269" data-name="Groupe 12269" transform="translate(0 0)" clip-path="url(#clip-path)">
      <path id="Tracé_1529" data-name="Tracé 1529" d="M212.342,23.686H166.858l3.374,5.791c6.062,3.017,14.637,9.184,17.217,11.074a1.324,1.324,0,0,0,1.542.022c2.736-1.887,12.036-8.234,17.51-11.1l5.841-5.791m-46.2-1.241h47.449L227.648,8.51H158.035Zm118.74,18.566h-9.8q3.78-3.752,7.572-7.509h9.857q-3.782,3.752-7.568,7.509Zm-12.745,0h-6.293l7.568-7.509h6.362L272.2,41.011Zm-9.241,0H256.6l7.574-7.509h6.358l-7.574,7.509ZM244.1,40.762l7.321-7.26h9.856l-7.574,7.509h-9.856ZM70.744,18.405h62.924l2.356,4.049H164.7L156.585,8.519H56.371a2.037,2.037,0,1,1,0-1.225h99.5l-1.836-3.157H67.176V2.9h87.574l2.556,4.4h71.578l5.811-5.756H342.5a2.05,2.05,0,0,1,4,.611,2.05,2.05,0,0,1-4,.616H235.22l-4.561,4.521h94.769V8.524H229.4L215.35,22.459H349.231V23.7H214.109l-6.975,7.033L188.872,42.252a1.342,1.342,0,0,1-1.442-.008L169.64,30.728,165.428,23.7H136.749l10.283,17.653c12.968,5.1,41.28,16.514,41.28,16.514s28.838-10.439,46.07-16.514L246.63,29.2h98.611a2.032,2.032,0,1,1,0,1.225h-98.09L234.9,42.574c-14.827,5.153-46.571,16.506-46.571,16.506s-28.453-10.926-42.024-16.506L135.3,23.681H67.939a2.033,2.033,0,1,1,0-1.226h66.645l-1.632-2.808H70.744Z" transform="translate(16.838 0.039)" fill="#fff"/>
    </g>
  </g>
</svg>
