<svg xmlns="http://www.w3.org/2000/svg" xmlns:xlink="http://www.w3.org/1999/xlink" width="311.008" height="44.858" viewBox="0 0 311.008 44.858">
  <defs>
    <clipPath id="clip-path">
      <rect id="Rectangle_4845" data-name="Rectangle 4845" width="311.008" height="44.858" transform="translate(0 0)" fill="none"/>
    </clipPath>
  </defs>
  <g id="Groupe_12268" data-name="Groupe 12268" transform="translate(0 0)">
    <g id="Groupe_12256" data-name="Groupe 12256" clip-path="url(#clip-path)">
      <path id="Tracé_1525" data-name="Tracé 1525" d="M167.62,24.93H119.97L123.5,31h38Zm-48.4-1.3H168.93l14.724-14.6H110.726ZM243.616,43.08H233.348q3.961-3.93,7.934-7.866h10.325q-3.961,3.93-7.929,7.866Zm-13.351,0h-6.593l7.929-7.866h6.665l-7.934,7.866Zm-9.681,0h-6.593l7.934-7.866h6.66l-7.934,7.866ZM200.9,42.82l7.668-7.606h10.326l-7.934,7.866H200.629ZM19.278,19.4H85.2l2.47,4.242h30.045l-8.5-14.6H4.221a2.134,2.134,0,1,1,0-1.284H108.459L106.535,4.45h-91V3.156h91.744l2.678,4.606h74.987l6.088-6.031H303.978a2.148,2.148,0,0,1,4.191.64,2.148,2.148,0,0,1-4.191.644H191.588L186.81,7.752h99.283V9.046h-100.6l-14.724,14.6H311.028V24.94H169.471l-7.435,7.367H122.757l-4.284-7.367H88.427L99.2,43.434h91.51l12.832-12.723H306.848a2.129,2.129,0,1,1,0,1.285H204.087L191.255,44.718H98.44L86.909,24.925H16.34a2.129,2.129,0,1,1,0-1.285H86.16L84.449,20.7H19.278Z" fill="#fff"/>
    </g>
  </g>
</svg>
