<svg xmlns="http://www.w3.org/2000/svg" xmlns:xlink="http://www.w3.org/1999/xlink" width="338.556" height="338.556" viewBox="0 0 338.556 338.556">
  <defs>
    <clipPath id="clip-path">
      <path id="Tracé_1527" data-name="Tracé 1527" d="M86.261,33.035,34.1,142.328V274.08l114.948,54.865H278.531L320.2,241.65l9.808-20.55V88.443L293.871,71.2,213.919,33.035Z" transform="translate(-34.096 -33.035)" fill="none"/>
    </clipPath>
  </defs>
  <g id="Groupe_12260" data-name="Groupe 12260" transform="translate(-38.844 18.996) rotate(-9)">
    <g id="Groupe_12259" data-name="Groupe 12259" transform="translate(34.096 33.035)" clip-path="url(#clip-path)">
      <path id="Tracé_1526" data-name="Tracé 1526" d="M80.925,155.4a104.1,104.1,0,0,1,3.031-10.066,101.432,101.432,0,0,1,4.038-9.74,103.532,103.532,0,0,1,50.89-49.75l3.061,6.779a95.833,95.833,0,0,0-47.22,46.188c-1.429,3.007-2.686,6.022-3.764,9.021a97.265,97.265,0,0,0-2.82,9.372ZM64.9,221.462A123.5,123.5,0,0,1,92.118,94.672l8.623,8.24A111.618,111.618,0,0,0,76.147,217.5Zm75.273,75.312a123.872,123.872,0,0,1-70.61-64.05L80.332,227.7a112.241,112.241,0,0,0,63.848,57.873Zm-90.5-128.936A132.129,132.129,0,0,1,133.176,57.02l1.085,2.757A129.169,129.169,0,0,0,52.63,168.119ZM166.962,48.71a134.368,134.368,0,0,1,13.457-.789c4.484-.032,8.982.164,13.466.578a132.782,132.782,0,0,1,82.24,39.137L274,89.721a129.872,129.872,0,0,0-106.719-38.06Zm121.909,54a132.417,132.417,0,0,1,20.478,42.533l-2.874.781a129.838,129.838,0,0,0-20.011-41.573Zm24.2,61.036a134.552,134.552,0,0,1,1.046,14.472,130.1,130.1,0,0,1-.554,14.511A132.263,132.263,0,0,1,172.015,312.293l.21-2.968a129.247,129.247,0,0,0,137.888-145.2ZM128.9,301.64A132.618,132.618,0,0,1,49.654,192.1l2.959-.257a129.641,129.641,0,0,0,77.469,107.069Zm-77.97-54.593A146.585,146.585,0,0,1,62.94,93.672l6.013,4.389a139.064,139.064,0,0,0-11.4,145.6ZM89.564,65.83a146.971,146.971,0,0,1,125.2-28.421l-1.672,7.232A139.4,139.4,0,0,0,118,56.27a139.017,139.017,0,0,0-23.766,15.37ZM235.644,43.922a147.482,147.482,0,0,1,44.463,27.64l-5,5.522a139.533,139.533,0,0,0-42.222-26.243ZM294.6,86.675a145.875,145.875,0,0,1,17.721,26.835,146.47,146.47,0,0,1-61.045,196.027l-3.523-6.545A139.195,139.195,0,0,0,288.871,91.415Zm-89.95,238.536A147.1,147.1,0,0,1,65.369,269.79l5.881-4.546a139.759,139.759,0,0,0,132.241,52.641ZM117.5,74.4a120.7,120.7,0,0,1,11.091-5.944,121.952,121.952,0,0,1,11.645-4.81,124.166,124.166,0,0,1,85.09.976L221.1,75.757a111.934,111.934,0,0,0-76.891-.876q-5.518,1.958-10.52,4.311a109.8,109.8,0,0,0-10.029,5.366Z" transform="translate(-33.769 -32.761)" fill="#fff"/>
    </g>
  </g>
</svg>
