<svg xmlns="http://www.w3.org/2000/svg" width="182.878" height="178.709" viewBox="0 0 182.878 178.709">
  <g id="Groupe_12328" data-name="Groupe 12328" transform="translate(-905.552 -778.132)">
    <g id="Groupe_11646" data-name="Groupe 11646" transform="translate(951.241 778.132)">
      <path id="Tracé_1025" data-name="Tracé 1025" d="M237.35,73.964c.031.024.063.05.1.075.126.1.254.2.381.3l.007.005.117.092c.061.05.119.1.18.147l.011.009.2.16c.084.069.172.139.257.21,1.079.9,2.141,1.844,3.157,2.821.107.1.245.233.38.367.049.05.1.1.152.147l.031.031v.351h.355a.281.281,0,0,0,.031.033l.149.149.371.379c.982,1.011,1.937,2.066,2.838,3.137l.211.256h-3.956v.384h4.271a.2.2,0,0,1,.024.029l.072.087.007.009.3.377c.025.033.051.064.075.1.863,1.083,1.7,2.209,2.479,3.356.089.127.175.255.26.384.014.021.028.043.044.062.084.127.168.254.252.383s.177.266.262.4c.121.182.243.377.381.594.1.161.2.323.3.485v2.032h-3.98v-4.34h-8.731V78.3h-9.12v4.721h4.367v8.294H229.6v-4.34h-4.366V74.349h8.735V71.5C235.123,72.281,236.258,73.108,237.35,73.964ZM159.743,96.037V91.7h8.345v4.338h4.753v-.384h-4.367V91.7h13.1v-.384h-4.365V87.361h8.345v8.292h-8.732v4.338h-8.735v4.336h-3.978V95.653h-.386v9.058h4.751v-4.338h8.735V96.037h8.731v-9.06h-9.118v4.338h-17.08V78.336a.215.215,0,0,1,.035-.033c.049-.052.1-.1.151-.147l.378-.369c1.02-.977,2.082-1.924,3.161-2.819l.255-.212V87.361h.386V74.442c.039-.033.079-.062.119-.094h4.246v-.384h-3.763c1.1-.86,2.231-1.687,3.377-2.461.13-.087.257-.174.386-.259l.067-.045,0,0c.11-.075.229-.153.378-.249.126-.083.257-.168.4-.261.218-.139.435-.275.6-.379s.322-.2.487-.3h2.045V78.3h-4.368v9.06h4.753V83.023h4.368V78.685h3.98v4.338h8.731v4.338h.387V82.639h-8.733V78.3h-4.365V73.963h-.387v8.676h-4.366v4.338h-3.982V78.685h4.367V69.626H171.05c.464-.275.934-.544,1.406-.806.128-.071.257-.141.385-.212l.007,0,.372-.2h0l.005,0c1.167-.625,2.376-1.22,3.593-1.769.109-.05.221-.1.329-.149l.058-.024,0,0c.035-.012.07-.028.1-.042.049-.023.1-.043.149-.066l.074-.033c.217-.092.435-.188.654-.278.29-.121.584-.243.878-.361.327-.13.653-.259.98-.384.381-.143.761-.285,1.143-.419v4.759h-4.367v.384h4.367v4.338h.385v0h12.715V78.3h-8.735v.384h8.735v4.338h.385v-9.06h-13.1V64.73l.266-.092c1.219-.419,2.468-.8,3.714-1.14l.213-.059.173-.047c.068-.017.137-.033.206-.052,1.244-.324,2.512-.608,3.774-.848.051-.01.1-.021.154-.03.077-.016.154-.028.233-.043l.142-.026h0c.514-.094,1.039-.181,1.559-.261.747-.114,1.511-.217,2.276-.3h0v3.457h-8.735V70.01h13.1v4.337h.387V70.01h8.346v8.675h4.365v3.954h-4.365v.384h4.752V78.3h-4.365V70.01h4.365v-.384h-4.365v-4.34h-.387v4.34h-8.346v-4.34h-.387v4.34H185.941V65.671h8.733V61.786c.025,0,.053-.007.082-.009l.007,0h.007c.07-.009.138-.016.21-.022,1.219-.123,2.456-.212,3.674-.259l.032,0h.005c.116-.005.233-.009.35-.012l.026,0c.642-.021,1.3-.031,1.963-.031s1.321.01,1.964.031a.13.13,0,0,1,.024,0h0v4.191h.386V61.494c1.216.047,2.453.136,3.677.259l.206.022h.007l.007,0,.082.007.289.033h0l0,0,.091.01c.764.085,1.531.188,2.278.3.511.078,1.034.165,1.555.261l.145.026v3.252h4.367v8.292h-4.367v.384h4.367v0h.386v0h3.98V78.3h-4.366v.384h4.366V96.037h4.753V91.315h-.386v4.338h-3.98V73.963h-4.367V65.671h4.367v-.384h-8.733V62.492c1.259.238,2.528.525,3.777.848.068.019.135.035.2.052.026.007.052.016.079.021l.1.026.21.057c1.244.337,2.491.719,3.713,1.14l.267.094c.039.012.077.026.116.04.089.033.18.064.271.1.379.135.761.276,1.141.421.327.125.654.254.98.384.3.118.588.24.88.363.217.088.436.182.651.276l.074.031.149.068c.033.014.066.026.1.042l.009,0,.054.024c.112.05.222.1.331.149,1.217.547,2.426,1.142,3.6,1.771l.378.2s0,0,.005,0l.385.212c.473.264.943.533,1.407.808h-1.792v.384h2.43c.164.1.326.2.488.3.206.127.408.254.6.379l.4.259c.126.083.252.165.378.25.024.014.043.028.066.043v2.722h-8.348V70.01h0v-.384h-4.753v.384h4.367V87.361h4.366V91.7h4.367v13.014h.386v0h4.367v-.384h-4.367V91.7h3.98v8.674h4.365v13.014h4.753v-9.06h-.386V113H242.7V99.991h-4.365V91.7H242.7v-.384h-.387v0h-3.978v0h-.387v0h-3.98V82.639H229.6V78.685h8.348v8.676h8.732v8.292h-4.367v.384h4.367v4.338h.386v0h3.98v8.676h4.368V113H251.05v.384H255.8v-4.722h-4.368V99.991H247.07V91.7h4.367V89.918q.417.7.812,1.4c.072.125.144.256.213.383,0,0,0,0,0,.005l0,0c.066.123.138.249.206.374.632,1.163,1.23,2.364,1.779,3.572h-3.4v.384h3.58l0,.007c.014.033.03.066.046.1.022.049.043.1.066.148l.031.071c.093.213.187.431.28.648.122.29.245.581.364.875v2.49h.387V98.858c.145.377.287.756.423,1.133.031.09.063.181.1.269.014.038.028.076.04.115.031.087.063.175.094.264.422,1.215.808,2.456,1.146,3.69h-2.187v.384h2.294c.016.066.035.134.052.2.322,1.222.609,2.48.854,3.747.011.052.021.1.03.153.016.076.03.154.044.231l.026.146c.1.518.184,1.037.261,1.547.117.741.22,1.5.306,2.261,0,.031.007.061.01.09l0,0v0c.01.09.021.186.031.288,0,.028.007.054.009.082v.016c.007.066.014.129.021.193v.014c.126,1.213.215,2.44.263,3.65h-4.2v4.338h-3.982v-4.338h-.387v9.06h.387v-4.34H255.8v-4.337h3.831v.028c.023.636.033,1.293.033,1.95s-.01,1.312-.033,1.952v.024c0,.115-.007.231-.014.348v.035c-.047,1.21-.137,2.438-.263,3.655-.005.068-.012.136-.021.205v.014c0,.029-.005.055-.007.081h-3.912v4.338H247.07v-4.338h-.386v8.676H233.971v-4.338h-8.733v-4.338h-.386v8.676h-8.733v4.337H203.407v-3.954h4.367v-4.338h3.978v4.338h.387v-4.721h-4.365v-4.338h-.387v8.676h-4.366v8.675h-8.732v8.676h-4.368v8.675h-3.98v-4.337h-.386V161.1h4.753v-8.675h8.733v-4.338h8.733v-4.338h4.365v-.384h-4.752v4.338h-8.733v4.338h-3.98v-8.292h8.733v-4.338h13.1v-4.338h13.1v-.383h-4.365v-3.956h8.347v8.292h-8.733v8.676h-3.98v-8.676h-.387v9.06h4.753v-8.676h8.733v-4.338h8.345v4.338h.387v-4.338h8.346v8.676h.387v-9.059H247.07v-3.956H255.8V126.4h3.479c-.084.744-.187,1.505-.306,2.261-.079.518-.166,1.038-.261,1.549v0l-.026.14c-.016.078-.03.157-.045.233-.009.05-.019.1-.028.151-.241,1.253-.528,2.513-.854,3.751-.017.068-.035.134-.052.2h-2.294v4.337h.387v-3.952h1.8c-.339,1.236-.726,2.477-1.148,3.688-.031.089-.063.177-.094.264-.012.04-.026.078-.04.115-.033.09-.065.181-.1.269-.135.379-.277.756-.422,1.133q-.189.49-.387.975c-.119.292-.241.584-.365.872-.089.217-.185.435-.278.648l-.031.073c-.023.049-.044.1-.066.148-.016.033-.032.066-.046.1l0,.007-.019.043-.007.01c-.014.035-.029.068-.045.1-.033.075-.068.153-.1.228-.551,1.21-1.149,2.409-1.784,3.575-.065.124-.137.251-.2.376,0,0,0,0,0,.005H251.05v.383h1.2q-.393.7-.812,1.4c-.128.212-.255.422-.387.632-.1.162-.2.325-.3.485-.138.217-.261.412-.381.6-.086.132-.175.266-.262.4l-.252.377c-.016.023-.029.043-.045.064-.084.129-.171.256-.259.384v0c-.782,1.142-1.613,2.267-2.479,3.355v-8.078h-.386v9.832q.194-.229.386-.464c.084-.1.168-.205.252-.308q.155-.19.31-.384,1.527-1.914,2.9-3.952c.086-.128.171-.257.257-.384s.177-.271.264-.409c.132-.2.261-.4.387-.6q.913-1.444,1.741-2.944c.07-.127.142-.254.21-.383q1.053-1.934,1.96-3.956c.024-.052.047-.1.071-.156s.044-.1.065-.149c.012-.026.023-.052.035-.078.1-.217.192-.438.287-.659q.69-1.621,1.286-3.3c.045-.127.091-.256.135-.384q.68-1.945,1.223-3.952c.035-.128.07-.255.1-.384q.512-1.95.894-3.954v0c.024-.127.051-.254.072-.383.1-.52.185-1.044.266-1.569v0q.184-1.186.322-2.385c0-.043.009-.087.012-.13.01-.083.021-.168.029-.254s.014-.147.023-.222c.126-1.234.217-2.478.266-3.733.005-.127.01-.256.016-.383.019-.657.031-1.316.031-1.976s-.012-1.321-.031-1.976v0c-.005-.127-.01-.255-.016-.384-.049-1.255-.14-2.5-.266-3.731-.009-.075-.014-.148-.023-.223s-.019-.17-.029-.254c0-.043-.009-.087-.012-.13-.093-.8-.2-1.6-.322-2.385-.08-.525-.17-1.049-.266-1.569h0c-.023-.128-.047-.255-.072-.384q-.384-2-.9-3.952c-.033-.129-.07-.257-.1-.384q-.543-2.007-1.223-3.954c-.044-.129-.089-.257-.135-.384q-.6-1.671-1.286-3.3c-.095-.219-.191-.44-.287-.659-.035-.075-.066-.151-.1-.228-.024-.052-.047-.1-.071-.156q-.906-2.018-1.96-3.954c-.068-.129-.14-.257-.21-.383q-.829-1.5-1.741-2.946c-.126-.2-.255-.4-.387-.6l-.264-.407c-.084-.127-.171-.256-.256-.384q-1.367-2.036-2.9-3.954c-.1-.129-.2-.256-.31-.384-.084-.1-.168-.207-.252-.308-.128-.155-.257-.311-.386-.464q-1.38-1.642-2.876-3.182c-.124-.127-.25-.256-.376-.383q-.36-.365-.728-.723c-.128-.125-.257-.25-.387-.374q-1.545-1.486-3.2-2.858c-.156-.128-.312-.257-.467-.384l-.31-.25c-.13-.1-.257-.2-.387-.308q-1.929-1.52-3.98-2.88c-.129-.083-.257-.169-.386-.254s-.273-.176-.409-.263c-.2-.13-.4-.259-.607-.384q-1.456-.907-2.965-1.729c-.128-.071-.255-.141-.385-.208q-1.947-1.046-3.98-1.947c-.052-.024-.107-.047-.157-.071l-.229-.1-.663-.285q-1.632-.686-3.317-1.278l-.387-.135q-1.96-.673-3.98-1.213c-.128-.033-.257-.069-.386-.1q-1.963-.511-3.98-.888l-.387-.073c-.521-.094-1.049-.183-1.578-.263h0a.517.517,0,0,0-.072-.01l-.525-.08c-.158-.023-.315-.043-.469-.064l-.009,0-.03,0-.059-.009c-.037,0-.074-.009-.11-.014l-.224-.028c-.151-.021-.3-.038-.45-.055-.109-.014-.217-.026-.326-.038-.042,0-.086-.01-.128-.016L207.6,61l-.208-.023c-.075-.009-.149-.016-.224-.022h0q-1.861-.19-3.755-.264c-.129-.007-.259-.01-.386-.016h0c-.66-.019-1.322-.031-1.989-.031s-1.328.012-1.989.031c-.13.005-.257.009-.387.016q-1.892.073-3.754.264h0l-.224.022-.066.007c-.045.005-.091.01-.135.014s-.061.007-.091.012l-.094.009c-.035,0-.07.01-.107.014l-.11.012c-.074.007-.145.016-.217.024-.145.017-.289.035-.434.054l-.2.026-.289.04-.178.023-.071.01c-.039,0-.081.01-.121.016-.2.03-.39.057-.586.089-.028,0-.056.007-.084.012h0q-.8.12-1.58.264v0c-.13.023-.257.049-.387.071v0q-2.012.378-3.98.888c-.129.033-.257.066-.386.1q-2.018.539-3.98,1.213l-.385.135q-1.682.592-3.319,1.278c-.22.1-.442.189-.661.285-.077.035-.154.066-.229.1l-.158.071q-2.033.9-3.982,1.948c-.13.066-.257.137-.385.207q-1.509.821-2.963,1.729-.3.188-.609.384c-.136.087-.273.174-.409.263s-.257.17-.386.254q-2.05,1.361-3.978,2.88l-.386.308c-.1.083-.208.167-.31.25-.158.127-.313.256-.467.384q-1.656,1.369-3.2,2.858-.194.185-.387.374V96.037h.387" transform="translate(-159.356 -60.639)" fill="#fff"/>
    </g>
    <path id="Tracé_1027" data-name="Tracé 1027" d="M174.973,199.753c.13-.005.259-.009.388-.016,1.263-.047,2.514-.137,3.756-.262.075-.009.149-.014.224-.024l.13-.014c.019,0,.042,0,.063-.007l.194-.021c.4-.045.8-.094,1.2-.148s.8-.109,1.2-.17c.528-.08,1.057-.168,1.578-.262l.387-.073q2.015-.378,3.98-.89c.13-.033.259-.068.386-.1q2.021-.537,3.98-1.213c.13-.043.259-.088.387-.134q1.682-.592,3.317-1.279c.22-.094.443-.188.663-.283.075-.035.152-.068.227-.1.052-.024.107-.047.158-.069q2.033-.9,3.982-1.947l.385-.209q1.512-.823,2.965-1.731.3-.188.607-.384c.136-.085.275-.174.409-.263s.257-.168.386-.254q2.05-1.361,3.98-2.88c.13-.1.257-.205.387-.306.1-.083.206-.167.308-.25.158-.128.313-.255.469-.384q1.653-1.371,3.2-2.859c.13-.123.259-.248.387-.374V164.77h4.366v-4.722h-.386v4.338h-4.367v4.338h-4.365v.384h4.365V177.4H205.54v4.337h-4.367v4.722h.385v-4.338h4.368v-4.337h8.345v4.3l-.033.035c-.051.048-.1.1-.151.148-.135.132-.273.264-.38.367-1.009.968-2.071,1.917-3.157,2.819-.079.066-.166.135-.257.21v-3.93h-.387v4.246l-.117.094-.005.005-.024.017-.359.287c-.033.023-.065.049-.1.075-1.086.854-2.22,1.679-3.378,2.461v-2.845h-.386v3.106c-.023.014-.044.029-.066.043-.126.085-.252.167-.381.25s-.254.167-.4.259c-.192.123-.394.252-.6.379-.161.1-.324.2-.488.3-.211.128-.425.257-.638.384-.464.276-.934.546-1.407.806v-1.19h-4.366v-3.954h0v-.383h0v-3.956h0v-.384h0v-3.952h4.366v-4.338h8.735v-.384h-4.367V164.77h4.367v-4.722h-.387v4.338h-8.733v4.722h.385V164.77h3.982v8.292h-4.367V177.4H192.44v.384h4.367v3.952H179.728v-8.291h4.365v-4.338h3.98V177.4h-4.367v.384h4.753v-4.338h8.733v-.384H188.46v-8.676h-.386v4.338h-4.367v4.338h-8.731v.384h4.366v16.967H171v-8.676h-4.367v-3.952h8.347v8.675h.386V177.4h-9.118v4.721h4.365V190.8h9.12v-8.676h17.078V190.8h4.366v1.02s0,0,0,0l-.11.059-.275.148c-1.169.627-2.378,1.223-3.6,1.771-.109.05-.219.1-.331.148l-.054.024-.007,0-.1.043c-.052.024-.1.045-.154.068l-.068.03c-.217.094-.436.189-.655.28-.29.121-.584.241-.878.36-.326.132-.655.259-.98.384q-.572.216-1.141.421v-5.144h-.387v4.34h-8.346v-8.294h3.98V190.8h.386v-4.338h4.367v-.383h-9.12v9.06h8.733v.558l-.267.092c-1.221.421-2.47.8-3.713,1.14l-.208.057-.107.028c-.024.005-.049.014-.072.017-.068.019-.137.038-.206.054-1.244.325-2.514.608-3.774.848-.051.01-.1.022-.151.029-.079.016-.158.03-.236.043l-.145.028c-.52.092-1.043.181-1.557.259-.747.115-1.512.217-2.276.3v-3.843h-13.1v-8.676h-.385v4.337H153.529v-3.954h8.733v-.383h-13.1v-4.34h-.387v4.34h-4.366v.383h8.733V190.8h13.1v3.956h0v.384h13.1v3.5c-.026,0-.054.005-.08.007l-.009,0h-.007c-.07.009-.138.014-.206.021h0c-1.221.123-2.458.212-3.674.259h-.036c-.117.007-.235.01-.35.014h0a.117.117,0,0,1-.026,0c-.641.021-1.3.033-1.963.033s-1.321-.012-1.965-.033a.111.111,0,0,1-.024,0c-.116,0-.234-.007-.35-.014h-.037c-1.217-.047-2.454-.135-3.674-.259h0c-.07-.007-.136-.012-.206-.021h-.009l-.005,0c-.029,0-.057,0-.082-.007v0l-.289-.031h-.005l0,0c-.029,0-.059-.005-.089-.01v0h0c-.765-.087-1.529-.189-2.276-.3-.521-.078-1.044-.167-1.557-.259l0,0h0l-.142-.026v-3.252h-4.753v.384h4.366v2.795c-1.261-.24-2.53-.525-3.777-.848-.064-.015-.133-.035-.2-.052l-.175-.047-.211-.057c-1.244-.337-2.493-.72-3.712-1.14l-.268-.092c-.038-.014-.077-.026-.114-.042-.091-.031-.182-.063-.271-.1-.381-.135-.761-.276-1.143-.421h1.528v-.384h-2.507c-.3-.118-.588-.238-.88-.36-.217-.094-.437-.186-.651-.28l-.072-.031c-.049-.023-.1-.043-.151-.066-.033-.016-.068-.029-.1-.045l0,0v-3.556h-4.753v.384h4.366v3c-1.219-.549-2.426-1.145-3.593-1.771l-.005,0h0l-.374-.2a.006.006,0,0,1-.005,0c-.128-.069-.257-.142-.385-.214q-.709-.391-1.406-.806c-.213-.127-.427-.254-.637-.384-.164-.1-.325-.2-.488-.3s-.381-.238-.6-.379c-.147-.094-.278-.177-.4-.261-.149-.1-.266-.174-.376-.249l0,0v0l-.067-.043c-.129-.083-.257-.17-.386-.257-1.148-.775-2.281-1.6-3.377-2.461h3.763v-.384h-4.249c-.038-.033-.079-.062-.116-.094l-.178-.144,0,0,0,0c-.07-.055-.138-.111-.2-.167-.091-.073-.178-.144-.255-.21-1.087-.9-2.15-1.849-3.161-2.821-.105-.1-.243-.233-.381-.369-.049-.047-.1-.1-.147-.144H144.8v-4.338h8.348v4.337h.385V177.4H144.8v-8.676H126.944v.384h4.366v4.338h4.367v4.338h4.751v-4.722h-.386V177.4h-3.978v-4.338H131.7v-3.954h12.713v12.63h-3.982v0h-.386v0H131.7V177.4h-.387v4.3c-.049-.048-.1-.1-.147-.149-.109-.106-.221-.222-.371-.377-.976-1-1.931-2.059-2.838-3.137-.066-.078-.138-.165-.212-.256l-.17-.2v0l0,0c-.047-.059-.1-.116-.145-.177-.03-.038-.063-.078-.095-.116,0,0,0,0,0-.005l-.005-.005c-.1-.118-.191-.236-.291-.363l-.01-.012c-.026-.031-.05-.064-.077-.1-.866-1.088-1.7-2.214-2.479-3.355h2.865v-.384h-3.123c-.016-.023-.031-.043-.045-.066l0,0c-.074-.109-.152-.227-.25-.375-.088-.132-.175-.266-.261-.4-.142-.219-.28-.433-.381-.6s-.2-.323-.3-.485v-2.413h-.385v1.78c-.278-.461-.549-.928-.814-1.4l-.211-.383s0,0,0-.007c-.072-.127-.139-.252-.208-.377-.632-1.163-1.231-2.362-1.783-3.572h3.4v-.384h-3.578l0,0c-.014-.035-.03-.068-.045-.1-.021-.05-.044-.1-.065-.148l-.031-.071c-.095-.214-.189-.433-.282-.65-.123-.288-.243-.58-.362-.872v-2.108h8.347v4.338h13.484v-13.4h-.386v4.338h-4.365v.383h4.365v8.292H127.331v-8.292h3.98v4.338h4.753v-.384H131.7v-8.292h4.366v-4.337h8.347v8.675h.385V143.08h12.713v8.294h-3.98v-4.338h-4.752v.384h4.367v4.337H157.9V142.7H144.8v-4.338h-.385v8.676h-8.733v4.338h-4.367v4.338h-4.366v4.337H118.6v-4.337h-.386v5.854c-.147-.377-.287-.754-.423-1.133-.033-.088-.065-.179-.1-.269-.012-.036-.026-.076-.04-.115l-.094-.262c-.422-1.213-.8-2.452-1.146-3.69l-.058-.212-.047-.172c-.017-.069-.037-.135-.054-.2-.324-1.236-.612-2.5-.852-3.749h3.2v-.384h-3.275c-.007-.047-.017-.094-.024-.14v0l0,0c-.093-.511-.182-1.031-.261-1.549-.119-.756-.222-1.517-.306-2.261,0-.029-.007-.059-.01-.09l0,0v0c-.01-.087-.019-.181-.031-.287,0-.026-.005-.052-.009-.08l0-.009v-.007c-.009-.069-.014-.137-.021-.205v0c-.126-1.213-.215-2.44-.261-3.652h12.551v8.294h-3.98v-4.338h-4.753v.384h4.368v8.675h.385v-4.338h4.366v-4.337H131.7v-4.34h8.731V134.4h8.348v4.338h13.1v4.337h.387V134.4H171v-4.338h4.366v-4.722h-.386v4.338h-4.367v4.338h-3.98V116.67h-4.366v-3.954h4.366v-4.338h3.98v17.35H171v-4.338h8.346v12.63h-4.366v4.338h-4.367v.384h8.733v4.337h4.365v4.34h.387V142.7h-4.365v-4.338h-4.367V134.4h8.732v-.384h-4.365v-3.954h8.345v8.292h-4.367v.384h4.367v13.013h4.753V143.08h4.366V142.7H192.44v8.676h-3.98v-12.63h17.08v4.337h.386v-4.337h12.712V142.7h-4.367v8.676h-3.978V142.7h-.387v4.338h-8.348V142.7h-.385v4.722h8.733v4.337h4.752V143.08h4.366v-4.721H201.558v-8.292h8.348v3.954H205.54v.384h4.753v-4.722h-13.1v-4.338h-.386v8.676h-3.98v-8.676h-8.733v-3.954h17.08v4.338h.385V116.67h-.385v4.338h-17.08v-8.676h-.387v4.338h-8.345v-3.954h4.367v-4.338h8.345v8.676h.386v-13.4h-.386v4.338h-8.732v4.338h-4.366v4.722h8.731v8.674h8.733V134.4h4.753v-4.338h3.98v8.292H188.46v-8.676h-8.731v-8.674H171v-12.63h4.366V94.98h-.386v4.338h-4.367v4.722H171V99.7h3.98v8.292h-8.732v4.338h-4.368v4.722h4.368v12.628H153.529v-8.292h8.346v3.954h-4.366v.384h4.753v-4.72h-9.118v8.674h-4.367v.384h17.466v3.954h-4.368v4.338H149.164V134.4H157.9v-.384H144.8v-8.292h4.368v-.384h-4.753v8.676h-4.368v4.338h-4.365v.384h4.365V142.7H131.7V134.4h4.366v-4.338h4.365v-.384h-4.751v4.338h-4.367v13.014h-3.98V142.7H118.6V134.4h4.367v-.384h-4.753V142.7h-3.833a.123.123,0,0,1,0-.026c-.019-.638-.031-1.293-.031-1.95s.012-1.314.031-1.952a.1.1,0,0,1,0-.024v0c.005-.116.009-.231.014-.348v-.007c0-.009,0-.019,0-.03.045-1.209.135-2.437.261-3.653l0-.009c.005-.064.012-.129.019-.195V134.5l0-.01c0-.026.005-.054.009-.08h0c.01-.1.019-.2.029-.288v0l0,0,.01-.09c.087-.761.189-1.521.306-2.263.077-.507.166-1.029.261-1.545.009-.049.019-.1.026-.146h11.622v8.292h-4.365v.384h4.751v-8.676H131.7v-9.058h-.387v8.674h-8.346v-4.338h-.385v4.338H118.6v-4.336h-.386v4.336H115.4c.243-1.265.532-2.525.854-3.751.019-.068.037-.135.056-.2,0-.022.01-.043.016-.064l.03-.111c.017-.071.038-.139.058-.208.338-1.234.724-2.475,1.146-3.688.033-.09.063-.179.094-.266.014-.038.028-.076.04-.115.033-.088.065-.179.1-.269.136-.377.276-.756.423-1.133v1.517h.386V118.9c.119-.294.24-.584.362-.875.093-.217.187-.435.282-.648l.031-.071c.021-.05.044-.1.065-.148.016-.033.031-.066.045-.1l0-.005h3.578v-.384h-3.4c.551-1.208,1.151-2.407,1.783-3.57.07-.127.137-.252.208-.379a.007.007,0,0,1,0-.005c.07-.129.144-.257.213-.383q.4-.707.814-1.4v1.782h.385V110.3c.1-.162.2-.324.3-.483s.24-.379.381-.6c.086-.132.173-.266.261-.4l.049-.073c.066-.1.133-.2.2-.307.016-.021.03-.042.045-.064.086-.129.171-.257.261-.384.787-1.151,1.618-2.277,2.477-3.356v16.37h-4.365v.382h4.365v4.34h.386V102.884c-.129.153-.257.309-.386.464-.086.1-.168.205-.252.308-.1.128-.206.255-.308.384q-1.53,1.916-2.9,3.954l-.256.384c-.089.134-.178.271-.266.407-.13.2-.259.4-.385.6q-.913,1.447-1.742,2.946c-.07.125-.14.254-.21.383q-1.05,1.935-1.959,3.954c-.023.052-.046.106-.07.158-.033.075-.066.151-.1.226-.1.219-.191.44-.285.659q-.693,1.621-1.288,3.3c-.045.127-.091.255-.135.384q-.68,1.947-1.223,3.954c-.033.127-.068.255-.1.384q-.517,1.95-.9,3.952c-.026.129-.049.257-.073.384-.095.52-.184,1.045-.264,1.569l-.01.077c-.028.172-.054.344-.077.516q-.029.18-.052.36l-.021.158c-.01.085-.023.17-.033.255-.017.127-.035.256-.049.384-.024.195-.047.39-.07.586a.418.418,0,0,0-.007.048c0,.012,0,.024,0,.036-.007.052-.012.1-.017.157a.4.4,0,0,0-.007.062c-.005.043-.01.087-.014.128s-.009.075-.012.111-.009.073-.012.111c-.126,1.232-.217,2.478-.264,3.731-.007.129-.011.257-.016.386-.021.655-.033,1.314-.033,1.976s.012,1.319.033,1.976c.005.129.009.257.016.383.047,1.255.138,2.5.264,3.733,0,.038.009.075.012.111s.007.074.012.111.009.089.014.132c0,.019,0,.042.007.061.005.059.012.118.019.177a.03.03,0,0,1,0,.014c.016.136.033.271.05.407.081.662.168,1.321.27,1.976v0c.08.525.17,1.05.266,1.569.023.129.047.256.072.384q.381,2,.9,3.954c.033.129.066.256.1.384q.544,2,1.223,3.952c.044.128.089.257.135.384q.6,1.671,1.288,3.3c.094.221.189.442.285.659.035.076.068.153.1.228.024.052.047.1.07.156q.908,2.021,1.959,3.956c.07.129.14.256.21.383q.829,1.5,1.742,2.944c.126.2.255.4.385.6.087.137.177.273.266.409l.256.384q1.369,2.036,2.9,3.952c.1.129.2.257.308.384.084.1.166.205.252.306.13.158.257.311.386.466q1.38,1.642,2.878,3.182.186.193.376.384.36.365.726.721.192.188.387.374,1.548,1.489,3.2,2.859c.154.129.31.256.469.384l.308.25.386.306q1.926,1.517,3.978,2.88c.13.085.257.17.386.254s.273.177.409.263q.3.2.609.384,1.454.907,2.963,1.731c.128.069.255.139.385.207q1.947,1.046,3.982,1.948c.053.023.105.045.158.069l.229.1c.219.1.441.189.661.283q1.635.686,3.319,1.279c.126.045.257.09.385.134q1.96.675,3.98,1.213c.13.035.257.069.386.1,1.309.341,2.638.638,3.98.89.13.024.257.048.387.069q.785.146,1.58.266c.4.061.8.118,1.2.17s.8.1,1.2.148c.082.009.166.019.248.026l.07.009.068.007c.075.01.147.016.224.024,1.24.125,2.494.216,3.756.262.13.007.257.01.387.016q.989.031,1.989.033t1.989-.033" transform="translate(819.93 696.476)" fill="#fff"/>
    <g id="Groupe_11651" data-name="Groupe 11651" transform="translate(905.552 843.503)">
      <path id="Tracé_1028" data-name="Tracé 1028" d="M118.861,223.034c-.425.645-1.2.42-1.773.558-1.066.26-2.038.8-3.08,1.115a28.94,28.94,0,0,0-5.229,2.047,22.01,22.01,0,0,0-3.361,2.509c-.892.739-1.723,1.346-2.613,2.232-.25.249-.469.5-.745.743a19.477,19.477,0,0,0-3.174,4,15.819,15.819,0,0,0-1.026,1.859c-.224.472-.343,1.473-1.12,1.487-.523-.391.2-1.39.467-1.953a17.651,17.651,0,0,1,1.026-1.86c.367-.49.755-1.167,1.214-1.766a13.582,13.582,0,0,1,2.052-2.323c1.094-.95,2.156-2.1,3.361-3.068.365-.29.751-.559,1.12-.836a23.992,23.992,0,0,1,2.24-1.673c.477-.272,1.168-.464,1.773-.745.571-.265,1.112-.619,1.679-.836.942-.361,2-.444,2.988-.836a13.453,13.453,0,0,1,2.052-.836c.874-.221,1.836-.593,2.148.185" transform="translate(-76.67 -222.563)" fill="#fff" fill-rule="evenodd"/>
      <g id="Groupe_11650" data-name="Groupe 11650" transform="translate(0 2.711)">
        <g id="Groupe_11649" data-name="Groupe 11649">
          <path id="Tracé_1029" data-name="Tracé 1029" d="M70.733,287.971c-.82.47-1.433,1.487-2.24,2.138-.6.486-1.362.892-2.054,1.394a30.86,30.86,0,0,0-4.2,4c-.753.79-1.633,1.467-2.519,2.23-1.669,1.438-3.144,3.135-4.761,4.649a29.654,29.654,0,0,0-4.292,5.11,44.853,44.853,0,0,0-2.708,4.37,13.5,13.5,0,0,0-1.493,3.623,7.17,7.17,0,0,0,2.427,6.787,4.45,4.45,0,0,0,3.92,1.394c1.631-.135,2.681-1.27,3.641-1.951.417-.3.886-.48,1.212-.745a31.056,31.056,0,0,0,2.613-2.7c.209-.221.541-.338.748-.557.22-.235.365-.586.559-.836,1.94-2.493,4.108-5.373,5.7-7.715-1.854-.8-2.741-3.1-3.455-5.021-.156-.42-.8-1.182,0-1.392.8.564.846,1.852,1.4,2.879.391.729,1.186,2.23,1.866,2.511.22.092.547,0,.747.187,1.711-2.463,3.485-5.186,5.04-7.715a11.769,11.769,0,0,0,.746-1.117c.182-.4.188-.91.375-1.3.5-1.055,1.529-1.838,1.587-3.068,0,.255-.441.221-.559.093-.3-.531-.333-1.043-.653-1.581-.417-.693-1.579-1.177-1.122-2.045a2.85,2.85,0,0,1,1.587,1.394,8.4,8.4,0,0,1,.934,2.047c.473-1.081.886-2.218,1.4-3.255A20.136,20.136,0,0,1,70.733,287.971Zm9.8,2.324c.713.129,1.507-.81,1.958-1.394-1.144-.6-2.551-.928-3.639-1.581C79.192,288.147,79.869,290.175,80.535,290.3Zm-3.082-1.487c.357.731,1,1.669,1.495,1.768a.869.869,0,0,0,.653-.1,6.7,6.7,0,0,1-1.587-3.623c-.6-.084-1.114-.747-1.493-.745C76.789,286.743,76.98,287.834,77.453,288.808ZM70.733,282.4a4.4,4.4,0,0,0,.373,3.066,5.2,5.2,0,0,0,2.146,2.6c.631.46,1.2,1.017,1.776,1.022a4.733,4.733,0,0,1-.748-1.3c-.21-.44-.7-1.049-.28-1.487.8.087.962,1.1,1.307,1.766.543,1.047.99,2.28,2.146,2.136a8.564,8.564,0,0,1-1.585-3.9c.068-.243.377-.243.559-.372A24.409,24.409,0,0,1,71.387,281C71.31,281.629,70.851,281.957,70.733,282.4Zm19.136-48.8c-1.609.3-3.086.522-4.481.93a46.055,46.055,0,0,0-5.788,2.23c-.621.279-1.315.527-1.868.836-.293.165-.561.494-.934.745s-.8.394-1.118.649c-.287.231-.547.6-.842.838-.349.289-.766.476-1.026.745-.467.48-.838,1.19-1.306,1.766s-1,1.1-1.4,1.673-.718,1.292-1.12,1.951a19.112,19.112,0,0,0-1.212,1.86c-.361.824-.351,1.688-.653,2.417a22.975,22.975,0,0,0-1.028,2.323,44.568,44.568,0,0,0-.746,8.181c-.07,1.517-.317,2.871-.28,4.181A15.167,15.167,0,0,0,68.12,271.8c.978,1.957,1.874,4.2,2.986,5.949.617.972,1.114,1.838,1.773,2.7a16.193,16.193,0,0,0,1.96,2.417c.824.714,1.651,1.332,2.521,1.953a31.083,31.083,0,0,0,6.066,2.881,15.756,15.756,0,0,0,3.269,1.115,38.883,38.883,0,0,0,16.146-.743c1.132-.336,2.152-.8,3.269-1.208.539-.2,1.15-.321,1.679-.558s.994-.5,1.493-.745a13.89,13.89,0,0,0,2.8-1.673,6.319,6.319,0,0,0,1.12-1.4c.714-1,1.465-2.047,2.052-3.066.884-1.529,1.805-2.8,2.521-4.368.362-.8.7-1.557,1.026-2.419a32.509,32.509,0,0,0,2.335-7.993,58.2,58.2,0,0,0,.092-10.317,18.514,18.514,0,0,0-2.706-8.087,13.936,13.936,0,0,0-2.334-3.066,46.969,46.969,0,0,0-4.106-4,38.24,38.24,0,0,0-4.761-3.344A23.2,23.2,0,0,0,95.1,233.318C93.172,233.493,91.436,233.3,89.869,233.6Zm23.521.185a4.51,4.51,0,0,0-1.028-2.415c-1.381-1-2.972.312-3.826,1.021-.7.578-1.519,1.149-1.681,1.766,2.24.776,3.758,2.27,5.6,3.438C112.552,236.385,113.44,235.115,113.39,233.781Zm.186,4.555c2.7,3.026,5.6,5.25,7.28,9.017.172.386.29.852.467,1.3,1.621,4.121,1.759,10.454,1.214,16.266a27.274,27.274,0,0,1-1.5,5.857,40.477,40.477,0,0,1-2.054,5.3c-.864,1.676-1.878,3.024-2.8,4.555a19.268,19.268,0,0,1-3.08,4.275,22.763,22.763,0,0,1-4.014,2.232c-.5.271-.85.7-1.212.836-.547.2-1.174.154-1.773.372-1.122.408-2.122.97-3.269,1.3a27.052,27.052,0,0,1-3.92.651c-4.924.655-10.653.778-14.84-.743-1.373,1.2-2.571,2.584-5.321,2.415-.908,1.636-1.591,3.568-2.521,5.3-.283.527-.673,1.035-.934,1.579-.223.47-.243,1.025-.467,1.487-.244.509-.758.993-1.12,1.581-.984,1.6-1.974,3.233-3.08,4.834-.729,1.055-1.461,2.087-2.146,3.16-1.379,2.16-2.928,4.049-4.481,6.136a30.6,30.6,0,0,1-6.533,6.785,13.87,13.87,0,0,1-3.08,1.951,5.476,5.476,0,0,1-2.894.187,12.544,12.544,0,0,1-1.307-.093,9.422,9.422,0,0,1-3.455-2.787,8.159,8.159,0,0,1-1.773-6.6,10.98,10.98,0,0,1,.653-2.043,33.741,33.741,0,0,1,2.8-5.021,25.078,25.078,0,0,1,2.054-3.16,63.525,63.525,0,0,1,5.04-5.485c1.758-1.75,3.659-3.271,5.413-5.019a40.593,40.593,0,0,1,4.2-4,27.8,27.8,0,0,0,3.361-2.6,5.647,5.647,0,0,1,1.587-1.394c-.168-.772-.713-1.527-.84-2.417a6.99,6.99,0,0,1,1.307-4.647,62.63,62.63,0,0,1-3.267-6.321c-1.495-3.106-2.964-5.807-2.615-10.783.122-1.722.349-3.635.467-5.483a26.388,26.388,0,0,1,.653-5.206c.21-.738.72-1.487,1.028-2.323s.377-1.841.745-2.6c.2-.4.547-.83.84-1.3a36.1,36.1,0,0,1,4.481-6.136c.351-.356.822-.585,1.215-.93a9.852,9.852,0,0,1,1.587-1.394c.116-.07.25-.022.372-.094.1-.058.114-.231.187-.279a25.074,25.074,0,0,1,3.639-1.766c.841-.372,1.731-.679,2.613-1.023a28.364,28.364,0,0,1,5.79-1.581c1.042-.183,2.07-.472,3.078-.558,1.21-.1,2.523-.036,3.827-.092a23.961,23.961,0,0,1,9.988,1.581c.675-.261,1.062-.948,1.587-1.4,1.319-1.125,3.974-3.562,6.533-1.766a5.533,5.533,0,0,1,1.495,4,10.3,10.3,0,0,1-.561,2.138c-.216.725-.182,1.547-.653,1.953" transform="translate(-44.877 -229.61)" fill="#fff" fill-rule="evenodd"/>
        </g>
      </g>
      <path id="Tracé_1030" data-name="Tracé 1030" d="M122.793,238.106c.006.749-.794.4-1.307.464a18.163,18.163,0,0,0-4.76,1.487,11.809,11.809,0,0,0-2.427,1.487c-1.046.8-1.633,1.806-2.8,2.6-.274.187-.687.755-1.118.281.064-.854,1.012-1.043,1.585-1.581.637-.6,1.09-1.422,1.773-1.951a14.414,14.414,0,0,1,3.547-1.861,17.886,17.886,0,0,1,4.108-1.207c.431-.048,1.056-.4,1.4.279" transform="translate(-85.177 -231.872)" fill="#fff" fill-rule="evenodd"/>
      <path id="Tracé_1031" data-name="Tracé 1031" d="M219.323,240.623a3.441,3.441,0,0,1-1.493-1.487c-.068-.255.184-.187.186-.371.824.154,1.79,1,1.307,1.858" transform="translate(-151.277 -232.531)" fill="#fff" fill-rule="evenodd"/>
      <path id="Tracé_1032" data-name="Tracé 1032" d="M216.779,244.558c-.814.006-.932-.681-1.307-1.113a2.312,2.312,0,0,1-1.026-.838c-.028-.149.086-.159.092-.279.932-.3,2.539,1.3,2.24,2.23" transform="translate(-149.199 -234.7)" fill="#fff" fill-rule="evenodd"/>
      <path id="Tracé_1033" data-name="Tracé 1033" d="M150.1,255.559a17.425,17.425,0,0,0-4.946-4.089,38.215,38.215,0,0,0-6.533-2.975,15.144,15.144,0,0,0-1.962-.464,14.8,14.8,0,0,0-4.2-.651,46.174,46.174,0,0,0-4.946.557,24.11,24.11,0,0,0-2.521.836,22.656,22.656,0,0,0-2.521.93c-3.28,1.493-6.046,2.945-8.212,5.391-.515.581-.9,1.3-1.4,1.951-.515.669-1.06,1.27-1.493,1.953s-.914,1.465-1.307,2.23a19.526,19.526,0,0,0-1.12,2.415c-1.361,3.944-.641,9.735.092,13.665a23.977,23.977,0,0,0,2.148,6.972,14.27,14.27,0,0,0,1.96,2.694A9.187,9.187,0,0,0,115,288.835a22.25,22.25,0,0,0,2.615,1.581c.543.3,1.064.643,1.585.93a24.078,24.078,0,0,0,6.16,2.417,19.125,19.125,0,0,0,2.8.651,26.032,26.032,0,0,0,5.974-.372,34.812,34.812,0,0,0,4.481-.557,17.923,17.923,0,0,0,3.08-1.209c.585-.265,1.218-.422,1.866-.651.567-.2,1.1-.573,1.679-.836a18.182,18.182,0,0,0,1.962-.93,10.093,10.093,0,0,0,3.267-3.811c.843-1.435,1.485-3.052,2.238-4.461a17.2,17.2,0,0,0,1.215-2.138,22.158,22.158,0,0,0,.934-4.834,26.428,26.428,0,0,0,.28-5.485,17.187,17.187,0,0,0-1.214-4.181c-.267-.7-.411-1.342-.653-2.045-.207-.6-.7-1.139-.653-1.86A24.349,24.349,0,0,0,150.1,255.559Zm-18.014-9.481a12.167,12.167,0,0,1,1.96-.092,28.527,28.527,0,0,1,7.374,2.045,24.775,24.775,0,0,1,3.174,1.485,20.175,20.175,0,0,1,6.16,4.649,11.984,11.984,0,0,1,1.585,2.6,28.025,28.025,0,0,1,1.306,2.881c.22.538.283,1.033.467,1.581.164.49.495.946.653,1.488s.178,1.14.375,1.674a30.6,30.6,0,0,1,1.118,3.066,19.794,19.794,0,0,1,.1,6.972,22.068,22.068,0,0,1-1.4,6.134c-.4.91-.984,1.873-1.491,2.881-1.421,2.813-2.791,5.821-5.322,7.53a32.429,32.429,0,0,1-5.507,2.511,25.1,25.1,0,0,1-5.04,1.766c-.954.165-2.106.046-3.266.185a26.7,26.7,0,0,1-5.788.466,21.468,21.468,0,0,1-3.359-.745,32.441,32.441,0,0,1-3.269-.836c-.733-.279-1.463-.82-2.24-1.209-.4-.2-.828-.253-1.212-.466-.329-.179-.585-.534-.934-.743-.758-.454-1.531-.756-2.24-1.209-.341-.217-.687-.416-1.026-.651s-.74-.41-1.028-.649a17.668,17.668,0,0,1-1.679-2.047,13.466,13.466,0,0,1-1.493-2.136,20.606,20.606,0,0,1-1.868-5.393c-.912-3.972-1.866-8.34-1.4-13.2a13.872,13.872,0,0,1,1.307-4.461,27.217,27.217,0,0,1,2.519-4.647c.395-.534.791-1.01,1.214-1.581a19.954,19.954,0,0,1,5.974-5.485,40.73,40.73,0,0,1,4.76-2.323,25.746,25.746,0,0,1,9.335-2.045c.062,0,.124,0,.186,0" transform="translate(-82.892 -236.963)" fill="#fff" fill-rule="evenodd"/>
      <path id="Tracé_1034" data-name="Tracé 1034" d="M161.974,251.567c.714.46.73,1.732,1.026,2.7.27.874,1.048,2.08.28,2.7-.675-.159-.473-.868-.653-1.487-.156-.536-.385-1.121-.559-1.766-.222-.818-.7-1.577-.28-2.138h.186" transform="translate(-116.703 -240.407)" fill="#fff" fill-rule="evenodd"/>
      <path id="Tracé_1035" data-name="Tracé 1035" d="M169.479,252.048a16.644,16.644,0,0,1,.653,2.417c.194.7.79,1.656.186,2.232-.6.036-.531-.7-.653-1.115-.262-.892-.623-2.055-.84-3.161-.068-.253.186-.187.186-.372h.467" transform="translate(-121.127 -240.703)" fill="#fff" fill-rule="evenodd"/>
      <path id="Tracé_1036" data-name="Tracé 1036" d="M175.074,252.048a23.1,23.1,0,0,1,.934,3.44c.038.412.209,1.232-.373,1.394-.6-.072-.307-.7-.375-1.023-.232-1.119-.607-2.381-.84-3.438-.012-.167.114-.2.094-.372h.559" transform="translate(-124.576 -240.703)" fill="#fff" fill-rule="evenodd"/>
      <path id="Tracé_1037" data-name="Tracé 1037" d="M156.847,253.016c.743.432.705,1.533.934,2.417.22.858.74,1.79.559,2.6-.82.273-.978-1.071-1.214-1.951-.112-.418-.152-.928-.279-1.4-.2-.746-.611-1.19-.187-1.672h.187" transform="translate(-113.535 -241.299)" fill="#fff" fill-rule="evenodd"/>
      <path id="Tracé_1038" data-name="Tracé 1038" d="M180.88,253.5a11.643,11.643,0,0,1,.559,2.415c.2.769.663,1.6.375,2.232-.668.181-.7-.577-.842-1.022a25.9,25.9,0,0,1-.745-3.255c-.068-.253.184-.187.186-.37h.467" transform="translate(-128.142 -241.598)" fill="#fff" fill-rule="evenodd"/>
      <path id="Tracé_1039" data-name="Tracé 1039" d="M151.948,254.951c.515.066.451.828.561,1.3.222.962.453,1.941.653,3.068.078.45.367,1.033-.187,1.208-.679-.221-.647-1.392-.841-2.417-.182-.975-.713-2.15-.559-2.787.036-.155.04-.36.373-.372" transform="translate(-110.505 -242.489)" fill="#fff" fill-rule="evenodd"/>
      <path id="Tracé_1040" data-name="Tracé 1040" d="M186.629,255.894c.337.227.2.663.279,1.117.142.854.563,2.087,0,2.6-.944-.347-.569-2.26-.84-3.347.19-.122.17-.45.561-.372" transform="translate(-131.743 -243.062)" fill="#fff" fill-rule="evenodd"/>
      <path id="Tracé_1041" data-name="Tracé 1041" d="M146.988,258.184c.467.163.353.716.467,1.117a8.941,8.941,0,0,1,.653,2.881c-.108-.016-.164.02-.184.094-.736-.132-.681-.99-.842-1.581a8.514,8.514,0,0,1-.559-2.417c.138,0,.381-.344.465-.094" transform="translate(-107.413 -244.422)" fill="#fff" fill-rule="evenodd"/>
      <path id="Tracé_1042" data-name="Tracé 1042" d="M189.7,258.177a6.368,6.368,0,0,1,.373,1.953c.1.625.453,1.5-.092,1.857-.7.006-.617-1.511-.747-2.417-.089-.611-.361-1.222.186-1.485.15-.028.16.087.281.092" transform="translate(-133.598 -244.415)" fill="#fff" fill-rule="evenodd"/>
      <path id="Tracé_1043" data-name="Tracé 1043" d="M196.115,258.641c.042.412-.052.693-.465.651,0-.092-.116-.074-.189-.094-.18-.564.285-.834.653-.557" transform="translate(-137.497 -244.692)" fill="#fff" fill-rule="evenodd"/>
      <path id="Tracé_1044" data-name="Tracé 1044" d="M143.2,264.352c-.727.068-.851-.918-1.028-1.579a6.611,6.611,0,0,1-.375-3.068c.351-.01.267-.106.561,0,.186.818.259,1.712.467,2.508.2.753.741,1.471.375,2.138" transform="translate(-104.466 -245.384)" fill="#fff" fill-rule="evenodd"/>
      <path id="Tracé_1045" data-name="Tracé 1045" d="M193.706,262.676c.1.556.806,2.457-.373,2.324-.072-.586-.856-2.409.373-2.324" transform="translate(-136.021 -247.24)" fill="#fff" fill-rule="evenodd"/>
      <path id="Tracé_1046" data-name="Tracé 1046" d="M197.1,263.406c-.086,1.1.766,2.359.186,3.068-.567.193-.445-.406-.561-.745a4.244,4.244,0,0,1-.279-2.045c-.026-.149.088-.161.092-.279h.561" transform="translate(-138.11 -247.691)" fill="#fff" fill-rule="evenodd"/>
      <path id="Tracé_1047" data-name="Tracé 1047" d="M136.4,264.13a15.135,15.135,0,0,1,.559,2.417,5.418,5.418,0,0,1,.373,2.417c-.858.177-.858-1.039-1.026-1.674a10.87,10.87,0,0,1-.467-2.881c-.026-.151.088-.159.094-.279h.467" transform="translate(-100.84 -248.137)" fill="#fff" fill-rule="evenodd"/>
      <path id="Tracé_1048" data-name="Tracé 1048" d="M205.7,266.573c-.082.042-.166.082-.186.187-1.689.022.056-1.959.186-.187" transform="translate(-143.258 -249.186)" fill="#fff" fill-rule="evenodd"/>
      <path id="Tracé_1049" data-name="Tracé 1049" d="M200.7,267.254a3.165,3.165,0,0,1,.467,1.023.792.792,0,0,1,.559.094c.044.354-.04.581-.28.651-.483-.139-.421-.4-.932-.372a2.281,2.281,0,0,1-.375-1.115c.152-.129.23-.329.561-.281" transform="translate(-140.396 -250.054)" fill="#fff" fill-rule="evenodd"/>
      <path id="Tracé_1050" data-name="Tracé 1050" d="M131.62,268.134c.226.683.178,1.406.373,2.136.264,1,1,2.069.467,2.883-.813-.163-.765-1.4-1.026-2.232a6.552,6.552,0,0,1-.467-2.7c.232-.133.365-.225.653-.092" transform="translate(-97.83 -250.56)" fill="#fff" fill-rule="evenodd"/>
      <path id="Tracé_1051" data-name="Tracé 1051" d="M217.943,279.829c-.753-.271-.547-1.193-.653-1.674-.473-2.126-1.685-3.43-2.894-4.925a9.914,9.914,0,0,0-1.4-1.394c.048-.231.229-.332.373-.466.108-.014.166.022.186.094.886.227,1.16,1.013,1.773,1.766.337.412.826.727,1.122,1.117.158.207.2.56.373.834.148.237.439.426.559.651a9.532,9.532,0,0,1,.653,2.417c.1.472.637,1.322-.092,1.581" transform="translate(-148.309 -252.589)" fill="#fff" fill-rule="evenodd"/>
      <path id="Tracé_1052" data-name="Tracé 1052" d="M205.865,273.814c-.788.1-.76-.605-1.12-.928.322-1.063,1.539.154,1.12.928" transform="translate(-143.234 -253.267)" fill="#fff" fill-rule="evenodd"/>
      <path id="Tracé_1053" data-name="Tracé 1053" d="M127.182,272.823c.276,1.039.352,2.255.653,3.347.175.633.721,1.459.094,1.953-.607-.11-.669-1.027-.841-1.674a10.674,10.674,0,0,1-.467-3.345c.034-.121.164-.147.189-.28h.373" transform="translate(-95.165 -253.485)" fill="#fff" fill-rule="evenodd"/>
      <path id="Tracé_1054" data-name="Tracé 1054" d="M122.782,278.38c.335.368.14.872.188,1.3.14,1.256.738,2.423.653,3.532-.613.171-.856-.631-1.028-1.208a9.827,9.827,0,0,1-.372-3.345c-.026-.152.088-.161.094-.281h.465" transform="translate(-92.446 -256.904)" fill="#fff" fill-rule="evenodd"/>
      <path id="Tracé_1055" data-name="Tracé 1055" d="M218.713,283.3c-.054.9-.2,2.119-1.028,1.951-.335-.536.274-1.364.375-2.045.249,0,.533-.036.653.094" transform="translate(-151.133 -259.871)" fill="#fff" fill-rule="evenodd"/>
      <path id="Tracé_1056" data-name="Tracé 1056" d="M120.295,286.835a3.875,3.875,0,0,1,.28,1.4c.194.97.858,1.925.559,2.694-.7.068-1.1-1.256-1.307-2.138a3.078,3.078,0,0,1,0-1.951h.467" transform="translate(-90.891 -262.106)" fill="#fff" fill-rule="evenodd"/>
      <path id="Tracé_1057" data-name="Tracé 1057" d="M219.732,288.289c.381.788-.4,2.729-1.4,2.136.215-.807.74-1.306.932-2.136h.467" transform="translate(-151.593 -263)" fill="#fff" fill-rule="evenodd"/>
      <path id="Tracé_1058" data-name="Tracé 1058" d="M220.567,294.1c-.294.6-.467,1.726-1.306,1.487.016.388.032.776-.187.93-.808.024-.567-.549-.559-1.209,1.18.167,1.072-2.337,2.052-1.209" transform="translate(-151.681 -266.392)" fill="#fff" fill-rule="evenodd"/>
      <path id="Tracé_1059" data-name="Tracé 1059" d="M118.757,298.211c-.774.086-.926-.733-1.12-1.208a4.361,4.361,0,0,1-.467-1.766c.076-.08.257-.056.28-.185a.423.423,0,0,0,.279.092c.339.982,1.1,1.989,1.028,3.068" transform="translate(-89.353 -267.161)" fill="#fff" fill-rule="evenodd"/>
      <path id="Tracé_1060" data-name="Tracé 1060" d="M224.043,296.91c.064.559-.038.953-.653.836-.469-.466.082-1.453.653-.836" transform="translate(-154.596 -268.183)" fill="#fff" fill-rule="evenodd"/>
      <path id="Tracé_1061" data-name="Tracé 1061" d="M222.443,300.714a2.661,2.661,0,0,1,.094,1.023c.15.137.449-.062.653.185a9.836,9.836,0,0,0,.561,2.325c-.084.04-.169.08-.189.185-.938-.088-.95-1.1-1.12-1.953-.01-.177-.311.109-.559,0-.313-.49-.371-2.25.559-1.766" transform="translate(-153.651 -270.593)" fill="#fff" fill-rule="evenodd"/>
      <path id="Tracé_1062" data-name="Tracé 1062" d="M227.726,302.781c.449.151.451.934.186,1.3-.93.295-.83-1.344-.186-1.3" transform="translate(-157.066 -271.915)" fill="#fff" fill-rule="evenodd"/>
      <path id="Tracé_1063" data-name="Tracé 1063" d="M218.707,305.178v.464a.685.685,0,0,1-.748.094c.269.916,1.219,1.626,1.026,2.7-.8.1-.892-.759-1.12-1.209a4.362,4.362,0,0,1-.745-1.581.482.482,0,0,1,.745,0c-.16-.683.533-.762.842-.464" transform="translate(-150.847 -273.289)" fill="#fff" fill-rule="evenodd"/>
      <path id="Tracé_1064" data-name="Tracé 1064" d="M117.928,306.113c.264.187.341,1.171-.187,1.117-.575.034-.553-1.368.187-1.117" transform="translate(-89.458 -273.947)" fill="#fff" fill-rule="evenodd"/>
      <path id="Tracé_1065" data-name="Tracé 1065" d="M215.308,309.545c.607.374.782,1.2,1.12,1.86.307.6.97,1.182.838,1.858-.89.271-1.347-1.2-1.771-2.043-.265-.53-.77-.926-.467-1.674h.281" transform="translate(-149.502 -276.078)" fill="#fff" fill-rule="evenodd"/>
      <path id="Tracé_1066" data-name="Tracé 1066" d="M118.059,314.135c.461.492.393,2.2-.279,2.417-.689-.225-.279-1.983,0-2.417h.279" transform="translate(-89.497 -278.901)" fill="#fff" fill-rule="evenodd"/>
      <path id="Tracé_1067" data-name="Tracé 1067" d="M120.049,323.748a29.8,29.8,0,0,1,.28,4c.064.691.555,1.439,0,1.86h-.186c-.519-.4-.593-1.407-.653-2.323-.026-.364.018-.838,0-1.209-.072-.183-.3.253-.655.092-.379-.382-.75-1.661-.187-2.138.844-.157.413.955.656,1.4.321-.486-.333-1.941.745-1.673" transform="translate(-90.086 -284.795)" fill="#fff" fill-rule="evenodd"/>
      <path id="Tracé_1068" data-name="Tracé 1068" d="M125.512,328.147c.605.155.363.91.375,1.394.038,1.9.337,3.9.373,5.391-.78.183-.74-.741-.84-1.3a26.225,26.225,0,0,1-.28-5.206c.032-.124.164-.145.186-.279h.187" transform="translate(-94.243 -287.522)" fill="#fff" fill-rule="evenodd"/>
      <path id="Tracé_1069" data-name="Tracé 1069" d="M128.848,349.069c-.775.536-1.791-.946-.745-1.115.359.261.77.474.745,1.115" transform="translate(-95.806 -299.708)" fill="#fff" fill-rule="evenodd"/>
      <path id="Tracé_1070" data-name="Tracé 1070" d="M191.321,362.7h.467c.253,1.232-.833,1.879-1.493,2.508a45.924,45.924,0,0,1-3.828,3.532,24.829,24.829,0,0,1-4.481,2.789c-3.2,1.694-6.452,3.6-10.547,4-1.128.107-2.521,0-3.922,0-1.276,0-2.667.094-3.825,0-.716-.058-1.463-.261-2.147-.372-.6-.1-1.579.046-1.681-.743.607-.579,1.379,0,2.054.092a43.46,43.46,0,0,0,5.6.187,27.3,27.3,0,0,0,6.162-.372c.743-.177,1.555-.47,2.332-.743a22.113,22.113,0,0,0,2.146-.836c.571-.279,1.137-.781,1.776-1.117a34.478,34.478,0,0,0,5.413-3.066c.972-.778,2.016-1.694,3.08-2.6a11.618,11.618,0,0,0,2.894-3.251" transform="translate(-115.622 -308.778)" fill="#fff" fill-rule="evenodd"/>
      <path id="Tracé_1071" data-name="Tracé 1071" d="M174.418,368.173v.464a1.28,1.28,0,0,1-1.026,0c-.242-.749.743-.8,1.026-.464" transform="translate(-123.921 -312.026)" fill="#fff" fill-rule="evenodd"/>
      <path id="Tracé_1072" data-name="Tracé 1072" d="M215.221,376.045c.27.791-.625,1.207-1.118,1.579a32.917,32.917,0,0,1-3.455,2.232c-.583.339-1.11.8-1.679,1.115-1.751.983-3.882,1.811-5.788,2.789a15.611,15.611,0,0,1-2.988,1.208,6.117,6.117,0,0,1-2.425.279c-.344-.026-1.014.154-1.028-.372.319-.687,1.5-.306,2.054-.372a15.084,15.084,0,0,0,1.587-.558c.259-.07.527-.022.746-.093a24.88,24.88,0,0,0,2.521-1.3c.437-.205.946-.339,1.4-.558,1.14-.549,2.577-1.184,3.735-1.86.519-.3.972-.723,1.493-1.023s1.11-.532,1.587-.836a22.9,22.9,0,0,0,2.891-2.324c.265-.075.243.132.467.094" transform="translate(-138.309 -316.923)" fill="#fff" fill-rule="evenodd"/>
      <path id="Tracé_1073" data-name="Tracé 1073" d="M136.5,382.012c.159.518,1.058,1.377.373,1.859-.7-.231-.876-.987-1.028-1.766.12-.127.407-.092.655-.094" transform="translate(-100.846 -320.66)" fill="#fff" fill-rule="evenodd"/>
      <path id="Tracé_1074" data-name="Tracé 1074" d="M123.491,393.1c-.489-.01-.477-.517-.655-.836-.21-.412-.866-1.049-.373-1.581.265-.076.242.129.467.094.17.689,1.319,1.6.561,2.323" transform="translate(-92.5 -325.989)" fill="#fff" fill-rule="evenodd"/>
      <path id="Tracé_1075" data-name="Tracé 1075" d="M224.864,392.424c-.094.571-.781.758-1.214,1.117a22.07,22.07,0,0,1-2.613,1.951c-.4.247-1.016.86-1.495.185.01-.486.479-.516.841-.649,1.335-.9,2.6-1.878,3.828-2.883.353-.043.581.04.653.279" transform="translate(-152.337 -326.89)" fill="#fff" fill-rule="evenodd"/>
      <path id="Tracé_1076" data-name="Tracé 1076" d="M118.233,401.437c-.12.13-.4.094-.651.094-.748-.769.862-1.26.651-.094" transform="translate(-89.485 -332.185)" fill="#fff" fill-rule="evenodd"/>
      <path id="Tracé_1077" data-name="Tracé 1077" d="M115.536,404.241a.583.583,0,0,1-.653,0c-.361-.6.861-.992.653,0" transform="translate(-87.906 -333.966)" fill="#fff" fill-rule="evenodd"/>
      <path id="Tracé_1078" data-name="Tracé 1078" d="M113.14,406.65c-.12.129-.4.092-.653.093a3.99,3.99,0,0,1-.653-1.4c.673-.726,1.217.579,1.307,1.3" transform="translate(-86.071 -334.888)" fill="#fff" fill-rule="evenodd"/>
      <path id="Tracé_1079" data-name="Tracé 1079" d="M110.059,408.825c.209.7,1.04,1.246.748,2.14-.852.016-1.244-1.3-1.4-2.047.122-.127.407-.092.653-.093" transform="translate(-84.577 -337.156)" fill="#fff" fill-rule="evenodd"/>
      <path id="Tracé_1080" data-name="Tracé 1080" d="M105.938,411.733c.393.506.591,1.157.932,1.672.249.376.619.588.748,1.023-1.292.88-1.781-1.613-2.333-2.324-.012-.167.114-.2.092-.372h.561" transform="translate(-82.041 -338.947)" fill="#fff" fill-rule="evenodd"/>
      <path id="Tracé_1081" data-name="Tracé 1081" d="M102.276,413.906c.377.739.553,1.475.934,2.138a10.1,10.1,0,0,1,1.214,1.86c-.705.52-1.352-.541-1.773-1.21a4.1,4.1,0,0,1-.84-2.787h.465" transform="translate(-79.874 -340.284)" fill="#fff" fill-rule="evenodd"/>
      <path id="Tracé_1082" data-name="Tracé 1082" d="M100.806,422.141c-.855-.239-1.336-1.131-1.773-1.766A4.34,4.34,0,0,1,98,417.96c.14,0,.383-.347.467-.094.4.227.465.731.653,1.115a8.172,8.172,0,0,0,.653,1.115c.441.615,1.445,1.226,1.028,2.045" transform="translate(-77.563 -342.664)" fill="#fff" fill-rule="evenodd"/>
      <path id="Tracé_1083" data-name="Tracé 1083" d="M88.445,423.328c.583.149.419.741.559,1.115a19.968,19.968,0,0,0,2.708,4.368c.269.012.611-.05.748.093a.7.7,0,0,1-.375.836c-.964-.064-1.609-1.187-2.239-2.138a14.941,14.941,0,0,1-1.587-2.787c-.176-.5-.3-1.159,0-1.487h.186" transform="translate(-71.456 -346.081)" fill="#fff" fill-rule="evenodd"/>
      <path id="Tracé_1084" data-name="Tracé 1084" d="M87.682,435.624c-.661.324-1.124-.378-1.4-.836-.6-1-1.028-1.951-1.587-3.068-.254-.51-.7-1.063-.561-1.581-.068-.2.345-.382.375-.185a6.32,6.32,0,0,1,1.307,2.324c.385.79.984,1.523,1.307,2.325.162.372.866.464.559,1.021" transform="translate(-69.013 -350.105)" fill="#fff" fill-rule="evenodd"/>
      <path id="Tracé_1085" data-name="Tracé 1085" d="M82.109,438.789c.635.245.683.942,1.026,1.487.479.76,1.559,1.394,1.4,2.415-.86-.078-1.28-.952-1.679-1.487a7.535,7.535,0,0,1-1.12-2.045c-.068-.253.184-.185.187-.371h.186" transform="translate(-67.547 -355.593)" fill="#fff" fill-rule="evenodd"/>
      <path id="Tracé_1086" data-name="Tracé 1086" d="M80.559,446.131c-1.054.09-1.615-1.071-2.054-1.86a6.665,6.665,0,0,1-1.12-2.881c.14,0,.383-.346.467-.094.413.314.449.87.653,1.3A12.068,12.068,0,0,0,80,445.016c.249.3.784.631.561,1.115" transform="translate(-64.877 -357.079)" fill="#fff" fill-rule="evenodd"/>
      <path id="Tracé_1087" data-name="Tracé 1087" d="M75.54,448.686c-.717.215-.942-.661-1.214-1.117a33.447,33.447,0,0,1-2.519-4.832c.6-1.165,1.07.507,1.4,1.209.571,1.209,1.068,2.1,1.681,3.159.306.532.958.97.653,1.581" transform="translate(-61.445 -357.776)" fill="#fff" fill-rule="evenodd"/>
      <path id="Tracé_1088" data-name="Tracé 1088" d="M68.683,445.8c.3.357.154.828.279,1.207a11.633,11.633,0,0,0,.748,1.3c.22.448.357.961.561,1.394.4.85,1.194,1.619,1.12,2.6-.675.137-.863-.605-1.12-1.023-.567-.92-.846-1.782-1.4-2.881-.4-.794-.9-1.113-.747-2.323-.026-.152.088-.159.094-.279h.467" transform="translate(-59.161 -359.904)" fill="#fff" fill-rule="evenodd"/>
      <path id="Tracé_1089" data-name="Tracé 1089" d="M67.353,455.982c-.623-.02-1.08-.665-1.4-1.117a27.544,27.544,0,0,1-1.774-3.253c-.289-.553-.778-1.039-.653-1.672-.014-.263.23-.269.467-.279a54.563,54.563,0,0,0,2.707,4.832c.3.418,1.086.884.653,1.489" transform="translate(-56.338 -362.282)" fill="#fff" fill-rule="evenodd"/>
      <path id="Tracé_1090" data-name="Tracé 1090" d="M61.988,455.218c.509.167.427.834.559,1.206a9.138,9.138,0,0,0,.561,1.21c.4.743,1.2,1.318,1.12,2.136-.587.4-.781-.318-1.026-.651-.661-.888-1.655-2.289-1.587-3.625-.03-.245.194-.239.373-.277" transform="translate(-55.172 -365.701)" fill="#fff" fill-rule="evenodd"/>
      <path id="Tracé_1091" data-name="Tracé 1091" d="M58.623,459.564c.575.331.659,1.171.934,1.766.26.571.878,1.135.653,1.766-.445.233-.992-.539-1.307-1.208-.379-.8-1.056-2.029-.28-2.324" transform="translate(-53.115 -368.375)" fill="#fff" fill-rule="evenodd"/>
      <path id="Tracé_1092" data-name="Tracé 1092" d="M153.659,330.049c-.06.621-.2,1.167-.28,1.766.525-.1.888-.354,1.4-.464-.062-.589.122-1.426-.092-1.86C154.45,329.784,153.875,329.738,153.659,330.049Zm-1.307-.094c0-.122.164-.083.187-.185-.177-.01-.064-.309-.281-.279C152.31,329.626,152.15,329.971,152.352,329.955Zm-11.948-.649a2.023,2.023,0,0,0,.186,1.022c-.092-.5.435-.864.187-1.209C140.763,329.292,140.463,329.177,140.4,329.306Zm15.216-.187c.06.559-.124,1.362.092,1.766.507-.394,1.066-.735,1.585-1.115.17-.79-.264-.976-.559-1.3A.919.919,0,0,1,155.621,329.119Zm-11.11,0c-.058-.312.307-.679.094-.836C144.483,328.531,144.128,328.888,144.511,329.119Zm-3.733-.836c.26.149.259-.4.094-.372A.519.519,0,0,1,140.777,328.283Zm8.495.092c.254-.261.1-.723-.094-1.022C149.238,327.666,149.058,328.217,149.272,328.374Zm9.146-.928a2.253,2.253,0,0,0-.187,1.766c.365-.321.734-.635,1.12-.93-.06-.374.122-.99-.092-1.209C159.136,327.353,158.893,327.514,158.418,327.446Zm-2.146-.094a.926.926,0,0,0,.094-1.023C156.456,326.736,156.026,327.1,156.272,327.353Zm-9.986-.185c.214.064.248.309.465.37a1.718,1.718,0,0,0-.186-1.3C146.453,326.529,146.378,326.857,146.286,327.168Zm7.559.279c.11-.281.4-1.1,0-1.3C153.977,326.652,153.6,327.136,153.845,327.446Zm4.014-.745c-.022-.275.241-.743.092-.836C157.891,326.059,157.6,326.5,157.859,326.7Zm-6.721.93a1.663,1.663,0,0,0,.28-2.138C151.152,326.181,150.653,326.951,151.138,327.632Zm4.854-1.951c.274-.024.322.175.467.279a1.884,1.884,0,0,0-.373-1.394A5.653,5.653,0,0,0,155.992,325.681Zm7.933-6.227c.012-.122.014-.673-.092-.372C163.821,319.2,163.819,319.752,163.925,319.453Zm-26.134,11.71c.209-.673-.282-1.451-.281-2.23-.711.294-.259,1.268-.747,1.672-.868-.249-.8-1.429-1.026-2.323-.353.267-.132,1.107-.84,1.023.13.277.11.568-.187.649-.918-.032-.733-1.24-1.028-1.951a8.657,8.657,0,0,1-.932-3.532c-.3.973.2,1.846.092,2.6-1.353,0-1.357-2.108-1.587-3.532a2.232,2.232,0,0,1-.465.464c.038.822.615,1.808.279,2.417-.976,0-.854-1.338-1.026-2.136a12.018,12.018,0,0,1-.467-5.115h.561c.182.872.05,2.057.186,2.977.235-.2.174-.695.653-.651a1.056,1.056,0,0,1,.279,1.021c-.044.235.429-.223.469.094.335-.036.232-.509.745-.372.365.382.112,1.376.187,2.047.808-.219-.1-2.146.745-2.326.615.1.327.816.375,1.209.212,1.692.569,3.735.84,5.389.666-.963.653-2.955.653-4.832,0-.6-.317-1.776.561-1.766.561,1,.174,2.415.279,3.719.086,1.039.387,2.038.467,2.879.892-.983.519-2.415.187-4.087-.15-.765-.87-1.875.094-2.232.533.147.3.6.375.93.2.836.315,1.913.559,2.789.064.231.247.43.279.651.109.707-.14,1.4.189,2.045a11.807,11.807,0,0,0,.934-2.232c.166-1.286-.625-2.726-.375-4,1.042.006.818,1.316.934,2.138a19.608,19.608,0,0,1,.373,2.6c.715-.975.269-2.8.189-4.276-.024-.414-.357-1.187.372-1.209.553.163.319.786.373,1.209.169,1.308.327,2.964.559,4.183.355-.329.29-1.075.467-1.581,1.573.205.06,1.868.094,2.79.409.213.646-.446,1.12-.466-.152-2.144-1.2-3.882-1.214-5.855.763-.209.687.637.841,1.117a11.575,11.575,0,0,1,.746,2.509c.074.077.385-.006.561.187a6.321,6.321,0,0,1-.094,1.672c.239.14.395-.6,1.026-.372-.074-2.126-.948-3.948-.84-5.949.808-.094.765.578.84,1.3a30.953,30.953,0,0,1,.561,3.066c.252-.151.361-.446.653-.557a15.089,15.089,0,0,1-.373-2.045c-.108-.625-.519-1.394,0-1.766h.187c.525.352.529,1.244.653,1.953.126.729.234,1.489.372,2.136.14-.231.229-.516.656-.464.467.677-.024,1.774-.189,2.417.046.263.489.134.373.558,1.1-1.41.407-3.767,0-5.576-.17-.771-.914-1.844-.092-2.325.6.281.511,1.105.653,1.674.415,1.668.94,3.685,1.307,5.483a6.245,6.245,0,0,0,.653-1.487,6.06,6.06,0,0,0,.467-1.581,6.546,6.546,0,0,0-.747-2.136,6.917,6.917,0,0,1-.84-1.953c.593-.414.9.285,1.12.651a19.213,19.213,0,0,1,1.493,4.091c.351-.209-.024-1.141.467-1.21.651-.014.471.691.467,1.023-.01.715-.515,1.7-.373,2.417a3.745,3.745,0,0,0,.653-2.7,18.122,18.122,0,0,0-.934-2.974c-.152-.518-.239-1.085-.373-1.581-.118-.426-.6-1.083,0-1.394.648.209.744,1.125.934,1.766.2.7.379,1.485.559,2.138.05.261.449.171.653.279a12.086,12.086,0,0,0,.84,4.461c.114-1.417.6-2.757.467-4a10.59,10.59,0,0,0-1.12-2.6,13.089,13.089,0,0,1-.559-1.3c-.1-.341-.425-1,.092-1.3.658.243.772,1.135,1.026,1.766a16.018,16.018,0,0,0,.842,1.951c.074.235.382.237.559.372a4.754,4.754,0,0,0,.094,1.3c.172-.354.038-1.015.653-.93.567.55.152,2.078.279,3.068.1.241.776-.09.653.37.207-.446.167-1.137.561-1.394.282-3.319-1.036-5.043-2.427-6.693-.269-.227-.8-.2-.653-.834.649-.392,1.05.207,1.4.556a8.741,8.741,0,0,1,1.96,3.162.821.821,0,0,1,.745.185c-.126,1.189-.132,2.381.559,2.974.471-3.1-1.058-4.806-2.052-6.972-.186-.4-.683-1.157-.094-1.579.5,0,.6.607.748.93.485,1.022.942,2.234,1.495,3.253.038.171.443-.315.653,0a10.474,10.474,0,0,0,.746,3.623c.174-.946-.108-2.245,0-3.438.164-.082.12-.376.467-.279-.74-1.292-1.641-2.678-2.521-4-.239-.359-.821-.8-.467-1.3.555-.139.94.529,1.214.93.876,1.274,1.824,2.861,2.613,4.275.272-.349-.177-1.416.561-1.3.477.052.349.707.373,1.209.118-.223.2-.484.653-.372a8.877,8.877,0,0,1,.467,2.511c.357-.544.353-1.447.746-1.953-.6-.329-.772-1.089-.746-2.045-.545-.016-.681.374-1.12.464-.986-1.153-1.509-2.654-2.427-3.9-.274-.372-.777-.752-.745-1.3.994-.271,1.657,1.081,2.052,1.766a16.918,16.918,0,0,1,1.307,2.6c.315,0,.417-.49.748-.187.062-.346.319-.868.745-.558-.184-.858-.823-1.692-.559-2.7.132.008.265.016.281-.093.593.2.479,1.019.653,1.581.16.52.627,1.057.373,1.579-.12.129-.4.093-.653.093a5.314,5.314,0,0,1,.186,1.487,11.237,11.237,0,0,0,.934-3.345c-.04-.211-.5,0-.561-.187-.216-1.059-.932-2.1-.745-3.253,1.22.1.926,1.973,1.4,2.789.5-.43-.24-2.1.559-2.232.561.149.453,1.429.373,2.138-.05.46-.164,1.053-.279,1.581-.192.868-.615,1.734-.841,2.6-.129.5-.054,1.037-.187,1.487-.106.362-.344.731-.467,1.115-.287.912-.507,2.682-1.68,2.789a.724.724,0,0,1,.187-.93,4.654,4.654,0,0,1-.373-1.86c-.317.088-.685.124-1.028.187a2.293,2.293,0,0,1-.559-1.023,10.341,10.341,0,0,0-.094,2.23c.319.157.421-.695.934-.649.443.332.281,1.473.281,2.417,0,.806.3,2.212-.653,2.045a13.328,13.328,0,0,1-.094-2.511c-.914.484-1.319,1.475-1.12,3.068.321.229.2-.625.84-.372a.767.767,0,0,1-.745,1.209c-.186.125.03.649-.28.651-1.024.058-.379-1.545-.559-2.326a2.11,2.11,0,0,0-.936,2.047c.008.14.611-.149.75.092-.016.852-.788.952-.934,1.674-.633-.157-.605.217-1.028.557s-.836.4-.934,1.023c-.284.066-.339-.1-.559-.093-.966.516-2.249,1.641-3.639,1.858-.417.066-1.427.155-1.774-.277-.09-.492.393-.416.653-.558-.072-.446.144-.6.092-1.023-.166-.131-.615.251-.84.371.058.645-.295,1.175-.84.93-.184-.183-.06-.529,0-.743-.194-.125-.8.129-1.214.094-.242.593-.126,1.545-1.12,1.394-.291-.565.291-.826.281-1.394-.575-.2-.259.484-.467.649a1.965,1.965,0,0,1-1.212-.277c-.034-.516.207-.8-.094-1.117h-.467c-.245.593-.437,1.239-1.212,1.3-.262-.173-.179-.691-.187-1.115-.679-.028-.118,1.183-.653,1.3-1.024-.1-.577-1.656-1.028-2.323-.625.307-.139,1.72-1.212,1.581-.527-.587.25-1.15.28-1.768-.136-.1-.431.436-.655.559.116.438.274,1.517-.281,1.581-.543.014-.475-.579-.465-1.117-.2.426-.783.952-1.307.745-.319.006-.276-.346-.281-.651-.188-.155-.567-.117-.653-.372a3.031,3.031,0,0,0,.375-2.324c-.537,1.067-1.307,2.266-.561,3.626.8.1,1.751.444,2.705.557.812.1,1.746-.257,2.335.279-.108.87-1.643.627-2.24.558-.455-.054-.741-.2-1.4-.279a8.948,8.948,0,0,1-2.335-.745c-.277-.1-.639-.073-.934-.185-.253-.1-.471-.356-.746-.464-1.118-.436-3.08-.119-2.707-1.489a21.916,21.916,0,0,1,4.2,1.3" transform="translate(-96.907 -276.969)" fill="#fff" fill-rule="evenodd"/>
    </g>
    <g id="Groupe_11652" data-name="Groupe 11652" transform="translate(933.461 800.181)">
      <path id="Tracé_1093" data-name="Tracé 1093" d="M293.759,368.239q-.614,9.127-5.953,13.187t-18.294,3.19l-1.494-.1a14.921,14.921,0,0,1-6.125-1.651q-2.637-1.415-3.357-5.591a8.515,8.515,0,0,0,3.361,3.976,20.7,20.7,0,0,0,4.507,1.827l1.6-23.785a12.732,12.732,0,0,1,1.6-4.642,22.146,22.146,0,0,1,2.615-4.159q-7.93-.532-11.725.729t-4.13,6.223a10.076,10.076,0,0,0,1.355,6.528,23.9,23.9,0,0,0,6.307,5.449q-5.231-.352-7.681-3.3a9.642,9.642,0,0,1-2.172-7.082,10.228,10.228,0,0,1,4.265-7.936q3.927-2.894,14.846-2.16l.792-.613-.045.662q9.383.629,14.882,5.065T293.759,368.239Zm-21.379,7.214a8.175,8.175,0,0,1-1.513,3.911,44.037,44.037,0,0,1-2.843,3.822,46.606,46.606,0,0,0,10.3-.266,12.034,12.034,0,0,0,6.9-3.446q2.709-2.769,3.093-8.482.614-9.15-2.4-14.529t-11.861-5.973Z" transform="translate(-254.145 -228.108)" fill="#0c212b"/>
      <path id="Tracé_1094" data-name="Tracé 1094" d="M317.02,357.595a5.546,5.546,0,0,1,2.746.055,14.847,14.847,0,0,1,3.3,1.81l-7.981,11.857a3.8,3.8,0,0,0,2.36,1.331,9,9,0,0,0,2.791-.145,6.1,6.1,0,0,0,2.7-1.26,19.5,19.5,0,0,0,2.1-1.96,12.586,12.586,0,0,1-2.859,4.455,8.328,8.328,0,0,1-4.248,2.131q-3.633.712-5.6-1.315a9.2,9.2,0,0,1-2.494-4.718,10.89,10.89,0,0,1,1.17-8.1A8.788,8.788,0,0,1,317.02,357.595Zm-2.483,12.859q1.156-1.67,2.314-3.338,1.708-2.752,1.476-3.936a3.348,3.348,0,0,0-1.13-2.091,2.363,2.363,0,0,0-1.993-.436,2.543,2.543,0,0,0-1.914,2.135,9.356,9.356,0,0,0-.029,4.182,13.747,13.747,0,0,0,.487,1.836A8.11,8.11,0,0,0,314.537,370.454Z" transform="translate(-265.07 -229.906)" fill="#0c212b"/>
      <path id="Tracé_1095" data-name="Tracé 1095" d="M339.267,350.527a9.05,9.05,0,0,0-.248,2.46q.053,1.169.116,2.114a9.137,9.137,0,0,0-3.047-1.17,5.856,5.856,0,0,0-2.753.319,3.33,3.33,0,0,0-1.866,1.221,1.828,1.828,0,0,0-.112,1.582q.342.985,3.719,1.2a26,26,0,0,1,5.513.845,4.719,4.719,0,0,1,3.061,3.3q1.092,3.151-.5,4.85a11.158,11.158,0,0,1-4.579,2.734q-3.029,1.049-4.24.22t-2.719-5.176a10.362,10.362,0,0,0,3.713,2.835,5.931,5.931,0,0,0,4.62.241q2.712-.94,1.866-3.382-.409-1.179-3.73-1.484a25.268,25.268,0,0,1-5.355-.967q-2.036-.658-3.032-3.534a3.91,3.91,0,0,1,.346-3.958,8.184,8.184,0,0,1,3.76-2.363,9.162,9.162,0,0,1,1.945-.362,11.644,11.644,0,0,0,1.472-.2,5.148,5.148,0,0,0,1.028-.468A6.491,6.491,0,0,0,339.267,350.527Z" transform="translate(-268.972 -228.541)" fill="#0c212b"/>
      <path id="Tracé_1096" data-name="Tracé 1096" d="M375.422,350.212,368.4,340.4a4.394,4.394,0,0,0-1.049-1.1q-.495-.332-1.279.229-.851.61-.983,3.379a9.545,9.545,0,0,0,.086,3.073l4.082,5.7a2.886,2.886,0,0,1-.207,2.152,4.5,4.5,0,0,1-1.514,2.022l-8.225-11.493q-.384-.537-.791-.246a6.018,6.018,0,0,0-1.277,2.29,23.905,23.905,0,0,1,.515-4.217,3.706,3.706,0,0,1,1-2.118,1.428,1.428,0,0,1,1.929.173,17.891,17.891,0,0,1,2.531,3l.893,1.245a40.432,40.432,0,0,1,.1-5.755,5.1,5.1,0,0,1,1.879-3.917,2.031,2.031,0,0,1,2.26-.344,7.458,7.458,0,0,1,2.216,2.237l.711.994.712.994a55.548,55.548,0,0,1,.235-5.571q.261-2.885,1.818-4A2.283,2.283,0,0,1,376,328.6a3.912,3.912,0,0,1,1.851,1.621l6.928,9.68q.578.807,1.085.443a4.192,4.192,0,0,0,1.011-2.3,5.371,5.371,0,0,1,.014,2.807,3.9,3.9,0,0,1-1.55,2.268q-1.963,1.4-3.766-1.116l-5.218-7.29a2.887,2.887,0,0,0-1.185-1.084,1.209,1.209,0,0,0-1.168.227q-.778.556-.921,3.36a10.523,10.523,0,0,0,.049,3.073l4.082,5.7a2.9,2.9,0,0,1-.185,2.138A4.579,4.579,0,0,1,375.422,350.212Z" transform="translate(-274.475 -224.205)" fill="#0c212b"/>
      <path id="Tracé_1097" data-name="Tracé 1097" d="M394.1,309.151q.417-.464,2.629-.329a5.914,5.914,0,0,1,3.7,1.462q.741.662,2.691,6.441t3.218,8.93a12.592,12.592,0,0,0,3.091,4.781,6,6,0,0,0,3.514,1.541,3.734,3.734,0,0,0,3.308-1.278,3.534,3.534,0,0,0,1.052-2.452,9.227,9.227,0,0,0-1.028-3.358q2.38,2.127,1.983,4.311a8.231,8.231,0,0,1-2.059,4.046,8.363,8.363,0,0,1-3.949,2.834q-1.787.412-3.826-1.409a7.994,7.994,0,0,1-2.324-3.837q-.688-2.37-1.424-6.21l-4.772-1.5q-3.036-.954-6.222-1.681t-3.625-.421a4.175,4.175,0,0,0-.717.614,5.175,5.175,0,0,0-1.006,1.78,15.042,15.042,0,0,0-.574,2.167,25.056,25.056,0,0,1-.784-4.69q-.2-2.547.746-3.6,1.277-1.427,7.492.416a57.637,57.637,0,0,0,7.96,2.007,28.626,28.626,0,0,0-1.134-2.743,7.614,7.614,0,0,0-1.824-2.468,4.8,4.8,0,0,0-2.716-1.283,6.092,6.092,0,0,0-3.114.593q-.419-1.211-.739-2.5A2.246,2.246,0,0,1,394.1,309.151Z" transform="translate(-280.332 -220.311)" fill="#0c212b"/>
      <path id="Tracé_1098" data-name="Tracé 1098" d="M406.673,292.842a9.007,9.007,0,0,0,1.321,2.09q.762.889,1.394,1.594a9.105,9.105,0,0,0-3.12.956,5.8,5.8,0,0,0-1.972,1.946,3.322,3.322,0,0,0-.719,2.111,1.834,1.834,0,0,0,.887,1.317q.874.565,3.67-1.345A26.026,26.026,0,0,1,413,298.783a4.717,4.717,0,0,1,4.448.717q2.8,1.808,2.594,4.126a11.146,11.146,0,0,1-1.923,4.974q-1.738,2.693-3.2,2.786t-5.33-2.4a10.414,10.414,0,0,0,4.672-.055,5.934,5.934,0,0,0,3.788-2.656q1.557-2.412-.613-3.812-1.05-.679-3.853,1.127a25.166,25.166,0,0,1-4.813,2.538q-2.011.733-4.566-.917-2.2-1.425-2.165-3.33a8.176,8.176,0,0,1,1.507-4.178,9.206,9.206,0,0,1,1.309-1.484,11.677,11.677,0,0,0,1.039-1.063,5.072,5.072,0,0,0,.521-1A6.461,6.461,0,0,0,406.673,292.842Z" transform="translate(-283.306 -217.166)" fill="#0c212b"/>
      <path id="Tracé_1099" data-name="Tracé 1099" d="M410.626,284.4l1.5-3.064a2.4,2.4,0,0,1,.65,2.009,8.585,8.585,0,0,1-.553,1.837l11.249,5.5q.815.4,1.127-.236a3.039,3.039,0,0,0,.155-1.568,15.173,15.173,0,0,0-.574-2.667,13.02,13.02,0,0,1,2.023,4.047,4.818,4.818,0,0,1-.134,3.5,1.739,1.739,0,0,1-1.667,1.106,9.4,9.4,0,0,1-3.458-1.159l-10.392-5.083-1.08,2.206q-.8-.531-.933-2.935t-3.728-6.34Z" transform="translate(-283.855 -214.896)" fill="#0c212b"/>
      <path id="Tracé_1100" data-name="Tracé 1100" d="M410.395,260.673q.285-.869.916-.663,1.416.467,2.416,3.794t.791,3.963q-1.195-1.269-2.379-2.579Q409.914,262.137,410.395,260.673Zm6.936,4.908a5.529,5.529,0,0,1,1.391-2.367,14.81,14.81,0,0,1,3.194-1.994l6.436,12.761a3.8,3.8,0,0,0,2.316-1.407,9.029,9.029,0,0,0,1.239-2.5,6.077,6.077,0,0,0,.222-2.972,19.309,19.309,0,0,0-.682-2.788,12.6,12.6,0,0,1,2.486,4.674,8.321,8.321,0,0,1-.219,4.746q-1.157,3.519-3.887,4.24a9.178,9.178,0,0,1-5.334-.134A10.876,10.876,0,0,1,418,272.854,8.779,8.779,0,0,1,417.331,265.582Zm10,8.459q-.891-1.826-1.779-3.652-1.563-2.835-2.711-3.213a3.337,3.337,0,0,0-2.375-.037,2.359,2.359,0,0,0-1.356,1.525,2.545,2.545,0,0,0,.926,2.714,9.342,9.342,0,0,0,3.633,2.071,13.576,13.576,0,0,0,1.838.474A8.045,8.045,0,0,0,427.33,274.041Z" transform="translate(-284.939 -210.684)" fill="#0c212b"/>
      <path id="Tracé_1101" data-name="Tracé 1101" d="M422.346,251.177a1.386,1.386,0,0,1,1.308-1.285,16.1,16.1,0,0,1,3.836.273l1.843.281q-1.932-1.9-3.856-3.844-2.066-2.388-1.763-4.37a2.148,2.148,0,0,1,1.066-1.633,3.045,3.045,0,0,1,2.044-.343,4.893,4.893,0,0,1,2.853,2.035q1.462,1.823,2.7,3.57a7.347,7.347,0,0,0-1.31-.615,8.1,8.1,0,0,0-1.668-.471,3.137,3.137,0,0,0-1.522.083,1.109,1.109,0,0,0-.735.962q-.119.78,1.116,2.169t2.5,2.677l7.627,1.166a16.013,16.013,0,0,1,1.077,1.83,4.756,4.756,0,0,1,.507,2.284l-13.52-2.066a.752.752,0,0,0-.984.69,1.918,1.918,0,0,0,.135.9,5.161,5.161,0,0,0,.711,1.246,12.06,12.06,0,0,1-2.675-2.794Q422.22,252,422.346,251.177Z" transform="translate(-287.311 -206.787)" fill="#0c212b"/>
      <path id="Tracé_1102" data-name="Tracé 1102" d="M424.6,223.514a5.538,5.538,0,0,1,.563-2.689,14.777,14.777,0,0,1,2.389-2.909l10.176,10.037a3.79,3.79,0,0,0,1.745-2.073,9.033,9.033,0,0,0,.374-2.77,6.09,6.09,0,0,0-.739-2.887,19.324,19.324,0,0,0-1.538-2.423,12.58,12.58,0,0,1,3.85,3.633A8.338,8.338,0,0,1,442.725,226q.026,3.7-2.329,5.261a9.2,9.2,0,0,1-5.1,1.578,10.891,10.891,0,0,1-7.746-2.648A8.783,8.783,0,0,1,424.6,223.514Zm12.178,4.82q-1.427-1.445-2.852-2.893-2.388-2.187-3.6-2.178a3.333,3.333,0,0,0-2.262.724,2.361,2.361,0,0,0-.8,1.879,2.543,2.543,0,0,0,1.745,2.275,9.34,9.34,0,0,0,4.1.8,13.7,13.7,0,0,0,1.892-.139A8.081,8.081,0,0,0,436.775,228.334Z" transform="translate(-287.757 -202.368)" fill="#0c212b"/>
      <path id="Tracé_1103" data-name="Tracé 1103" d="M421.567,200.985a9.032,9.032,0,0,0,2.382.665q1.161.148,2.1.246a9.167,9.167,0,0,0-1.673,2.8,5.831,5.831,0,0,0-.157,2.767,3.326,3.326,0,0,0,.883,2.047,1.83,1.83,0,0,0,1.54.381q1.028-.167,1.821-3.459a25.985,25.985,0,0,1,1.777-5.287,4.717,4.717,0,0,1,3.779-2.452q3.291-.536,4.692,1.321a11.165,11.165,0,0,1,1.911,4.98q.515,3.163-.509,4.215t-5.565,1.793a10.406,10.406,0,0,0,3.43-3.173,5.932,5.932,0,0,0,1.027-4.51q-.464-2.835-3.013-2.418-1.232.2-2.1,3.422a25.325,25.325,0,0,1-1.868,5.111q-1,1.893-4,2.382a3.91,3.91,0,0,1-3.839-1.017,8.186,8.186,0,0,1-1.684-4.11,9.059,9.059,0,0,1-.024-1.977,11.591,11.591,0,0,0,.057-1.485,5.045,5.045,0,0,0-.285-1.091A6.49,6.49,0,0,0,421.567,200.985Z" transform="translate(-287.159 -198.577)" fill="#0c212b"/>
    </g>
  </g>
</svg>
