<svg xmlns="http://www.w3.org/2000/svg" width="211.443" height="175.398" viewBox="0 0 211.443 175.398">
  <g id="Groupe_12327" data-name="Groupe 12327" transform="translate(-18.974 -50.569)">
    <g id="Groupe_11623" data-name="Groupe 11623" transform="translate(18.974 50.569)">
      <path id="Tracé_319" data-name="Tracé 319" d="M500.967,373.64c-.677.4-1.5.839-2.411,1.321s-1.927.958-3,1.442c-2.136.964-4.1,1.7-5.533,2.193-.717.243-1.3.436-1.7.556s-.625.2-.625.2l.667-.054c.432-.036,1.054-.113,1.822-.243a24.621,24.621,0,0,0,5.829-1.792,24.544,24.544,0,0,0,5.242-3.233c.617-.5,1.1-.925,1.416-1.233s.493-.482.493-.482-.212.132-.591.363S501.649,373.248,500.967,373.64Z" transform="translate(-340.33 -298.635)" fill="#fff"/>
      <path id="Tracé_320" data-name="Tracé 320" d="M406.134,364.152a9.744,9.744,0,0,0,2.453-1.864,6.911,6.911,0,0,0,1.1-1.611l.254-.629s-.1.214-.3.621a6.835,6.835,0,0,1-1.189,1.539,9.791,9.791,0,0,1-2.527,1.707,22.03,22.03,0,0,1-3.808,1.35,185.108,185.108,0,0,1-23.2,4.436c-2.3.291-4.552.528-6.737.73s-4.313.411-6.33.721a37.469,37.469,0,0,0-5.661,1.272,28.2,28.2,0,0,0-10.632,6.169c-.631.589-1.1,1.068-1.407,1.4l-.466.51.5-.487c.331-.317.832-.774,1.5-1.333a29.643,29.643,0,0,1,6.156-3.925,28.8,28.8,0,0,1,4.692-1.744,39.56,39.56,0,0,1,5.628-1.078c2.007-.252,4.126-.419,6.326-.6s4.477-.405,6.791-.7a142.113,142.113,0,0,0,23.093-4.938A20.97,20.97,0,0,0,406.134,364.152Z" transform="translate(-251.165 -290.822)" fill="#fff"/>
      <path id="Tracé_321" data-name="Tracé 321" d="M494.665,375.311l-1.839.657s.189-.011.535-.028.847-.073,1.461-.166a18.137,18.137,0,0,0,8.844-4.013c.487-.405.864-.755,1.115-1.007l.386-.394-.48.275c-.308.18-.755.43-1.306.73-1.1.608-2.631,1.384-4.33,2.149S495.8,374.894,494.665,375.311Z" transform="translate(-343.595 -297.389)" fill="#fff"/>
      <path id="Tracé_322" data-name="Tracé 322" d="M252.966,245.4l-.3-.573-.26-.48c-.176-.309-.34-.665-.508-1q-.508-1.024-.992-2.067l-.973-2.082q-1.933-4.172-3.814-8.374-3.777-8.391-7.483-16.824-1.85-4.221-3.7-8.445l-1.845-4.231-.5-1.153-.065-.147c-.034-.033-.1-.036-.147-.056l-.308-.1-.618-.187-2.093-.641q-1.391-3.645-2.783-7.3-.706-1.856-1.413-3.715l-.768-2.021-.394-1.04-.2-.52-.1-.26a.968.968,0,0,0-.052-.122l-.082.056c-.43.474-.845.962-1.319,1.4-.233.22-.451.468-.7.665l-.7.577a19,19,0,0,1-2.827,1.818c-.488.279-1.01.491-1.516.736-.524.2-1.036.442-1.573.614a29.808,29.808,0,0,1-3.252.941,56.971,56.971,0,0,1-13.58.96,75.139,75.139,0,0,0-13.844.631,32.4,32.4,0,0,0-6.8,1.816,18.081,18.081,0,0,0-3.183,1.635,14.161,14.161,0,0,0-2.8,2.311l-.279.3c-.086.1-.162.2-.239.3l-.432.575c-.105.153-.2.3-.283.453a13.949,13.949,0,0,0-1.482-3.394,22.055,22.055,0,0,0-4.2-5.149,21.106,21.106,0,0,0-5.617-3.682c-4.082-1.862-8.368-2.6-12.339-3.608a44.347,44.347,0,0,1-5.77-1.816,42.313,42.313,0,0,1-5.427-2.6,41.881,41.881,0,0,1-5-3.365c-.4-.306-.788-.623-1.17-.95-.189-.163-.388-.317-.572-.488l-.883-.79-.576-.547-.573-.573-1.147-1.153-2.267-2.3q-2.371,9.148-4.753,18.323l-.474,1.843-.04.156h0l-1.423-.266c-1.237-.235-2.472-.478-3.7-.736-.61-.128-1.222-.258-1.818-.4-.3-.069-.6-.138-.887-.214l-.327-.08-.057-.015-.114-.035-.914-.266-.371-.176-1.044-.145-.514.111a2.281,2.281,0,0,0-.281.115,2.135,2.135,0,0,0-.275.159,2.887,2.887,0,0,0-.876.939,7.458,7.458,0,0,0-.612,1.33l-.245.719-.147.476-.224.777c-.143.512-.277,1.023-.405,1.529-.507,2.03-.945,4.04-1.367,6.053s-.816,4.024-1.2,6.037L100.6,208.7l-.275,1.51-.136.755c-.015.09-.011.069-.011.073v.01l0,.015c0,.009,0,.029-.008.031a.155.155,0,0,0-.031.011,8.362,8.362,0,0,0-.9.4,6.093,6.093,0,0,0-.556.315,5.351,5.351,0,0,0-.526.35,10.392,10.392,0,0,0-.967.782,11.64,11.64,0,0,0-.834.879,12.241,12.241,0,0,0-1.342,1.919c-.193.333-.35.673-.524,1.01-.155.338-.273.678-.409,1.019s-.273.688-.38,1.013l-.3.962c-.2.64-.415,1.287-.583,1.918-.356,1.269-.722,2.541-1.042,3.8-1.8,6.846-3.374,13.7-4.929,20.567q-1.147,5.154-2.29,10.309l-2.216,10.3v0l0,.006a12.168,12.168,0,0,0-.405,2.9,7.043,7.043,0,0,0,.038.83l.029.25.048.277a5.279,5.279,0,0,0,.136.548,3.747,3.747,0,0,0,1.193,1.83,3.389,3.389,0,0,0,.96.53,4.948,4.948,0,0,0,.534.145l.273.04.139.017h.08l1.243-.006,2.483-.009,9.943-.036,19.873-.08q19.845-.106,39.647-.208h.029a6.622,6.622,0,0,0,1.05-.04,7.829,7.829,0,0,0,1-.174,6.508,6.508,0,0,0,1.937-.818,5.464,5.464,0,0,0,1.581-1.532l.9-1.363a17.073,17.073,0,0,1,1.835-2.355,5.731,5.731,0,0,1,2.1-1.465c.134-.049.268-.067.4-.109a3.189,3.189,0,0,1,.4-.052,1.914,1.914,0,0,1,.405,0c.074,0,.117,0,.222.009l.317.035c.849.088,1.656.114,2.411.166a17.108,17.108,0,0,1,2.161.258,8.7,8.7,0,0,1,1.925.635,9.113,9.113,0,0,1,3.139,2.615l.336.417.3.451.675.988a7.481,7.481,0,0,0,2,1.958,6.616,6.616,0,0,0,2.661,1.005,8.775,8.775,0,0,0,2.717-.049,14.667,14.667,0,0,0,4.739-1.805c.182-.1.36-.21.535-.321l.268-.17.224-.149a.364.364,0,0,1,.12-.071l.18-.067.551-.2,2.2-.784q2.2-.786,4.392-1.568l34.927-12.467,8.693-3.1,4.342-1.546c.228-.078.457-.163.681-.248.169-.174.333-.352.49-.539a10.47,10.47,0,0,0,.729-.99,7.61,7.61,0,0,0,1.03-2.254A3.878,3.878,0,0,0,252.966,245.4Zm-3.881-2.172.118.247.357.726c-.013.056-.025.107-.038.165-.019.086-.038.176-.061.269-.061-.132-.125-.262-.2-.4-.082-.155-.172-.314-.266-.473C249.037,243.587,249.066,243.407,249.085,243.232Zm-1.967-3.195a6.424,6.424,0,0,0,.121-.747l.5,1.076c-.136.3-.273.637-.4,1-.147-.2-.291-.388-.43-.575A6.565,6.565,0,0,0,247.118,240.037ZM247,242.528a.12.12,0,0,0-.005.021c-.01-.021-.016-.042-.025-.063C246.984,242.5,247,242.515,247,242.528Zm-1.1-6.143q.264.579.526,1.16l.256.551a12.967,12.967,0,0,0-.5,1.644l-.182-.283c-.065-.122-.13-.239-.191-.352a5.492,5.492,0,0,1-.306-.625c-.044-.094-.084-.183-.122-.266-.008-.027-.015-.048-.023-.074a3.007,3.007,0,0,0,.482-1.076A2.774,2.774,0,0,0,245.9,236.386Zm-.489-1.082c-.033.073-.067.153-.1.243a8.406,8.406,0,0,0-.418,1.327c-.021.1-.038.2-.056.295-.218-.547-.438-1.088-.652-1.623a2.827,2.827,0,0,0,.747-1.3Zm-1.05-2.313a4.066,4.066,0,0,0-.375,1.03,3.808,3.808,0,0,0-.082.838q-.2-.488-.39-.971a4.376,4.376,0,0,0,.665-1.294C244.242,232.724,244.3,232.858,244.365,232.99Zm-1.107-2.438c.1.228.206.457.31.682a6.832,6.832,0,0,0-.256.866,6.4,6.4,0,0,0-.128.954q-.25-.617-.493-1.226A4.123,4.123,0,0,0,243.258,230.552Zm-.9-2c.054.122.109.245.165.367a5.565,5.565,0,0,0-.139.973,5.707,5.707,0,0,0,.118,1.474l-.7-1.73A3.808,3.808,0,0,0,242.361,228.556Zm-2.113-3.68a3.159,3.159,0,0,0,.279-.428c.128.291.256.577.386.866,0,.025-.009.05-.011.074a5.267,5.267,0,0,0,.124,1.939,3.7,3.7,0,0,0,.472-.7c.071.155.138.31.207.464a5.137,5.137,0,0,0-.2.855,5.189,5.189,0,0,0-.04.859L240,225.155A2.8,2.8,0,0,0,240.248,224.876Zm-1.183-2.679a2.42,2.42,0,0,0,.273-.417c.2.449.4.9.6,1.348-.027.113-.052.227-.075.348a6.335,6.335,0,0,0-.09,1.12q-.453-1.127-.891-2.2A2.647,2.647,0,0,0,239.065,222.2Zm-.91-3.1c.186.422.369.841.555,1.262a4.429,4.429,0,0,0-.134.671,3.778,3.778,0,0,0-.025.541c-.245-.6-.482-1.195-.717-1.774A2.684,2.684,0,0,0,238.155,219.095Zm-.942-2.137c.113.256.226.514.34.77a4.2,4.2,0,0,0-.25.75c-.122-.3-.241-.593-.36-.887A2.858,2.858,0,0,0,237.212,216.957Zm-.9-2.04c.111.254.224.508.337.763a2.155,2.155,0,0,0-.262.539c-.12-.292-.237-.585-.353-.872A2.527,2.527,0,0,0,236.314,214.917Zm-1.088-2.487c.143.327.283.654.428.981a2.668,2.668,0,0,0-.107.726s0,.01,0,.013c-.2-.489-.392-.965-.579-1.432A2.686,2.686,0,0,0,235.226,212.43Zm-.545-1.25a2.443,2.443,0,0,0-.113.419c-.006.036-.008.071-.012.1-.174-.43-.342-.849-.508-1.256a.734.734,0,0,0,.245-.161Q234.485,210.732,234.681,211.18Zm-4-9.173.033.012,0,0v0q.831,1.933,1.667,3.871.895,2.057,1.8,4.122a1.779,1.779,0,0,0-.367-.159c-1.392-3.428-2.468-6.072-3.2-7.875Zm-130.2,40c.025-.061.046-.12.067-.178.434.206.87.407,1.31.6-.069.077-.139.157-.216.241-.539.612-1.269,1.453-2.019,2.4s-1.382,1.832-1.83,2.476q-.209.3-.358.526c.143-.952.295-1.946.451-2.975a6.027,6.027,0,0,0,1.56-1.3A6.15,6.15,0,0,0,100.477,242Zm-1.528,7.2a11.749,11.749,0,0,0,3.831-5.69c.073-.231.13-.44.178-.623q.5.2,1,.388c-.042.057-.082.115-.124.176-.675.954-1.6,2.264-2.606,3.69-1.187,1.681-2.227,3.149-2.881,4.072-.44-.151-.881-.3-1.325-.457.115-.746.233-1.528.357-2.338.191-.126.463-.313.788-.564a13.085,13.085,0,0,0,2.237-2.208,13.433,13.433,0,0,0,1.642-2.713c.059-.128.111-.247.157-.361.161.069.321.138.482.2-.1.155-.214.332-.342.53-.482.746-1.153,1.749-1.887,2.835s-1.4,2.053-1.885,2.753-.786,1.138-.786,1.138A9.6,9.6,0,0,0,98.949,249.2Zm3.478,1.929a14.625,14.625,0,0,0,2.451-2.617,14.82,14.82,0,0,0,1.736-3.183c.172-.434.291-.793.371-1.047l.057.019c.4.121.8.231,1.2.335-.113.161-.239.338-.378.535-.583.822-1.394,1.933-2.279,3.138-1.543,2.078-2.8,3.779-3.12,4.206-.862-.243-1.728-.51-2.6-.793.128-.1.26-.2.4-.317a15.472,15.472,0,0,0,2.818-3.022,15.641,15.641,0,0,0,1.91-3.711c.126-.356.224-.667.3-.923q.769.261,1.539.491c-.157.206-.377.5-.644.856-.555.746-1.312,1.761-2.118,2.875s-1.514,2.126-2.024,2.858-.816,1.193-.816,1.193A11.444,11.444,0,0,0,102.427,251.127Zm4.7.818a15.565,15.565,0,0,0,2.611-3.017,15.833,15.833,0,0,0,1.744-3.587q.783.141,1.558.256v0c-.533.918-1.294,2.145-2.158,3.456s-1.671,2.461-2.273,3.285c-.5.677-.835,1.136-.941,1.277a31.607,31.607,0,0,1-3.187-.583c-.183-.044-.367-.092-.551-.138.234-.169.577-.428,1-.782a17.466,17.466,0,0,0,2.742-2.917,17.973,17.973,0,0,0,2.007-3.506c.1-.241.191-.459.264-.652.342.073.681.141,1.019.206-.537.856-1.26,1.975-2.057,3.179-.841,1.275-1.6,2.409-2.164,3.226l-.906,1.323A12.323,12.323,0,0,0,107.13,251.946Zm8.047.642a16.824,16.824,0,0,0,2.436-3.011,17.038,17.038,0,0,0,1.623-3.384c.474.021.945.032,1.415.042-.545.832-1.273,1.935-2.065,3.137-.815,1.256-1.53,2.388-2.044,3.21-.193.306-.357.57-.487.778a29.93,29.93,0,0,1-3.478.421c-.132.005-.262.017-.4.027l.163-.135a17.712,17.712,0,0,0,2.908-3.237,18.018,18.018,0,0,0,2.032-3.894c.059-.159.113-.308.161-.449.4.029.8.046,1.195.069-.512.8-1.168,1.828-1.872,2.931-.794,1.26-1.489,2.4-1.992,3.221s-.8,1.34-.8,1.34A13.169,13.169,0,0,0,115.177,252.588Zm19.093-7.011a10.076,10.076,0,0,0-1.416,2.3c-.354.13-.711.26-1.067.394.1-.125.207-.252.3-.394a5.535,5.535,0,0,0,.794-1.85c.042-.178.067-.335.088-.467q.74-.089,1.468-.183C134.383,245.44,134.328,245.507,134.27,245.577Zm.765.6a6.344,6.344,0,0,0,.652-.975c.338-.05.673-.1,1.006-.147-.124.159-.252.323-.381.5-.392.526-.725,1.029-.992,1.455-.8.269-1.6.555-2.413.849A6.623,6.623,0,0,0,135.035,246.178Zm-2.579-.384c-.327.394-.761.933-1.181,1.55-.365.535-.662,1.042-.887,1.451q-1.081.41-2.176.83a5.472,5.472,0,0,0,.839-1,5.761,5.761,0,0,0,.787-1.979,5.451,5.451,0,0,0,.1-.765c.3-.027.612-.052.914-.08.593-.061,1.181-.124,1.765-.2C132.567,245.661,132.513,245.723,132.456,245.794Zm-3.055.637c-.321.434-.751,1.023-1.18,1.682s-.773,1.281-1.019,1.738c-.038.069-.073.136-.107.2-.451.17-.9.34-1.359.509.256-.3.514-.618.761-.968a13.067,13.067,0,0,0,1.533-2.923c.092-.247.164-.465.224-.654.526-.038,1.046-.08,1.564-.124C129.72,246.009,129.577,246.195,129.4,246.43Zm-1.8,0c-.5.677-1.2,1.6-1.919,2.623-.522.74-.99,1.43-1.379,2.015q-.975.344-1.967.667a10.944,10.944,0,0,0,1.761-1.958,11.089,11.089,0,0,0,1.48-3.042c.067-.21.118-.4.162-.575.729-.033,1.447-.077,2.161-.126C127.81,246.159,127.713,246.289,127.6,246.434Zm-2.462.1c-.473.719-1.132,1.682-1.858,2.72s-1.386,1.963-1.874,2.631c-.05.067-.1.128-.139.191-.336.1-.673.208-1.015.308-.361.1-.727.2-1.094.3.168-.134.361-.292.581-.487a14.949,14.949,0,0,0,2.392-2.7,15.364,15.364,0,0,0,1.675-3.229.15.15,0,0,1,.011-.033c.518-.011,1.036-.025,1.547-.046C125.294,246.294,125.22,246.405,125.14,246.532Zm-3.829,2.441c-.784,1.141-1.467,2.176-1.96,2.927-.241.365-.432.663-.566.874-.761.191-1.529.367-2.308.514.14-.125.295-.266.463-.426a17,17,0,0,0,2.483-2.992,17.247,17.247,0,0,0,1.732-3.523c.013-.035.023-.063.035-.1q1.027.015,2.036,0C122.7,246.984,122.023,247.935,121.31,248.973Zm-4.464-2.644c-.61.944-1.464,2.219-2.418,3.587s-1.822,2.581-2.464,3.451c-.124.17-.237.323-.344.467a.227.227,0,0,0-.038,0l-1-.008c-.212,0-.421-.008-.631-.013.241-.189.6-.487,1.046-.9a18.32,18.32,0,0,0,2.77-3.254,18.752,18.752,0,0,0,1.887-3.728c.459.046.916.088,1.371.122C116.965,246.143,116.907,246.233,116.846,246.329Zm-3.915,2.827c-.908,1.367-1.727,2.587-2.325,3.466l-.8,1.185c-.411-.015-.822-.04-1.237-.084-.285-.029-.572-.063-.86-.1l.306-.208c.243-.168.581-.426.983-.769a14.893,14.893,0,0,0,2.728-3.088,15.11,15.11,0,0,0,1.772-3.766l.035-.122c.522.073,1.042.138,1.556.2C114.506,246.768,113.753,247.918,112.931,249.156Zm-6.065-.5-2.315,3.156c-.338.469-.6.828-.757,1.054-.422-.105-.843-.214-1.266-.335a13.364,13.364,0,0,0,1.168-.857,15.148,15.148,0,0,0,4.6-6.276c.1-.254.186-.484.256-.685.357.09.717.176,1.074.256C109,245.8,107.987,247.153,106.866,248.654Zm-2.31-4.195c-.572.9-1.38,2.1-2.29,3.392s-1.749,2.422-2.371,3.237l-.394.512c-.258-.086-.518-.172-.774-.26.1-.09.212-.19.327-.293a21.25,21.25,0,0,0,2.994-3.382,21.693,21.693,0,0,0,2.214-3.988c.036-.09.071-.172.1-.256q.344.126.688.245C104.918,243.887,104.75,244.151,104.557,244.459Zm-4.389-2.818-.084.078a17.617,17.617,0,0,0-1.4,1.464c-.235.279-.447.553-.637.811.157-1.032.315-2.1.482-3.195l.2.107C99.2,241.163,99.686,241.406,100.167,241.641ZM98.11,216.319c.1-.138.2-.272.312-.405-.1.377-.222.818-.35,1.327C98.093,216.86,98.1,216.55,98.11,216.319ZM97.936,219c.035-.356.065-.692.088-1a.061.061,0,0,1,0-.021c.185-.881.348-1.61.483-2.18.077-.092.147-.186.226-.273.1-.1.2-.2.3-.3-.073.381-.157.847-.254,1.384-.2,1.107-.443,2.508-.694,4.064a2.268,2.268,0,0,0-.357-.029c.063-.428.117-.841.161-1.231.009-.013.021-.025.029-.036a2.748,2.748,0,0,0,.22-.308A1.745,1.745,0,0,0,97.936,219Zm-1.271.143.309-.8a10.5,10.5,0,0,1,.924-1.717c-.153.543-.371,1.344-.621,2.321a1.193,1.193,0,0,0-.487.172,1.075,1.075,0,0,0-.168.138C96.636,219.225,96.65,219.185,96.665,219.146Zm-.408,1.184c.069-.013.17-.035.3-.069a3.6,3.6,0,0,0,.428-.149c-.053.214-.107.432-.161.658a2.98,2.98,0,0,0-.82.354ZM95.59,222.5c.277-.153.587-.332.906-.541l.06-.042c-.063.27-.125.543-.187.822a2.446,2.446,0,0,0-.948.346C95.476,222.892,95.535,222.695,95.59,222.5Zm-.74,2.608c.036-.132.074-.265.111-.4.243-.193.528-.422.816-.682.142-.126.269-.25.394-.369-.132.625-.252,1.222-.36,1.786a.286.286,0,0,1-.035.006,2.949,2.949,0,0,0-1.149.491C94.7,225.666,94.774,225.387,94.85,225.109Zm-.671,2.535c.249-.224.539-.484.838-.767.235-.224.447-.436.642-.631-.067.363-.128.7-.184,1.025a3.227,3.227,0,0,0-1.145.616,3,3,0,0,0-.291.291C94.086,228,94.134,227.822,94.179,227.645Zm-.486,1.883.1-.06a9.787,9.787,0,0,0,1.185-.849c.113-.1.218-.2.319-.291-.076.465-.134.834-.174,1.1a3.559,3.559,0,0,0-1.38.851,3.454,3.454,0,0,0-.339.4C93.5,230.294,93.595,229.912,93.694,229.528ZM93,232.271c.074-.063.157-.134.25-.218.323-.285.755-.665,1.191-1.1.231-.233.443-.461.631-.671-.109.5-.222,1.019-.336,1.543a3.425,3.425,0,0,0-1.537.671,2.811,2.811,0,0,0-.333.323C92.912,232.635,92.956,232.453,93,232.271Zm-.419,1.715a5.5,5.5,0,0,0,1.245-.747,4.964,4.964,0,0,0,.778-.809q-.2.941-.415,1.925a3.155,3.155,0,0,0-.572.111,3.316,3.316,0,0,0-1.336.742C92.38,234.8,92.482,234.393,92.583,233.986ZM91.9,236.8a12.37,12.37,0,0,0,1.032-.872,11.327,11.327,0,0,0,.989-1.082c.092-.113.164-.206.226-.287q-.189.872-.384,1.778a3.021,3.021,0,0,0-.518.053,2.951,2.951,0,0,0-1.4.688.267.267,0,0,1-.021.023C91.853,237,91.878,236.9,91.9,236.8Zm-.549,2.292c.035-.139.067-.277.1-.415.3-.233.677-.537,1.065-.887.4-.365.743-.723,1-.992.076-.082.139-.155.2-.216q-.247,1.147-.5,2.348a3.6,3.6,0,0,0-.488.063,3.38,3.38,0,0,0-1.392.625c-.046.035-.084.077-.126.115C91.254,239.519,91.3,239.307,91.352,239.092Zm-.461,1.981a8.774,8.774,0,0,0,1.05-.7A8.6,8.6,0,0,0,93,239.4c.057-.061.1-.117.149-.168q-.147.7-.3,1.409a3.7,3.7,0,0,0-.526.078,3.616,3.616,0,0,0-1.524.755C90.828,241.339,90.86,241.207,90.891,241.073Zm-.451,1.939c.295-.228.64-.5.992-.8.467-.4.864-.794,1.157-1.086.073-.073.139-.14.2-.2q-.247,1.167-.5,2.378a3.233,3.233,0,0,0-.6.056,3.465,3.465,0,0,0-1.478.661Q90.322,243.513,90.44,243.012Zm-.619,2.655c.258-.239.551-.5.862-.784.478-.43.912-.82,1.242-1.105.124-.109.228-.2.316-.271-.1.489-.207.985-.314,1.484-.1.021-.223.05-.357.09a3.7,3.7,0,0,0-1.489.86,3.5,3.5,0,0,0-.447.537C89.7,246.21,89.757,245.937,89.821,245.667Zm-.509,2.223c.069-.053.145-.117.23-.185.335-.275.776-.644,1.225-1.076.425-.407.78-.8,1.05-1.107-.092.43-.18.862-.273,1.3l-.061.013a4.191,4.191,0,0,0-1.692.787,3.975,3.975,0,0,0-.535.518C89.276,248.057,89.293,247.973,89.312,247.891Zm-.35,1.541.008,0c.386-.271.9-.633,1.436-1.051.371-.291.7-.572.985-.82q-.186.895-.377,1.81a4.559,4.559,0,0,0-.552.094,5.02,5.02,0,0,0-1.669.726C88.849,249.934,88.907,249.684,88.962,249.432Zm-.512,2.262c.21-.172.426-.348.652-.53l1.6-1.281c.088-.07.168-.132.243-.191q-.115.562-.235,1.134a4.827,4.827,0,0,0-.53.153,4.891,4.891,0,0,0-1.734,1.061c-.036.034-.065.074-.1.111C88.379,252,88.415,251.844,88.45,251.693Zm-.474,2.1c.34-.3.743-.669,1.16-1.069.537-.518,1-1,1.34-1.361.056-.059.107-.117.157-.17-.138.658-.275,1.319-.413,1.99-.124.031-.266.073-.43.128a4.818,4.818,0,0,0-1.736,1.067c-.1.1-.187.2-.275.3Q87.876,254.241,87.976,253.8Zm1.279,3.521c.021-.464.033-.885.044-1.256.224-.207.369-.338.4-.369q-.163.8-.331,1.613Zm.071.21c-.035.166-.069.334-.1.5.008-.141.015-.277.021-.411ZM89.3,255.7c.012-.562.012-.975.012-1.2.295-.3.558-.573.769-.8l.036-.038q-.206.995-.415,2.011A3.272,3.272,0,0,0,89.3,255.7Zm-1.883.6c.369-.334.834-.755,1.323-1.229.183-.176.352-.346.516-.51-.05.237-.134.644-.243,1.189l-.115.025a3.872,3.872,0,0,0-1.529.738C87.389,256.436,87.4,256.366,87.421,256.3Zm-.411,1.858c.258-.241.545-.5.847-.782.382-.346.734-.667,1.029-.935-.057.3-.12.633-.183.987a4.133,4.133,0,0,0-1.472.681c-.092.069-.174.145-.258.22C86.983,258.266,87,258.211,87.01,258.153Zm-.325,1.461a11.855,11.855,0,0,0,1.139-.738c.268-.2.51-.4.723-.591-.052.3-.105.608-.159.927a3.623,3.623,0,0,0-.367.111,4.251,4.251,0,0,0-1.468.885C86.6,260.01,86.641,259.813,86.685,259.614Zm-.5,2.3c.283-.268.6-.574.935-.91.474-.484.883-.937,1.187-1.279-.1.612-.2,1.26-.3,1.931a4.452,4.452,0,0,0-1.159.92,4.578,4.578,0,0,0-.939,1.728,3.836,3.836,0,0,0-.159.834s.23-.222.57-.573.8-.826,1.269-1.358c.082-.092.159-.182.237-.273l-.063.486c-.059.453-.113.9-.164,1.331-.071.017-.143.036-.226.063a3.638,3.638,0,0,0-1.5.937,3.682,3.682,0,0,0-.839,1.474Q85.6,264.565,86.182,261.914Zm2.13,7.016a3.481,3.481,0,0,0-.43.352,2.923,2.923,0,0,0-.214.248c.033-.149.067-.3.1-.465l.109-.139.17,0Zm-3.64.665a9.191,9.191,0,0,1,.241-1.879,2.534,2.534,0,0,0-.036.363s.214-.2.531-.5.74-.713,1.176-1.172c.365-.384.684-.744.942-1.044-.054.484-.1.954-.147,1.405-.034.017-.067.03-.1.05a5.4,5.4,0,0,0-2.6,2.833C84.674,269.634,84.672,269.613,84.672,269.6Zm2.187,1.728h-.864l.482-.61c.124.025.292.055.5.09A3.377,3.377,0,0,0,86.859,271.324Zm.206-.765c-.015.044-.032.088-.048.128-.208-.006-.379-.011-.509-.013.153-.2.314-.4.48-.608.04-.053.08-.1.12-.157C87.094,270.141,87.079,270.359,87.066,270.559Zm-.009-1.893a4.442,4.442,0,0,0-.847.815,4.636,4.636,0,0,0-.839,1.77.936.936,0,0,1-.247-.134,1.161,1.161,0,0,1-.36-.6c.052-.057.107-.118.168-.183.373-.4.876-.95,1.4-1.562.356-.415.671-.809.941-1.153-.021.1-.04.2-.061.3Zm1.52,2.583c-.017.025-.029.048-.044.073l-1.291,0c.017-.059.031-.121.046-.182l.094-.08c.059-.052.126-.113.191-.17.335.04.723.078,1.16.105C88.679,271.083,88.62,271.169,88.576,271.249Zm.413-.618c-.442.031-.839.048-1.185.056.241-.216.5-.457.774-.723.378-.374.705-.732.967-1.023l1.262.009a6.235,6.235,0,0,0-.79.562A6.412,6.412,0,0,0,88.989,270.632Zm1.72.553c-.025.048-.046.092-.069.135l-1.088,0h-.264c.122-.09.252-.187.386-.289.1,0,.2,0,.3,0,.262,0,.539,0,.822-.013C90.773,271.077,90.736,271.135,90.709,271.184Zm-.363-.681c.105-.086.21-.172.317-.264.549-.463,1.017-.91,1.386-1.277.18,0,.36,0,.539,0a6.014,6.014,0,0,0-.47.38,6.338,6.338,0,0,0-.924,1.051C90.9,270.437,90.618,270.473,90.346,270.5Zm2.277.814-1.323,0c.128-.1.262-.214.405-.332.359-.021.728-.044,1.112-.071C92.734,271.073,92.669,271.213,92.623,271.318Zm.005-1.124.159-.139c.428-.386.811-.751,1.14-1.077l.468,0c-.031.025-.063.042-.092.069a5.909,5.909,0,0,0-.962,1.036C93.1,270.121,92.862,270.159,92.629,270.194Zm2.352.794c-.059.118-.111.231-.155.331H92.9c.107-.073.231-.157.373-.256l.287-.208.466-.038,1.107-.1C95.078,270.808,95.023,270.9,94.98,270.988Zm-.136-1.124c.035-.026.065-.052.1-.08.329-.273.629-.541.895-.79l.815.006c-.113.082-.226.168-.334.264a5.031,5.031,0,0,0-.476.47C95.5,269.775,95.17,269.817,94.845,269.863Zm2.548,1.084c-.078.124-.153.248-.226.369l-1.833,0a.072.072,0,0,1,.013-.011c.245-.193.541-.428.858-.688.486-.039.979-.075,1.48-.1C97.588,270.653,97.489,270.8,97.393,270.947Zm1.491-1.895s-.168.174-.409.457c-.348.013-.694.031-1.031.055q.327-.3.6-.556l2.461.021c-.111.136-.231.3-.364.482-.421-.019-.845-.025-1.275-.017A3.052,3.052,0,0,0,98.884,269.053Zm.572,1.535c-.139.251-.26.5-.367.729H98.3a4.183,4.183,0,0,0,.369-.843l.182-.008c.227-.005.451,0,.675,0C99.5,270.507,99.479,270.546,99.456,270.588Zm2.053.62c-.008.036-.013.073-.019.1l-1.346,0c.057-.088.118-.174.17-.27a4.426,4.426,0,0,0,.256-.551c.375.019.744.042,1.105.075A4.752,4.752,0,0,0,101.51,271.207Zm-.673-1.652c.015-.078.032-.161.042-.231.016-.107.025-.2.035-.293l1.638.012a4.988,4.988,0,0,0-.472.66c-.258-.036-.51-.076-.776-.1C101.148,269.58,100.993,269.567,100.837,269.556Zm2.487,1.757h-1.269a3.98,3.98,0,0,0,.573-.648c.272.032.539.067.8.1C103.381,270.97,103.347,271.156,103.324,271.312Zm.367-1.338a.531.531,0,0,0-.057-.012c-.193-.036-.4-.071-.595-.1a4.48,4.48,0,0,0,.2-.811c.312,0,.627.005.941.008a5.844,5.844,0,0,0-.438.8C103.723,269.892,103.708,269.932,103.691,269.974Zm.778,1.336-.6,0a3.923,3.923,0,0,0,.384-.439l.367.048Q104.532,271.13,104.469,271.31Zm.5-1.078-.308-.063a3.646,3.646,0,0,0,.258-1.109l.935.006a6.227,6.227,0,0,0-.654.8C105.117,269.986,105.042,270.11,104.972,270.232Zm1.084,1.076c-.27,0-.539,0-.808,0,.088-.088.174-.182.264-.281.212.025.413.046.616.067C106.1,271.177,106.077,271.248,106.056,271.309Zm-.07-.87c.009-.013.019-.027.029-.038a7.235,7.235,0,0,0,.707-1.329c.2,0,.394,0,.593,0a5.749,5.749,0,0,0-.461.585,6.123,6.123,0,0,0-.486.855Zm1.2.87h-.711c.073-.046.151-.1.234-.155.182.015.357.026.531.038C107.222,271.232,107.2,271.271,107.188,271.309Zm.291-.589-.214-.039a3.465,3.465,0,0,0,.4-.482,3.963,3.963,0,0,0,.52-1.119c.184,0,.367,0,.552,0a7.4,7.4,0,0,0-.881,1.025A6.6,6.6,0,0,0,107.478,270.72Zm1.615.587h-1c.025-.021.05-.046.073-.069.346.008.665,0,.958-.006C109.113,271.257,109.1,271.284,109.094,271.307Zm.132-.354c-.226-.021-.47-.048-.728-.08.055-.069.113-.142.164-.216a4.667,4.667,0,0,0,.682-1.568c.438,0,.881.006,1.323.008a5.038,5.038,0,0,0-1.092,1.174A4.143,4.143,0,0,0,109.225,270.953Zm1.877.352-1.181,0a1.818,1.818,0,0,0,.157-.142l.053-.006c.31-.026.547-.074.709-.1l.247-.042h-.254c-.145,0-.352.006-.608,0a1.851,1.851,0,0,0,.176-.227,2.471,2.471,0,0,0,.36-1.168,2.98,2.98,0,0,0-.013-.522l1.434.009a9.086,9.086,0,0,0-.569.954A8.746,8.746,0,0,0,111.1,271.3Zm1.692,0c-.31,0-.62,0-.927,0a3.092,3.092,0,0,0,.617-.816,3.206,3.206,0,0,0,.331-1.379l1.086.006a7.813,7.813,0,0,0-.65,1.04A7.032,7.032,0,0,0,112.795,271.3Zm1.463,0c-.222,0-.44,0-.661,0a2.916,2.916,0,0,0,.53-.719,3.152,3.152,0,0,0,.325-1.413.391.391,0,0,0,0-.052l1,.005a4.052,4.052,0,0,0-.927,1.27A3.653,3.653,0,0,0,114.257,271.3Zm1.55,0h-.73a2.106,2.106,0,0,0,.335-.52,2.763,2.763,0,0,0,.111-1.656l1.495.01a5.229,5.229,0,0,0-.763,1.036A5.011,5.011,0,0,0,115.808,271.3Zm1.507,0H116.6a2.957,2.957,0,0,0,.512-.671,3.428,3.428,0,0,0,.388-1.493l.914.006a5.955,5.955,0,0,0-.688,1.061A5.755,5.755,0,0,0,117.314,271.3Zm1.837,0c-.331,0-.664,0-.994,0a3.607,3.607,0,0,0,.447-.673,3.942,3.942,0,0,0,.381-1.482c.482,0,.964.006,1.451.008a6.625,6.625,0,0,0-.74.986A6.38,6.38,0,0,0,119.152,271.3Zm2.034,0-1.168,0a3.893,3.893,0,0,0,.52-.667,4.273,4.273,0,0,0,.528-1.474c.363,0,.726,0,1.094,0a4.263,4.263,0,0,0-.973,2.136Zm.482,0a2.872,2.872,0,0,0,.843-.937,2.95,2.95,0,0,0,.317-1.191c.4,0,.809,0,1.214.006-.052.1-.1.2-.151.306a7.033,7.033,0,0,0-.528,1.815Zm2.055,0a4.447,4.447,0,0,0,1.061-1.426,3.959,3.959,0,0,0,.235-.688c.306,0,.616,0,.921,0-.094.147-.189.3-.277.466a6.206,6.206,0,0,0-.576,1.642Zm2.944,0h-1.143a3.972,3.972,0,0,0,1.007-1.2,3.67,3.67,0,0,0,.329-.9c.2,0,.394,0,.589,0a5.465,5.465,0,0,0-.342.621A5.7,5.7,0,0,0,126.667,271.286Zm1.849,0-1.218,0a4.882,4.882,0,0,0,.7-1.082,4.76,4.76,0,0,0,.327-1.011c.4,0,.792,0,1.193.006a4.1,4.1,0,0,0-.66.966A3.975,3.975,0,0,0,128.516,271.282Zm1.363-.283c0,.115,0,.208,0,.281h-.614a3.207,3.207,0,0,0,.478-.707,3.775,3.775,0,0,0,.327-1.279c0-.035,0-.065.006-.1h.367l-.044.075a3.807,3.807,0,0,0-.381.837A3.524,3.524,0,0,0,129.879,271Zm1.136.277-.83,0c.046-.027.09-.053.142-.086a1.564,1.564,0,0,0,.625-.814,1.584,1.584,0,0,0-.074-1.033c-.021-.053-.046-.1-.069-.147.331,0,.662,0,.992,0a5.536,5.536,0,0,0-.344.627A5.732,5.732,0,0,0,131.015,271.276Zm1.558,0c-.331,0-.66,0-.99,0a3.328,3.328,0,0,0,1.05-2.068l.784,0a5.735,5.735,0,0,0-.461.828A5.626,5.626,0,0,0,132.573,271.274Zm1.13,0c-.136,0-.269,0-.405,0a3.458,3.458,0,0,0,.552-.853,3.6,3.6,0,0,0,.291-1.206h.469a6.269,6.269,0,0,0-.6,1.094A5.92,5.92,0,0,0,133.7,271.272Zm1.761-.065c0,.021-.006.04-.009.061l-.866,0a3.334,3.334,0,0,0,.325-.6,4.018,4.018,0,0,0,.292-1.453c.273,0,.549,0,.822,0-.084.193-.168.4-.245.621A7.919,7.919,0,0,0,135.463,271.207Zm.8.019c0,.013-.006.026-.009.042h-.233a3.646,3.646,0,0,0,.342-.436C136.329,270.974,136.295,271.108,136.268,271.227Zm2.724.036q-1.049,0-2.1,0a2.97,2.97,0,0,0,.927-2.04c.176,0,.352,0,.526,0-.023.055-.052.109-.074.166a5.01,5.01,0,0,0-.344,1.856,3.5,3.5,0,0,0,1.254-1.51,2.91,2.91,0,0,0,.147-.508h.071c-.036.073-.073.145-.105.224a4.359,4.359,0,0,0-.3,1.388A3.869,3.869,0,0,0,138.992,271.263Zm-2.158-1.673a3.514,3.514,0,0,0,.031-.365h.159C136.959,269.339,136.9,269.462,136.834,269.59Zm3.464,1.655a.045.045,0,0,1,0,.015l-1.1,0c.074-.075.162-.165.262-.279a4.3,4.3,0,0,0,.744-1.176,3.6,3.6,0,0,0,.176-.572l.6,0c-.1.218-.208.457-.3.711A10.11,10.11,0,0,0,140.3,271.245Zm1.572-1.463a7.238,7.238,0,0,0-.392,1.474l-.524,0a2.671,2.671,0,0,0,.8-2.019l.357,0C142.026,269.412,141.944,269.592,141.87,269.783Zm1.011,1.474h-.761c.1-.128.2-.268.3-.425l.568.05C142.948,271.012,142.914,271.137,142.881,271.257Zm.262-.811c-.036.094-.069.183-.1.273l-.6.067a3.982,3.982,0,0,0,.335-.665,4.345,4.345,0,0,0,.235-.877l.746,0A7.588,7.588,0,0,0,143.143,270.446Zm1.374.807h-.705a2.979,2.979,0,0,0,.159-.29q.287.023.616.046C144.56,271.093,144.539,271.173,144.518,271.253Zm.212-.7-.62.056a3.289,3.289,0,0,0,.138-1.258c0-.036-.008-.073-.011-.107.359,0,.722,0,1.084,0-.124.224-.25.466-.365.725C144.871,270.177,144.8,270.372,144.73,270.557Zm1.336.694H145.3c.046-.059.094-.121.139-.186l.652.04C146.084,271.156,146.074,271.2,146.066,271.251Zm.212-.8c-.169.009-.331.019-.488.03.019-.044.046-.082.065-.128a4.072,4.072,0,0,0,.3-1.1h.708a6,6,0,0,0-.407.744C146.385,270.15,146.328,270.3,146.279,270.448Zm1.774.8-1.224,0c.025-.035.049-.065.073-.1q.556.029,1.156.056A.3.3,0,0,1,148.053,271.245Zm.244-.891c-.327.01-.644.023-.954.036,0,0,0-.006.005-.009a4.744,4.744,0,0,0,.337-1.124c.407,0,.812,0,1.222,0a4.756,4.756,0,0,0-.559.956C148.33,270.261,148.315,270.307,148.3,270.355Zm.543.891s.006-.006.006-.009c.084,0,.168.006.252.008C149.014,271.245,148.926,271.245,148.84,271.245Zm1.172-1.025c-.015.032-.029.065-.044.1-.21,0-.421,0-.627.008a3.24,3.24,0,0,0,.13-1.067l1.075,0A6.836,6.836,0,0,0,150.012,270.221Zm1.166.1c-.052,0-.107,0-.159,0a4.624,4.624,0,0,0,.235-1.055l.772,0A5.011,5.011,0,0,0,151.178,270.322Zm2.137-.761a7.467,7.467,0,0,0-.363.807c-.239-.009-.484-.019-.73-.027a5.277,5.277,0,0,0,.234-.83c.015-.088.028-.168.04-.245.327,0,.656,0,.986,0C153.427,269.366,153.37,269.462,153.316,269.561Zm1.6.157c-.145.254-.273.5-.39.732l-.587-.036a4.16,4.16,0,0,0,.248-.415,4.6,4.6,0,0,0,.3-.726h.694C155.092,269.416,155,269.565,154.914,269.718Zm1.4-.063a4.519,4.519,0,0,0-.323.9l-.442-.035c.077-.109.151-.216.222-.335a4.422,4.422,0,0,0,.388-.912h.363A3.983,3.983,0,0,0,156.312,269.655Zm1.053,1.573c-.248,0-.5,0-.743,0,.264-.009.516-.023.755-.035C157.373,271.207,157.369,271.219,157.365,271.228Zm.539-1.392c-.139.3-.256.585-.357.858-.228-.019-.47-.042-.721-.065a2.843,2.843,0,0,0,.367-.564,2.879,2.879,0,0,0,.244-.79l.75,0C158.09,269.456,157.994,269.642,157.9,269.837Zm.814,1.4-.065,0h-.445c.023-.035.048-.071.073-.105.36-.04.671-.086.933-.134.008.078.013.155.025.23A4.461,4.461,0,0,1,158.719,271.232Zm.484-.847a3.936,3.936,0,0,0,0,.4c-.2,0-.432-.009-.69-.021a5.548,5.548,0,0,0,.283-.53,6.515,6.515,0,0,0,.356-.952h.25A4.88,4.88,0,0,0,159.2,270.385Zm2.111.161a3.877,3.877,0,0,1-1.222.531.213.213,0,0,1-.038.008,2.919,2.919,0,0,0,.078-.312l.038-.012-.038,0a2.494,2.494,0,0,0,.044-.338,3.055,3.055,0,0,0-.176-1.143h.4l.295-.749a4.691,4.691,0,0,0,.1.491,5.169,5.169,0,0,0,.62,1.44s.006,0,.006.006C161.38,270.5,161.35,270.523,161.313,270.546Zm.891-.91a3.693,3.693,0,0,1-.333.425,5.136,5.136,0,0,0-.143-1.291,5.422,5.422,0,0,0-.535-1.3c.036-.073.071-.145.109-.216.176-.319.371-.637.572-.95-.006.046-.013.094-.019.145a4.449,4.449,0,0,0,.059,1.44,4.31,4.31,0,0,0,.522,1.309c.009.017.019.029.027.042C162.378,269.372,162.288,269.506,162.2,269.636Zm.937-1.411c-.071.1-.138.2-.207.306a3.753,3.753,0,0,0-.073-.858,4.354,4.354,0,0,0-.526-1.29c-.1-.166-.189-.3-.254-.4.109-.161.227-.321.346-.478a3.049,3.049,0,0,0,.652,2.185,2.88,2.88,0,0,0,.241.273C163.261,268.055,163.2,268.141,163.141,268.225Zm-.335-3.2c.076-.094.149-.186.227-.275a4.3,4.3,0,0,0,.08.755c-.061-.105-.122-.207-.182-.3C162.888,265.145,162.846,265.084,162.806,265.028Zm.7,2.678c.01-.061.015-.128.021-.2a3.865,3.865,0,0,0-.015-.9,4.344,4.344,0,0,0,.3.474c.029.038.056.07.084.1C163.76,267.361,163.632,267.533,163.506,267.707Zm.757-1c0-.142,0-.291-.013-.453a2.757,2.757,0,0,0,.226.166l.021.013C164.418,266.525,164.337,266.617,164.263,266.709Zm.568-.66a3.135,3.135,0,0,0-.407-1.027,3.4,3.4,0,0,0-.818-.841.136.136,0,0,0-.023-.015c.157-.159.317-.314.484-.463l.04-.033a3.38,3.38,0,0,0,.348.855,3.427,3.427,0,0,0,.891.992C165.166,265.69,165,265.868,164.831,266.049Zm.954-.941a6.1,6.1,0,0,0-1.086-1.925c.243-.182.5-.35.753-.508a3.791,3.791,0,0,0,.409.967,3.7,3.7,0,0,0,.711.857A9.913,9.913,0,0,0,165.785,265.109Zm1.338-.952a4.358,4.358,0,0,0-.436-1.026,4.3,4.3,0,0,0-.629-.8c.187-.1.378-.191.575-.272.065-.027.132-.046.2-.073a3.955,3.955,0,0,0,.31.939,3.9,3.9,0,0,0,.612.91A6.372,6.372,0,0,0,167.123,264.156Zm.889-1.661a4.068,4.068,0,0,0-.476-.742c.113-.032.23-.061.346-.088a3.618,3.618,0,0,0,.139.83c.019.069.046.13.069.2C168.066,262.625,168.043,262.562,168.012,262.5Zm.336,1.126a4.552,4.552,0,0,0-.168-.694,3.735,3.735,0,0,0,.357.64C168.473,263.583,168.41,263.6,168.349,263.621Zm1.358-.247c-.187.017-.377.033-.564.057a5.548,5.548,0,0,0-.19-1.221,5.244,5.244,0,0,0-.262-.694c.208-.027.421-.046.633-.059a5.589,5.589,0,0,0,.189.977,5.474,5.474,0,0,0,.373.935A1.144,1.144,0,0,0,169.706,263.374Zm1.013.038c-.048-.006-.1-.01-.158-.013a3.579,3.579,0,0,0-.117-1.25,3.4,3.4,0,0,0-.3-.7c.074,0,.151,0,.222.009q.229.017.407.035c0,.088,0,.178.015.268a3.749,3.749,0,0,0,.489,1.432c.075.124.14.218.2.3C171.218,263.466,170.966,263.442,170.719,263.413Zm2.627.2c-.346-.025-.692-.046-1.027-.067-.218-.013-.43-.029-.64-.044.017-.117.042-.273.061-.463a6.252,6.252,0,0,0,.012-1.415c-.006-.042-.015-.08-.021-.122l.317,0a1.222,1.222,0,0,0-.012.122,3.918,3.918,0,0,0,.174,1.311,3,3,0,0,0,.208.52,4.115,4.115,0,0,0,.277-.541,3.671,3.671,0,0,0,.314-1.26c0-.042,0-.082,0-.122.126.005.252.011.377.019-.035.2-.061.4-.08.61A6.783,6.783,0,0,0,173.346,263.613Zm1.057-1.067a7.633,7.633,0,0,0-.18,1.145c-.113-.011-.226-.025-.336-.034a4.282,4.282,0,0,0,.386-1.428,3.587,3.587,0,0,0,0-.593l.4.044A7.869,7.869,0,0,0,174.4,262.547Zm1.05,1.319c-.162-.029-.325-.061-.487-.084a4.621,4.621,0,0,0,.39-1.023,4.868,4.868,0,0,0,.122-.958c.3.052.592.113.885.18-.113.174-.226.357-.333.554A8.631,8.631,0,0,0,175.453,263.866Zm1.463.36c-.254-.08-.507-.149-.763-.21a5.317,5.317,0,0,0,.743-1.033,5.247,5.247,0,0,0,.333-.767c.14.044.275.088.413.134-.09.149-.176.306-.256.472A6.407,6.407,0,0,0,176.915,264.225Zm1.874.816-.132-.077a3.016,3.016,0,0,0,.271-.224C178.877,264.843,178.829,264.94,178.789,265.042Zm-.279-1.315a3.4,3.4,0,0,0-.317,1c-.258-.122-.52-.235-.786-.335a3.991,3.991,0,0,0,.864-1.166,3.706,3.706,0,0,0,.212-.564c.2.08.4.17.591.266A3.6,3.6,0,0,0,178.51,263.726Zm1.724,2.306q-.336-.275-.7-.524a3.828,3.828,0,0,0,.342-.484,4.608,4.608,0,0,0,.491-1.346v-.005c.078.052.157.1.231.157l.528.417a2.361,2.361,0,0,1,.224.2,7.06,7.06,0,0,0-.638.78A7.165,7.165,0,0,0,180.234,266.032Zm-.742-2.137a2.507,2.507,0,0,0,.117-.692c.122.065.239.132.354.208A5,5,0,0,0,179.493,263.894Zm1.325,2.646c.048-.042.1-.086.145-.132.059.126.149.312.271.537C181.1,266.808,180.961,266.673,180.818,266.541Zm.782.275c-.247-.208-.443-.371-.568-.473a4.193,4.193,0,0,0,.491-.575,4.076,4.076,0,0,0,.407-.744c.191.2.375.415.545.635a5.609,5.609,0,0,0-.685.841C181.722,266.605,181.659,266.712,181.6,266.816Zm.7.6a3.1,3.1,0,0,0,.65-1.08c.1.155.2.308.285.466s.174.333.258.5c-.176.2-.363.425-.551.677C182.718,267.783,182.5,267.592,182.3,267.42Zm1.426,2.78a1.075,1.075,0,0,1-.071-.094l-.272-.4c.136.124.272.241.408.354C183.769,270.106,183.746,270.154,183.727,270.2Zm.166-1.344c-.08-.076-.159-.145-.237-.22a3.735,3.735,0,0,0,.235-.422l.048.122.094.231a1.456,1.456,0,0,0,.239.381,1.578,1.578,0,0,0,.145.149c-.038.046-.078.1-.118.151Zm1.07,2.514a4.216,4.216,0,0,1-.591-.461,2.733,2.733,0,0,0,.2-.273c.174.118.342.224.5.319C185.031,271.1,185,271.234,184.964,271.37Zm.348-1.1c-.128-.134-.262-.272-.4-.417a3.371,3.371,0,0,0,.082-.424,2.616,2.616,0,0,0,.4.1,2.268,2.268,0,0,0,.254.032C185.53,269.779,185.417,270.014,185.312,270.272Zm1.17,1.707a4.3,4.3,0,0,1-.713-.2c.057-.118.113-.243.164-.371.285.132.5.216.608.258C186.52,271.773,186.5,271.878,186.482,271.98Zm-.694-4.785,0,0v0Zm.942,3.669c-.069.258-.128.507-.176.746-.094-.1-.264-.3-.5-.547a6.034,6.034,0,0,0,.262-1.484c.308-.013.595-.044.87-.082A13.4,13.4,0,0,0,186.731,270.863Zm1.249-.229a11.17,11.17,0,0,0-.163,1.434c-.168.008-.336.011-.5.006a6.028,6.028,0,0,0,.36-.973,6.49,6.49,0,0,0,.218-1.717c.139-.027.281-.052.419-.078A11.541,11.541,0,0,0,187.979,270.634Zm1.25,1.225c-.244.057-.489.105-.732.141a3.951,3.951,0,0,0,.444-1.208,4.129,4.129,0,0,0-.042-1.612c.084-.019.174-.036.258-.056.048-.011.092-.025.14-.034-.048.292-.086.606-.109.935A10.463,10.463,0,0,0,189.229,271.859Zm.842-.436v.2c-.082.029-.163.055-.247.08a6.842,6.842,0,0,0,.243-.921.115.115,0,0,1,.021-.013C190.078,271,190.073,271.23,190.071,271.423Zm.1-1.772a.31.31,0,0,0-.006.031,6.162,6.162,0,0,0-.046-.8c.056-.015.113-.027.168-.04C190.248,269.1,190.209,269.368,190.176,269.651Zm1.419,1.342v0q-.5.238-1,.43a4.787,4.787,0,0,0,.449-1.136c.178-.067.375-.134.585-.2C191.61,270.429,191.6,270.735,191.594,270.993Zm.13-1.971c-.025.214-.046.421-.063.621-.2.086-.377.174-.547.262.009-.053.023-.1.029-.161a4.442,4.442,0,0,0-.017-1.12c.228-.061.451-.12.677-.185C191.774,268.628,191.747,268.823,191.724,269.022Zm.851,1.461c-.1.057-.2.111-.3.164a6.2,6.2,0,0,0,.273-.811c.042-.012.088-.023.132-.036C192.638,270.051,192.6,270.278,192.575,270.483Zm.31-1.612c-.025.1-.046.2-.069.3l-.143.055c.006-.038.015-.073.021-.113a5.421,5.421,0,0,0,.021-.941c.138-.04.273-.082.411-.124C193.042,268.309,192.959,268.582,192.885,268.871Zm1.52.61-.22.078c-.121.042-.241.084-.36.132l-.275.189c.052-.115.1-.231.147-.356.231-.063.473-.13.717-.2C194.411,269.378,194.409,269.429,194.4,269.481Zm.107-.969-.612.233a5.054,5.054,0,0,0,.078-.95c.252-.078.508-.151.761-.23A8.331,8.331,0,0,0,194.512,268.512Zm1.107.535-.23.084c.006-.031.012-.059.017-.09.264-.074.535-.153.809-.235a.164.164,0,0,1,0,.029C196.018,268.907,195.818,268.978,195.619,269.047Zm.69-1.376c-.013.067-.025.132-.035.2-.265.094-.524.187-.78.279a5.486,5.486,0,0,0-.057-.8q.527-.166,1.051-.338A4.728,4.728,0,0,0,196.309,267.671Zm1.833-.881c-.023.155-.04.306-.055.453l-.777.262a3.744,3.744,0,0,0-.021-.755l.916-.3Q198.171,266.614,198.142,266.789Zm1.065.08s0,.008,0,.009a.676.676,0,0,1-.071.023l-.025.008a4.912,4.912,0,0,0,.053-.787c.077-.027.157-.054.233-.078A5.672,5.672,0,0,0,199.207,266.869Zm1.923-.576q-.456.132-.925.275a4.091,4.091,0,0,0-.063-.778c.413-.141.822-.285,1.233-.426A6.908,6.908,0,0,0,201.131,266.294Zm1.648-.81c-.027.122-.046.244-.063.363l-.616.17a2.315,2.315,0,0,0-.191-.782.387.387,0,0,0-.023-.048c.354-.125.711-.247,1.065-.371A5.489,5.489,0,0,0,202.778,265.483Zm2.3-.74c-.008.17-.008.335-.006.5q-.628.152-1.323.335a4.092,4.092,0,0,0,.04-1.055q.679-.241,1.354-.484C205.113,264.258,205.088,264.495,205.077,264.743Zm1.959-.866a5.049,5.049,0,0,0-.04.912c-.3.065-.625.139-.973.22.01-.078.023-.155.027-.237a3.548,3.548,0,0,0-.111-1.023c.407-.147.811-.3,1.214-.442A5.2,5.2,0,0,0,207.036,263.877Zm1.168-.47a6.8,6.8,0,0,0-.092,1.141c-.084.017-.172.035-.268.056A3.026,3.026,0,0,0,208,264a3.287,3.287,0,0,0-.021-.992c.111-.04.224-.08.335-.122C208.271,263.052,208.233,263.227,208.2,263.407Zm1.692-.176a5.412,5.412,0,0,0-.05.725c-.285.1-.572.2-.855.308-.009,0-.015.006-.023.008a3.918,3.918,0,0,0,.2-.719,4.23,4.23,0,0,0,.042-1l.929-.344A5.7,5.7,0,0,0,209.9,263.231Zm1.587-1.132a7.131,7.131,0,0,0-.185,1.335c-.163.057-.325.117-.488.176.017-.086.04-.17.052-.26a3.784,3.784,0,0,0-.084-1.376c.277-.1.551-.2.826-.31C211.561,261.8,211.519,261.948,211.483,262.1Zm1.925-.554a6.97,6.97,0,0,0-.254,1.22q-.508.184-1.015.365a4.132,4.132,0,0,0,.295-.818,4.29,4.29,0,0,0,.114-1l.771-.287c.111-.044.218-.084.329-.126C213.563,261.1,213.479,261.314,213.408,261.545Zm1.686-.836a4.7,4.7,0,0,0-.071,1.384l-.973.35a2.651,2.651,0,0,0,.291-.625,2.83,2.83,0,0,0,.086-1.218l.772-.292C215.16,260.438,215.123,260.57,215.095,260.709Zm1.579-.6a7.006,7.006,0,0,0-.141,1.445l-.788.283a4.934,4.934,0,0,0,.308-.943,5.18,5.18,0,0,0,.1-.944l.624-.239C216.735,259.836,216.7,259.968,216.674,260.105Zm.61,1.174,0,0c0-.006.006-.009.008-.015S217.286,261.275,217.283,261.279Zm.49-1.468c-.04.092-.073.182-.107.272a4.311,4.311,0,0,0,.05-.736l.315-.122C217.945,259.409,217.857,259.6,217.773,259.811Zm2.017-.866a5.335,5.335,0,0,0-.285,1.535l-1.268.455a3.534,3.534,0,0,0,.443-.773,3.783,3.783,0,0,0,.258-1.287l1.048-.405A4.946,4.946,0,0,0,219.79,258.945Zm.344,1.307a3.337,3.337,0,0,0,.514-.851,5.3,5.3,0,0,0,.053.648C220.513,260.119,220.323,260.186,220.134,260.252Zm3.367-2.6a5.4,5.4,0,0,0-.048,1.407q-1.081.387-2.16.778a2.825,2.825,0,0,0,.342-2.007l.556-.214a2.818,2.818,0,0,0-.069.3,3.286,3.286,0,0,0,.1,1.507,2.444,2.444,0,0,0,.862-1.342,2,2,0,0,0-.029-.8c.2-.078.394-.157.593-.233A4.9,4.9,0,0,0,223.5,257.652Zm3.317-1.713a7.9,7.9,0,0,0-.222,1.12,6.223,6.223,0,0,0-.032.881l-2.468.887a3.184,3.184,0,0,0,.365-2.1c.258-.1.52-.2.774-.3-.006.057-.017.113-.021.172a4.356,4.356,0,0,0,.226,1.734,3.093,3.093,0,0,0,.746-1.667,2.472,2.472,0,0,0-.029-.6l.706-.279C226.848,255.832,226.833,255.882,226.818,255.94Zm1.363,1.419c-.245.088-.491.176-.736.266a1.927,1.927,0,0,0,.121-.47,2.162,2.162,0,0,0-.262-1.239,1.8,1.8,0,0,0-.153-.245l1.09-.432a4.591,4.591,0,0,0-.145.8A4.482,4.482,0,0,0,228.181,257.358Zm.681-.245a4.861,4.861,0,0,0,.2-1,5.26,5.26,0,0,0-.046-1.183c.166-.065.333-.13.5-.2-.008.084-.017.166-.017.254a4.45,4.45,0,0,0,.2,1.365,4.27,4.27,0,0,0,.149.409C229.517,256.878,229.19,257,228.862,257.113Zm1.153-.415c.05-.1.107-.222.17-.373a3.882,3.882,0,0,0,.289-1.338,3.392,3.392,0,0,0-.052-.616c.134-.055.266-.107.4-.161a5.952,5.952,0,0,0,.019.929,5.668,5.668,0,0,0,.256,1.168Zm1.736-.625a3.531,3.531,0,0,0,.057-1.05,3.639,3.639,0,0,0-.3-1.086c.5-.2,1-.4,1.5-.6a3.976,3.976,0,0,0-.008,1.134,3.835,3.835,0,0,0,.319,1.042C232.791,255.7,232.27,255.888,231.75,256.073Zm2.248-.809a5.253,5.253,0,0,0-.042-.948,6.143,6.143,0,0,0-.335-1.229l.763-.306a3.173,3.173,0,0,0,.329,1.445c-.065.006-.124.008-.168.012l-.163,0s.056.013.159.044c.056.011.13.025.216.036a3.092,3.092,0,0,0,.208.363c.048.073.094.134.136.189C234.735,255,234.366,255.133,234,255.264Zm1.17-2.8c.157-.063.312-.128.469-.189a4.924,4.924,0,0,0,.206,1.2c.035.111.074.214.115.316a4.344,4.344,0,0,1-.507.241,3.73,3.73,0,0,0-.283-1.568Zm.226,2.3c.009-.074.019-.159.03-.248.006-.067.012-.143.017-.216a4.663,4.663,0,0,0,.673-.157c.052.107.1.208.162.3Zm.843-2.732.294-.121a5.908,5.908,0,0,0,.025.721A5.85,5.85,0,0,0,236.238,252.032Zm.719,2.168a.162.162,0,0,1,0-.031l.011.029A.018.018,0,0,1,236.956,254.2Zm.122-2.51,1.112-.451a.524.524,0,0,0-.019.063,4.323,4.323,0,0,0-.14,1.273c-.162.09-.319.176-.472.264A3.511,3.511,0,0,0,237.079,251.69Zm.514,2.283a3.852,3.852,0,0,0,.032-.407l.518-.207a3.408,3.408,0,0,0,.113.375C238.035,253.813,237.813,253.892,237.593,253.972Zm1.067-2.657c-.031-.084-.059-.162-.086-.233l1.38-.564a6.748,6.748,0,0,0-.1,1.147c-.329.151-.648.3-.954.457C238.826,251.821,238.738,251.546,238.66,251.315Zm.392,2.132c0-.143,0-.292-.013-.445l.9-.357c.027.161.059.312.092.449C239.707,253.211,239.378,253.328,239.052,253.446Zm1.7-.612-.008,0a3.979,3.979,0,0,0,.08-.548c.212-.082.424-.169.639-.254.165-.063.323-.126.482-.19.029.187.061.365.1.526Zm-.325-2.51,1.518-.623a8.158,8.158,0,0,0-.075,1.145c-.268.1-.539.2-.812.3-.1.04-.2.084-.306.126A4.521,4.521,0,0,0,240.426,250.324Zm2.34,1.788a5.033,5.033,0,0,0,.077-.619c.268-.1.526-.207.78-.306.027.214.063.409.1.579C243.4,251.882,243.085,252,242.766,252.112Zm.815-1.872v.057c-.256.073-.518.153-.786.237a5.424,5.424,0,0,0-.287-1.065c.429-.178.849-.35,1.271-.524A6.039,6.039,0,0,0,243.581,250.24Zm.745,1.31a5.385,5.385,0,0,0,.163-.7l.409-.161c.013.231.031.447.05.643C244.741,251.4,244.535,251.475,244.326,251.55Zm.05-2.851.568-.235c-.031.333-.057.694-.065,1.071,0,.145,0,.287,0,.426l-.323.077A5.77,5.77,0,0,0,244.376,248.7Zm1.222,2.4a6.273,6.273,0,0,0,.17-.751c.153-.061.3-.121.442-.174.013.256.036.486.061.682C246.047,250.932,245.823,251.013,245.6,251.1Zm.617-2.227c-.019.285-.027.56-.023.82l-.17.031-.187.036c.006-.073.015-.143.017-.216a5.89,5.89,0,0,0-.143-1.392c.208-.086.417-.174.625-.258A9.762,9.762,0,0,0,246.215,248.868Zm.558-2.755a.255.255,0,0,0-.008.025c-.508.2-1.019.4-1.535.595l-.025-.052-.015.067c-9.682,3.753-20.892,8.045-33.237,12.521-3.328,1.2-6.739,2.413-10.232,3.6s-7.068,2.365-10.72,3.369c-.912.244-1.829.478-2.741.671-.455.094-.908.178-1.346.237-.218.03-.432.052-.631.061-.077.006-.153.006-.222.006-.053-.138-.107-.275-.17-.411a12.881,12.881,0,0,0-.733-1.443,11.131,11.131,0,0,0-2.049-2.564c-.092-.084-.187-.161-.279-.243.056-.038.12-.081.2-.138.237-.149.562-.408,1.025-.671a25.589,25.589,0,0,1,4-2.006,38.622,38.622,0,0,1,6.307-1.874c1.212-.25,2.487-.48,3.814-.681s2.705-.365,4.114-.526c2.822-.316,5.508-.581,7.934-.931a56.278,56.278,0,0,0,6.374-1.233,34.943,34.943,0,0,0,4.135-1.337c.478-.182.835-.356,1.082-.457s.375-.164.375-.164l-.4.128c-.262.078-.637.22-1.136.356a41.784,41.784,0,0,1-4.242,1.017c-1.811.348-3.984.644-6.418.891s-5.124.461-7.963.78a60.348,60.348,0,0,0-7.976,1.386,33.155,33.155,0,0,0-6.265,2.227,22.956,22.956,0,0,0-3.841,2.31c-.434.3-.732.585-.952.755-.078.063-.138.113-.187.155a11.429,11.429,0,0,0-2.2-1.529c.207-.115.507-.281.889-.5l.65-.365.79-.4c.566-.289,1.2-.627,1.929-.95l1.132-.524c.4-.168.813-.34,1.243-.52.849-.377,1.789-.694,2.759-1.067a64.135,64.135,0,0,1,6.458-1.862,59.911,59.911,0,0,1,6.554-1.1l1.478-.147c.478-.046.942-.059,1.394-.092.9-.073,1.738-.076,2.5-.1s1.455.006,2.061.006,1.128.031,1.553.056l1.321.065s-.472-.077-1.327-.22c-.428-.07-.954-.153-1.568-.208s-1.315-.157-2.1-.184c-.778-.046-1.635-.1-2.554-.08-.461.006-.938-.013-1.43.015l-1.514.077a44.717,44.717,0,0,0-6.711.986,46.122,46.122,0,0,0-6.5,2.053c-.965.417-1.889.793-2.722,1.223-.419.211-.826.4-1.21.606l-1.092.606c-.7.377-1.3.772-1.841,1.107l-.742.472c-.222.157-.425.3-.606.425-.363.26-.644.459-.835.6-.054-.029-.107-.063-.163-.09a6,6,0,0,0-.638-.313c.015-.021.025-.04.044-.063a4.486,4.486,0,0,1,1.1-1,17.959,17.959,0,0,1,2-1.084l2.512-1.231c1.772-.862,3.365-1.617,4.521-2.154s1.868-.868,1.868-.868a19.551,19.551,0,0,0-2.065.422,24.515,24.515,0,0,0-7.269,3.132,11.368,11.368,0,0,0-1.883,1.416,3.953,3.953,0,0,0-.916,1.3c-.013.031-.019.056-.031.082-.244-.1-.491-.2-.734-.306-.511-.186-1.029-.344-1.549-.494-.367-.1-.734-.174-1.1-.247.032-.059.067-.12.109-.193.1-.2.245-.438.417-.707s.354-.581.589-.906c.111-.165.229-.337.352-.516s.266-.354.407-.539c.269-.378.6-.747.929-1.153a28.189,28.189,0,0,1,2.363-2.382,25.137,25.137,0,0,1,4.94-3.411c.334-.189.656-.321.927-.459s.516-.239.715-.321c.4-.17.612-.265.612-.265l-.671.124a7.213,7.213,0,0,0-.784.183c-.3.086-.656.168-1.029.308s-.79.277-1.216.476a14.461,14.461,0,0,0-1.354.668,16.433,16.433,0,0,0-2.835,2.011A17.009,17.009,0,0,0,178.4,255c-.3.445-.6.864-.83,1.283-.119.208-.237.407-.34.6s-.193.39-.283.573c-.184.361-.314.705-.434,1.006a7.577,7.577,0,0,0-.277.776c-.027.086-.05.16-.07.231a24.94,24.94,0,0,0-5.061-.392,12.121,12.121,0,0,0-2.61.006,11.088,11.088,0,0,0-6.3,3.044,15.394,15.394,0,0,0-2.174,2.587q-.462.691-.853,1.415c-.128.243-.254.486-.373.736,0,0,0,.008,0,.012-26.651.059-50.946.291-69.98.554,2.881-15.872,5.248-28.83,6.968-37.972.105-.128.168-.21.168-.21a1.067,1.067,0,0,0-.13.011c.031-.168.063-.336.094-.5.092-.484.182-.952.268-1.413.109-.139.172-.231.172-.231s-.048,0-.128.008c.035-.176.067-.348.1-.52a35.274,35.274,0,0,0,.971-3.531c.151-.685.273-1.35.373-1.984.2-.17.348-.3.413-.361q-.144.9-.289,1.853c-.348,2.307-.612,4.376-.791,5.871s-.266,2.411-.266,2.411.331-.887.751-2.355a46.881,46.881,0,0,0,1.277-5.84,47.85,47.85,0,0,0,.507-6.018c.015-.662.015-1.216.008-1.637a5.6,5.6,0,0,1,.675-.534l.015-.009c-.117.8-.237,1.613-.357,2.432-1.778,12.177-3.435,23.944-4.875,34.446l-.121.883.04.015c-.17.176-.344.367-.528.589a14.85,14.85,0,0,0-1.6,2.434.16.16,0,0,0-.008.015c.293-1.061,1.132-4.216,1.83-7.9.859-4.55,1.176-8.188,1.176-8.188a57.13,57.13,0,0,0-2.143,8.064,60.422,60.422,0,0,0-.962,8.225,26.482,26.482,0,0,0-2.841,9.113,24.194,24.194,0,0,0-.22,2.742,46.075,46.075,0,0,0,3.193-6.057c.046.013.09.029.138.044.356.115.761.245,1.214.369.9.268,1.988.528,3.2.776s2.55.442,3.954.574a38.784,38.784,0,0,0,7.135-.01c.9-.088,1.621-.182,2.116-.262l.769-.124-2.94-.1c-1.814-.071-4.306-.222-7.059-.48-1.378-.13-2.694-.275-3.9-.417s-2.287-.294-3.2-.439c-.487-.077-.925-.147-1.307-.208.248-.573.493-1.172.728-1.793.216-.575.415-1.141.595-1.688.086-.271.166-.535.243-.8.1.063.224.132.357.2a12.079,12.079,0,0,0,2.332.99,11.88,11.88,0,0,0,2.444.461,9.212,9.212,0,0,0,1.023.032s-.352-.222-.927-.51a14.706,14.706,0,0,0-2.279-.92,15.581,15.581,0,0,0-2.43-.512c-.159-.021-.3-.036-.432-.052.048-.159.1-.319.139-.474.283-.994.534-1.872.769-2.6.1-.3.191-.568.279-.813a82.946,82.946,0,0,0,8.292,2.447,34.072,34.072,0,0,0,4.25.685,28.492,28.492,0,0,0,4.237.048,35.849,35.849,0,0,0,7.949-1.506c2.509-.747,4.871-1.657,7.139-2.573a125.068,125.068,0,0,1,12.8-4.8,41.839,41.839,0,0,1,11.536-1.638,29.9,29.9,0,0,1,5.457.5c-.038.122-.054.2-.054.2s.128-.05.317-.146a22.979,22.979,0,0,1,3.644,1.029c.035.011.065.028.1.04-.027.1-.04.168-.04.168a2.445,2.445,0,0,0,.26-.078c.312.122.614.252.908.386a2.539,2.539,0,0,0-.122.375,3.284,3.284,0,0,0,.531-.159l.025-.01a18.227,18.227,0,0,1,1.772.985c-.008.021-.015.046-.021.067a2.193,2.193,0,0,0-.077.446,3.036,3.036,0,0,0,.482-.174l.073-.036c.222.149.436.3.642.453a2.091,2.091,0,0,0-.088.487,2.227,2.227,0,0,0,.564-.128c.187.149.373.3.547.449a2.162,2.162,0,0,0-.034.6,2.176,2.176,0,0,0,.5-.18.4.4,0,0,0,.052.046,15.393,15.393,0,0,1,1.759,1.931c.239.294.425.591.614.851.145.239.279.451.4.65.023.193.034.295.034.295s-.008-.094-.017-.27a.454.454,0,0,0,.036.061c.251.453.436.8.543,1.046s.17.361.17.361-.049-.121-.149-.356c-.05-.117-.107-.264-.186-.436l-.292-.593c-.04-.082-.09-.168-.136-.258a5.583,5.583,0,0,0-.111-.973c-.023-.162-.059-.342-.1-.531a1.6,1.6,0,0,0,.2-.151l.595,1.206s-.151-.486-.445-1.378a.732.732,0,0,0,.1-.208,1.454,1.454,0,0,0-.308-1.092,1.691,1.691,0,0,0-.179.149c-.006-.015-.012-.031-.017-.048a61.981,61.981,0,0,0-2.751-6.9,29.346,29.346,0,0,0-6.542-9.11,19.907,19.907,0,0,0-5.764-3.68,25.3,25.3,0,0,0-7.112-1.717,58.93,58.93,0,0,0-7.16-.224c-2.287.04-4.468.121-6.536.111a47.853,47.853,0,0,1-5.835-.338,30.42,30.42,0,0,1-4.976-1.107,31.569,31.569,0,0,1-6.848-3.073c-.769-.466-1.354-.855-1.745-1.126l-.6-.419.539.507c.356.327.895.8,1.615,1.371a28.883,28.883,0,0,0,6.722,3.923,28.5,28.5,0,0,0,5.162,1.585,41.24,41.24,0,0,0,6.1.734c.688.038,1.386.063,2.089.084a2.844,2.844,0,0,0-1.734,1.593,2.319,2.319,0,0,0-.162.507,5.273,5.273,0,0,0,.541-.2,3.842,3.842,0,0,0,1.013-.608,3.982,3.982,0,0,0,.742-.929c.082-.136.149-.256.2-.348.161.006.321.011.484.013-.283.331-.583.7-.881,1.107a18.969,18.969,0,0,0-1.7,2.8,6.451,6.451,0,0,0,.837-.558,8.093,8.093,0,0,0,2.6-3.334q.82.011,1.65.021c-.621.638-1.449,1.5-2.308,2.48-.877,1-1.625,1.925-2.154,2.606s-.839,1.115-.839,1.115a12.7,12.7,0,0,0,1.2-.79,15.968,15.968,0,0,0,2.545-2.315,16.212,16.212,0,0,0,1.99-2.848c.044-.084.088-.163.128-.239.134,0,.266,0,.4,0,.231.006.465.01.7.013-.052.067-.1.136-.161.21-.526.681-1.235,1.617-1.965,2.663s-1.346,2.006-1.784,2.709-.692,1.147-.692,1.147a10.971,10.971,0,0,0,1.084-.86,14.129,14.129,0,0,0,2.21-2.466,14.474,14.474,0,0,0,1.569-2.954c.063-.161.117-.306.165-.442.474.008.95.023,1.428.036,0,0-.005.006-.005.009-.553.786-1.333,1.836-2.212,2.948s-1.7,2.089-2.3,2.787-.986,1.126-.986,1.126l.369-.191a11.078,11.078,0,0,0,.965-.595,12.443,12.443,0,0,0,2.742-2.554,12.694,12.694,0,0,0,1.856-3.3c.027-.074.052-.145.078-.216.4.016.8.036,1.195.06l-.237.346c-.472.685-1.137,1.6-1.883,2.568s-1.434,1.83-1.946,2.445l-.83,1s.118-.053.325-.158a9.136,9.136,0,0,0,.855-.5,9.854,9.854,0,0,0,2.388-2.22,10,10,0,0,0,1.528-2.915c.065-.2.118-.382.162-.545.555.034,1.111.08,1.667.134-.5.564-1.155,1.3-1.839,2.132-.719.874-1.334,1.677-1.778,2.267s-.7.966-.7.966a8.537,8.537,0,0,0,1.063-.639,10.8,10.8,0,0,0,2.189-2,11.074,11.074,0,0,0,1.556-2.554c.019-.044.036-.082.054-.124.029,0,.057.005.086.008.476.053.944.12,1.409.193-.046.052-.094.107-.143.169-.442.514-1.057,1.2-1.727,1.935s-1.277,1.394-1.726,1.87-.73.772-.73.772a5.7,5.7,0,0,0,1.044-.4,7.149,7.149,0,0,0,2.151-1.6,7.271,7.271,0,0,0,1.4-2.317c.048-.13.088-.247.124-.359q.866.149,1.7.346c-.382.432-.826.92-1.3,1.434-.7.755-1.34,1.424-1.814,1.906l-.772.784a5.988,5.988,0,0,0,1.082-.407,7.3,7.3,0,0,0,3.507-3.543q.461.126.912.269c-.216.258-.443.528-.673.816-.572.711-1.057,1.374-1.406,1.864s-.551.8-.551.8a6.086,6.086,0,0,0,.908-.474,7.251,7.251,0,0,0,1.822-1.6,7.335,7.335,0,0,0,.733-1.122c.176.063.353.128.527.2s.342.139.512.21c-.292.36-.623.782-.96,1.245-.469.65-.853,1.26-1.126,1.713s-.426.745-.426.745a4.855,4.855,0,0,0,.8-.434,5.715,5.715,0,0,0,2.332-2.992c.459.218.906.453,1.338.7-.2.275-.4.579-.6.9-.4.642-.711,1.245-.931,1.69s-.337.738-.337.738a4.6,4.6,0,0,0,.734-.455,5.445,5.445,0,0,0,1.371-1.478,5.3,5.3,0,0,0,.465-.973c.245.157.484.316.717.482a7.662,7.662,0,0,0-.585.839,7.47,7.47,0,0,0-.862,2.16,5.043,5.043,0,0,0,1.707-1.676,4.623,4.623,0,0,0,.39-.851c.214.163.424.327.631.5-.149.2-.306.426-.455.673a9.38,9.38,0,0,0-.595,1.178c-.138.317-.207.534-.207.534a2.544,2.544,0,0,0,.593-.237,2.767,2.767,0,0,0,1.048-.981,2.53,2.53,0,0,0,.264-.618q.19.169.373.338c-.107.153-.218.31-.325.482a10.789,10.789,0,0,0-.686,1.292c-.155.35-.237.581-.237.581a2.979,2.979,0,0,0,.627-.289,3.388,3.388,0,0,0,1.128-1.078,3.437,3.437,0,0,0,.178-.337c.128.128.254.256.379.386-.012.023-.027.046-.038.073a2.625,2.625,0,0,0-.216,1.319,2.232,2.232,0,0,0,.939-.66c.1.113.2.222.295.332a1.438,1.438,0,0,0-.382.421,1.561,1.561,0,0,0-.134.986s.734-.063.987-.516a.737.737,0,0,0,.08-.243c.122.149.245.3.363.449.078.1.147.193.224.292a2.338,2.338,0,0,0-.216-.111s-.365.254-.365.556.365.539.365.539.53-.212.6-.487c.838,1.12,1.564,2.237,2.2,3.292,1.05,1.747,1.881,3.322,2.546,4.638-.052-.084-.1-.166-.151-.252a12.662,12.662,0,0,0-1.96-2.378c-.2-.2-.421-.4-.646-.6a.9.9,0,0,0,0-.094l-.073.033a15.524,15.524,0,0,0-2.245-1.585c-.419-.247-.87-.476-1.334-.694,0-.074,0-.118,0-.118s-.044.023-.113.065a16.856,16.856,0,0,0-2.547-.948,22.314,22.314,0,0,0-4.051-.7c0-.021,0-.032,0-.032l-.067.027c-.247-.021-.491-.044-.744-.057-.761-.044-1.539-.05-2.331-.036.008-.084.012-.138.012-.138s-.105.048-.266.141c-.581.013-1.172.046-1.768.086l.015-.069s-.067.029-.174.082c-2.1.151-4.3.443-6.581.79.016-.071.023-.113.023-.113s-.092.05-.241.145l-.076.012c-.883.132-1.782.266-2.694.394.029-.135.038-.218.038-.218s-.139.094-.354.264c-.589.082-1.183.166-1.785.244.052-.216.073-.346.073-.346s-.143.141-.371.386q-.866.115-1.749.22l.006-.031-.052.036c-2.032.245-4.13.457-6.294.6l-1.776.113-1.8.067c-1.211.063-2.438.029-3.681.044l-1.873-.063-.945-.035c-.315-.023-.631-.046-.948-.07-.633-.054-1.273-.082-1.912-.155-.265-.032-.533-.065-.8-.1.006-.027.01-.042.01-.042s-.01.015-.027.038l-1.111-.132c-.325-.032-.644-.086-.966-.143l-.967-.166-.975-.166c-.325-.06-.644-.143-.968-.212-.644-.155-1.3-.281-1.946-.457l-1.937-.56a42.646,42.646,0,0,1-6.928-2.916c1.128-8.054,1.843-17.229,2.426-26.766.019-.032.034-.061.055-.1l.6-3.261.566-3q.579-3,1.2-5.988c.419-1.99.853-3.977,1.344-5.935q.184-.737.384-1.461l.206-.721.176-.564a4.114,4.114,0,0,1,.4-.914c.046-.061.118-.145.2-.1l.228.1c.159.05.315.109.478.151l.3.084.449.113q.471.12.941.224c.627.145,1.25.279,1.878.409,1.252.262,2.5.5,3.756.738l.084.015c-.09.124-.186.254-.291.4-.633.862-1.514,2.028-2.478,3.29s-1.833,2.39-2.461,3.2l-1.019,1.315a13.705,13.705,0,0,0,1.39-1,17.268,17.268,0,0,0,2.891-2.961,17.635,17.635,0,0,0,2.1-3.613c.088-.207.162-.392.231-.566l1.057.191c-.142.2-.3.426-.47.675-.761,1.082-1.826,2.543-3.015,4.111s-2.275,2.95-3.072,3.942-1.292,1.6-1.292,1.6.164-.117.459-.329.709-.535,1.208-.958a23.7,23.7,0,0,0,3.5-3.707,24.083,24.083,0,0,0,2.638-4.426q.212-.47.367-.845l.183.035.937.165c-.174.285-.374.617-.606,1-.742,1.216-1.786,2.858-2.958,4.621s-2.25,3.321-3.044,4.435-1.287,1.8-1.287,1.8.166-.138.465-.388.719-.633,1.218-1.122a26.956,26.956,0,0,0,3.491-4.229,27.272,27.272,0,0,0,2.558-4.91c.176-.445.317-.832.428-1.157l.207.036c-.142.488-.3,1.021-.463,1.6s-.344,1.21-.528,1.874c-.729,1.025-1.872,2.7-3.019,4.634A59.51,59.51,0,0,0,112.344,207a37.224,37.224,0,0,0,3.929-5.453c.621-1.052,1.149-2.075,1.581-2.975-.262.983-.53,2.023-.8,3.11q-.137.215-.309.488c-.446.711-1.046,1.684-1.667,2.757s-1.143,2.057-1.516,2.772-.587,1.168-.587,1.168a10.435,10.435,0,0,0,1-.91,12.889,12.889,0,0,0,1.963-2.571c.165-.285.31-.57.443-.849-.132.581-.26,1.174-.386,1.772a103.37,103.37,0,0,0-1.793,11.754c-.136,1.507-.211,2.722-.239,3.564s-.042,1.3-.042,1.3.161-.451.421-1.268.633-2,1.071-3.458c.87-2.921,2.03-6.951,2.988-11.515a98.838,98.838,0,0,0,1.757-11.917c.082-.962.136-1.814.174-2.533l.95-3.755q.929-3.691,1.856-7.381l.927-3.686.325-1.311.166-.662.082-.331.04-.169.021-.084c0-.012.006-.033.013-.035l.029.029c.5.508,1.019,1.007,1.566,1.493l.457.4c.189.17.386.336.587.5.4.323.788.656,1.2.962a44.1,44.1,0,0,0,5.112,3.4,43.1,43.1,0,0,0,11.364,4.472c3.948.958,7.945,1.528,11.706,2.858a21.4,21.4,0,0,1,5.28,2.694,21.7,21.7,0,0,1,2.29,1.9,22.738,22.738,0,0,1,1.994,2.21,31.945,31.945,0,0,1,2.642,3.971c.245.415.44.782.616,1.09-.059.39-.157,1.04-.268,1.877a44.443,44.443,0,0,0-.417,5.439,34.7,34.7,0,0,0,.386,5.357c.2,1.363.422,2.2.422,2.2a17.681,17.681,0,0,0,.794-2.206,19.736,19.736,0,0,0,.832-5.388,18.711,18.711,0,0,0-.8-5.466c-.094-.308-.185-.581-.277-.83.226.176.329-.067.248-.834.113-.155.239-.323.384-.507a13.844,13.844,0,0,1,1.025-1.221c.189-.189.386-.367.577-.553l.291-.273.313-.249a14.463,14.463,0,0,1,2.692-1.736,19.949,19.949,0,0,1,3.013-1.216,30.55,30.55,0,0,1,3.208-.807c1.1-.2,2.2-.386,3.334-.508s2.248-.224,3.391-.266c2.285-.1,4.617-.038,7,.04s4.81.189,7.3.187c1.249-.009,2.5-.035,3.785-.124s2.564-.228,3.852-.449a29.541,29.541,0,0,0,7.657-2.308,21.718,21.718,0,0,0,3.594-2.113,5.082,5.082,0,0,0,.424-.319l.207-.166.059-.048.009-.008.061-.036.086-.06a.515.515,0,0,1,.032.119l.008.053,0,.025.159.426q.688,1.853,1.378,3.715,1.179,3.137,2.367,6.307l-.04-.067s.572,1.877,1.585,4.831,2.47,6.994,4.2,11.324,3.4,8.148,4.613,10.892c.749,1.688,1.333,2.965,1.671,3.7a3.555,3.555,0,0,1-.272.308c-.285.266-.619.53-.99.851a34.193,34.193,0,0,1-6.888,4.4,33.026,33.026,0,0,1-11.494,3.152c-4.487.455-9.505.035-14.878-.222a77.513,77.513,0,0,0-7.94-.034,36.167,36.167,0,0,0-7.431,1.124,28.812,28.812,0,0,0-11.18,5.934,27.239,27.239,0,0,0-3.4,3.451,27.928,27.928,0,0,0-2.139,2.94c-.516.853-.9,1.52-1.126,1.992s-.357.709-.357.709.155-.23.453-.665c.191-.3.47-.679.812-1.132a3.225,3.225,0,0,0-.078,1.128,2.754,2.754,0,0,0,.1.5,3.371,3.371,0,0,0,.382-.407,2.8,2.8,0,0,0,.552-1.011,2.944,2.944,0,0,0,.05-1.164c-.013-.092-.027-.174-.044-.247.409-.486.881-1.013,1.419-1.57a4.352,4.352,0,0,0-.218.541,4.694,4.694,0,0,0-.2,1.818,3.329,3.329,0,0,0,1.132-1.531c.008.052.015.107.025.153a2.368,2.368,0,0,0,.168.514s.147-.2.317-.49a4.105,4.105,0,0,0,.472-1.1,4.333,4.333,0,0,0,.082-1.2c-.006-.145-.017-.273-.029-.375.528-.465,1.1-.935,1.715-1.4a8.027,8.027,0,0,0-.849,1.912,7.5,7.5,0,0,0-.273,1.87,21.465,21.465,0,0,0-2.218,2.187c-.241.273-.449.558-.66.822a8.874,8.874,0,0,0-.579.782c-.337.524-.667.981-.91,1.428a10.538,10.538,0,0,0-.935,2.117,5.886,5.886,0,0,0-.2.77,6.348,6.348,0,0,1,.3-.744,11.15,11.15,0,0,1,1.174-1.969c.289-.411.669-.826,1.05-1.3.183-.243.425-.455.648-.7s.453-.5.725-.728a22.474,22.474,0,0,1,3.837-2.872,29.986,29.986,0,0,1,8.028-3.246c-.174.061-.348.12-.524.189a24.445,24.445,0,0,0-3.631,1.811c-.526.34-1.029.654-1.472.994-.224.163-.442.319-.646.478s-.39.321-.573.472c-.369.295-.677.591-.952.845s-.5.482-.684.677c-.361.38-.562.595-.562.595l.667-.488c.21-.159.472-.348.786-.554s.657-.455,1.057-.7c.2-.124.405-.256.619-.392l.685-.4c.468-.285.992-.545,1.525-.839,1.092-.551,2.306-1.109,3.6-1.617a37.617,37.617,0,0,1,6.795-1.927c.442-.094.847-.138,1.2-.2s.66-.094.91-.122l.774-.1-.384-.027c3.109-.143,6.391-.08,9.775.017a104.233,104.233,0,0,0,15.5-.313,36.853,36.853,0,0,0,12.169-3.552,23.742,23.742,0,0,0,6.81-5.061l.862-1.011c.243-.294.421-.569.577-.778l.463-.646s-.189.2-.552.591c-.184.189-.392.442-.675.706l-.973.9a25.112,25.112,0,0,1-7.154,4.256,39.567,39.567,0,0,1-11.975,2.573c-2.308.163-4.761.182-7.309.136s-5.211-.166-7.959-.241c-2.487-.067-4.936-.081-7.328.013a4.455,4.455,0,0,0,1.26-1.694,4.117,4.117,0,0,0,.264-1.113c.4.008.8.017,1.2.031-.042.084-.084.168-.122.258a5.032,5.032,0,0,0-.382,1.849,3.5,3.5,0,0,0,1.285-1.485,2.83,2.83,0,0,0,.174-.589c.182.005.361.013.543.021a1.085,1.085,0,0,0-.074.132,2.052,2.052,0,0,0-.174.975,1.85,1.85,0,0,0,.074.423,3.675,3.675,0,0,0,.392-.287,2.1,2.1,0,0,0,.595-.713,1.684,1.684,0,0,0,.134-.49c.113,0,.226.009.336.015a2.626,2.626,0,0,0,.034.74,2.178,2.178,0,0,0,.856-.7l.688.035a1.792,1.792,0,0,0-.1,1.009,1.522,1.522,0,0,0,.994-.638.883.883,0,0,0,.082-.327q.875.043,1.744.074a1.039,1.039,0,0,0,.26.21,1.992,1.992,0,0,0,.394-.185,58.664,58.664,0,0,0,10.81-.407c.585-.073,1.159-.208,1.724-.308s1.122-.235,1.665-.371a31.67,31.67,0,0,0,8.322-3.487,31.041,31.041,0,0,0,6.183-4.848c.08.117.187.266.316.438.313.423.742.989,1.244,1.568s.992,1.067,1.358,1.416.61.558.61.558a4.616,4.616,0,0,0-.222-.851,5.513,5.513,0,0,0-1.023-1.78,5.659,5.659,0,0,0-1.638-1.269,5.39,5.39,0,0,0-.5-.23l.145-.151c.166-.178.321-.346.468-.5s.283-.3.415-.465c.061-.078.121-.159.174-.239.155.335.241.516.241.516s-.044-.245-.135-.69a2.31,2.31,0,0,0,.229-.534,1.2,1.2,0,0,0-.034-.77,1.138,1.138,0,0,0-.138-.237,1.087,1.087,0,0,1,.113.251,1.113,1.113,0,0,1-.046.74,1.842,1.842,0,0,1-.172.325c-.172-.826-.472-2.17-.925-3.893A98.888,98.888,0,0,0,234.2,214.1a114.565,114.565,0,0,0-5.084-10.915c-.4-.755-.767-1.426-1.086-2.006.812.252,1.625.5,2.441.757.675,1.841,1.673,4.566,2.973,8.091a.27.27,0,0,0-.082.17c0,.128.149.239.256.3,2.994,8.11,7.512,20.279,13.274,35.585-.036.013-.073.029-.107.042A.127.127,0,0,1,246.773,246.113Zm-110.014.424c.118-.135.235-.273.348-.424a7,7,0,0,0,.725-1.229l.822-.132a7.459,7.459,0,0,0-.79,1.447C137.5,246.308,137.129,246.419,136.76,246.537Zm2.036-.61a4.523,4.523,0,0,0,.784-.791,4.341,4.341,0,0,0,.377-.6l1.581-.269a6.581,6.581,0,0,0-.709,1.147c-.118.027-.235.05-.354.078Q139.637,245.691,138.8,245.927Zm3.1-.749a3.571,3.571,0,0,0,1.026-1.155l1.1-.2a4.119,4.119,0,0,0-.706,1.086C142.849,244.994,142.377,245.08,141.9,245.178Zm2.428-.421a2.319,2.319,0,0,0,.518-.388,2.593,2.593,0,0,0,.52-.778q.674-.118,1.333-.22a3.39,3.39,0,0,0-.4.27,3.29,3.29,0,0,0-.809.964C145.1,244.648,144.715,244.7,144.327,244.757Zm7.236-1.39a2.376,2.376,0,0,0,.373-.6c.734-.044,1.453-.067,2.154-.06-.031.031-.063.057-.092.092a3.542,3.542,0,0,0-.774,1.369,2.605,2.605,0,0,0,1.495-.717,2.224,2.224,0,0,0,.43-.715h0a22.092,22.092,0,0,1,3.975.535,4.406,4.406,0,0,0-1.03.812,4.246,4.246,0,0,0-.669.966c-.375-.086-.759-.164-1.149-.235a2.468,2.468,0,0,0,.319-.218,3.674,3.674,0,0,0,.812-.954,4.47,4.47,0,0,0,.281-.531,3.1,3.1,0,0,0-.551.126,3.6,3.6,0,0,0-1.159.608,3.437,3.437,0,0,0-.725.805c-.962-.142-1.958-.245-2.992-.295a41.114,41.114,0,0,0-4.2.021,3.457,3.457,0,0,0,1.156-.727,3.269,3.269,0,0,0,.528-.7c.329-.038.652-.065.975-.1a4.138,4.138,0,0,0-.715,1.382A2.944,2.944,0,0,0,151.563,243.367Zm12.932,3.391a2.937,2.937,0,0,0-.5.921q-.367-.227-.759-.447a2.224,2.224,0,0,0,.457-.361,2.818,2.818,0,0,0,.593-1.01,3.419,3.419,0,0,0,.1-.329q.439.293.834.595A3.116,3.116,0,0,0,164.494,246.759Zm.384.939a2.648,2.648,0,0,0-.237.405c-.08-.054-.157-.109-.239-.163A2.306,2.306,0,0,0,164.879,247.7Zm-.933-2.187a3.493,3.493,0,0,0-.965.7,3.228,3.228,0,0,0-.472.64c-.166-.082-.34-.162-.512-.243a2.352,2.352,0,0,0,.6-.535,2.737,2.737,0,0,0,.5-1.3c.141.075.289.149.426.23.229.13.445.268.66.4C164.112,245.434,164.036,245.467,163.946,245.511Zm-2.122-.029a3.765,3.765,0,0,0-.48.829c-.258-.113-.518-.222-.79-.325a2.489,2.489,0,0,0,1.4-1.776c.283.126.562.254.83.394A4.051,4.051,0,0,0,161.824,245.482Zm-1.113-.828a4.2,4.2,0,0,0-.613,1.172q-.892-.318-1.864-.577a3.789,3.789,0,0,0,.587-.516,4.744,4.744,0,0,0,.784-1.191c.025-.05.046-.1.067-.142.031.008.063.013.092.023a14.985,14.985,0,0,1,1.612.549A4.2,4.2,0,0,0,160.711,244.654Zm-13.216-.237c-.229.013-.455.031-.686.049.036-.025.07-.048.1-.074a3.875,3.875,0,0,0,.815-.942c.059-.094.111-.18.155-.254.166-.025.336-.052.5-.073A5.44,5.44,0,0,0,147.494,244.417Zm18.222,3.78a2.293,2.293,0,0,0,.407-.958,2.621,2.621,0,0,0,.05-.323c.059.052.122.1.179.155a13.676,13.676,0,0,1,1.881,2.21c.1.147.189.293.273.438a1.177,1.177,0,0,0-.233.333,1.448,1.448,0,0,0-.035.958,1.643,1.643,0,0,0,.77-.358c.1.224.2.442.291.646a1.165,1.165,0,0,0-.069.174,1.583,1.583,0,0,0,.08,1,1.981,1.981,0,0,0,.325-.151c.048.2.09.394.13.564.025.109.05.21.071.306s.021.187.031.271c.012.1.021.186.032.264a15.41,15.41,0,0,0-2.434-3.267c-.046-.048-.1-.1-.145-.143a1.2,1.2,0,0,0,.358-.379,1.792,1.792,0,0,0,.036-1.3,2.282,2.282,0,0,0-.887.831,1.753,1.753,0,0,0-.118.262c-.107-.1-.212-.195-.325-.294a1.164,1.164,0,0,0,.317-.281,1.828,1.828,0,0,0,.226-1.3,2.357,2.357,0,0,0-1.007.725,1.723,1.723,0,0,0-.189.319c-.136-.109-.281-.216-.426-.323A1.906,1.906,0,0,0,165.716,248.2Zm-.321-1.037a2.129,2.129,0,0,0,.252-.7c.13.107.254.216.378.321-.073.032-.161.073-.268.132A3.392,3.392,0,0,0,165.395,247.16Zm3.875,3.663c.019.036.039.08.057.117.031.06.056.111.082.169l-.019.026C169.354,251.034,169.31,250.929,169.27,250.823Zm12.075-6.7c.4-.22.8-.434,1.22-.642-.059.216-.117.442-.166.675a13.241,13.241,0,0,0-.289,2.541q-.683.33-1.323.679a6.987,6.987,0,0,0,.443-1.411A7.366,7.366,0,0,0,181.345,244.128Zm2.009.216a7.9,7.9,0,0,0,.166-1.323c.478-.216.969-.425,1.474-.621-.073.174-.145.356-.216.543a21.122,21.122,0,0,0-.658,2.065c-.145.537-.21.88-.21.88a5.8,5.8,0,0,0,.658-.69,6.972,6.972,0,0,0,1.13-1.931,6.7,6.7,0,0,0,.333-1.25l.356-.122c-.056.161-.109.327-.159.5a11.058,11.058,0,0,0-.446,2.8,7.21,7.21,0,0,0,1.384-2.55,6.8,6.8,0,0,0,.218-1.061c.468-.134.944-.262,1.43-.374-.151.3-.3.617-.438.956a11.232,11.232,0,0,0-.652,2.386c0,.023-.008.044-.01.067a33.753,33.753,0,0,0-5.167,1.874A8.178,8.178,0,0,0,183.354,244.344Zm5.936-1.843a14.3,14.3,0,0,0,.5-1.5c.451-.094.91-.18,1.373-.252-.149.287-.3.595-.443.92a17.034,17.034,0,0,0-.855,2.422c-.522.111-1.037.234-1.541.364A14.876,14.876,0,0,0,189.291,242.5Zm2.332-.463a10.282,10.282,0,0,0,.5-1.428c.239-.029.482-.057.725-.084a8.734,8.734,0,0,0-1.063,3.2c-.44.073-.87.159-1.3.245A10.41,10.41,0,0,0,191.623,242.039Zm1.625-.1a15.247,15.247,0,0,0,.5-1.5c.486-.04.977-.071,1.476-.1a11.973,11.973,0,0,0-.744,1.768,10.9,10.9,0,0,0-.323,1.29c-.579.065-1.151.141-1.717.226A14.458,14.458,0,0,0,193.248,241.941Zm2.164.453a5.644,5.644,0,0,0,.247-1.862c0-.074-.006-.143-.009-.208.537-.021,1.08-.034,1.625-.042-.126.239-.254.5-.371.77a10.744,10.744,0,0,0-.673,2.162c-.409.031-.818.063-1.222.1A5.322,5.322,0,0,0,195.412,242.394Zm2.392-.973a6.47,6.47,0,0,0,.369-1.145c.279,0,.558,0,.842,0a6.407,6.407,0,0,0-.826,2.82c-.22.009-.44.015-.658.025-.291.015-.577.04-.864.059A6.9,6.9,0,0,0,197.8,241.421Zm-17.21,3.134a11.446,11.446,0,0,0-.321,1.246,11.63,11.63,0,0,0-.212,1.992q-.817.482-1.556,1a7.962,7.962,0,0,0,.407-1.155,8.728,8.728,0,0,0,.273-2.191C179.638,245.143,180.1,244.845,180.594,244.555Zm-2.149,1.4a13.558,13.558,0,0,0-.461,1.388,5.22,5.22,0,0,0-.1-.979Q178.158,246.155,178.445,245.952Zm-3.174,2.608a3.051,3.051,0,0,0-.2.472c-.013-.092-.025-.176-.04-.248Zm2.353.6c-.013.105-.023.2-.032.3-.065.048-.128.1-.191.147A4.388,4.388,0,0,0,177.625,249.164Zm69.187,1.493a6.985,6.985,0,0,0,.239-.818c.191-.076.359-.143.5-.2,0,.271,0,.524.013.746Zm.786-2.057c-.025.306-.036.6-.042.876-.128.015-.281.036-.445.061a5.752,5.752,0,0,0,.078-.621,6.507,6.507,0,0,0-.056-1.359l.635-.266C247.7,247.686,247.638,248.132,247.6,248.6Zm.262-3.908q-.229-.571-.455-1.134c.049-.08.1-.166.153-.256l.43.585C247.932,244.168,247.892,244.436,247.859,244.692Zm.178-2.382c.052-.126.1-.256.139-.392s.077-.252.107-.377l.224.47c-.073.2-.145.423-.218.656-.071-.1-.142-.206-.216-.308C248.06,242.343,248.048,242.327,248.037,242.31Zm.564,7.567c-.006.049-.01.1-.015.143l-.335.121a6.112,6.112,0,0,0,.32-1.48,6.28,6.28,0,0,0-.1-1.663l.266-.111-.3-.761c-.048-.117-.1-.234-.139-.35a8.264,8.264,0,0,0,.4-.916c.2.289.386.564.547.822-.094.451-.185.941-.271,1.453C248.789,248.208,248.674,249.173,248.6,249.877Zm1.98-1.939a6.512,6.512,0,0,1-.847,1.445c-.08.111-.216.272-.191.249-.017.019-.031.046-.053.057l-.036.017-.019.008-.059.023-.226.08a10.453,10.453,0,0,0,.784-2.549c.011-.069.021-.138.03-.208.021.052.04.1.057.151l.157.4s0-.153-.012-.443a2.691,2.691,0,0,0-.056-.524c-.019-.109-.04-.233-.065-.36a10.582,10.582,0,0,0,.017-1.063c.05.1.1.191.161.3.543,1,.52.9.583,1.241A2.455,2.455,0,0,1,250.582,247.939Z" transform="translate(-81.934 -169.443)" fill="#fff"/>
      <path id="Tracé_323" data-name="Tracé 323" d="M213.256,206.3a43.733,43.733,0,0,1-3.891-2.2c-.734-.466-1.424-.933-2.052-1.371s-1.177-.862-1.634-1.233c-.237-.178-.438-.354-.621-.5s-.34-.281-.469-.392l-.4-.34s.107.159.292.443c.094.143.212.314.36.5s.308.415.508.644a15.273,15.273,0,0,0,1.474,1.535,16.17,16.17,0,0,0,2.063,1.56,14.985,14.985,0,0,0,4.237,1.818,12.319,12.319,0,0,0,1.348.275l.5.069-.465-.218C214.2,206.757,213.773,206.55,213.256,206.3Z" transform="translate(-159.785 -189.066)" fill="#fff"/>
      <path id="Tracé_324" data-name="Tracé 324" d="M335.54,270.183c.791-.636,1.508-1.2,2.04-1.608s.86-.66.86-.66a5.784,5.784,0,0,0-1.112.245,7.369,7.369,0,0,0-2.421,1.281,7.489,7.489,0,0,0-1.782,2.111,6.416,6.416,0,0,0-.493,1.057s.337-.287.862-.742S334.746,270.82,335.54,270.183Z" transform="translate(-241.581 -232.152)" fill="#fff"/>
      <path id="Tracé_325" data-name="Tracé 325" d="M333.376,268.479a4.283,4.283,0,0,0-.3.914l.684-.619c.415-.377.985-.866,1.6-1.392s1.177-1,1.594-1.342l.681-.56a4.135,4.135,0,0,0-.931.145,5.032,5.032,0,0,0-1.992,1.03A5.126,5.126,0,0,0,333.376,268.479Z" transform="translate(-241.867 -230.6)" fill="#fff"/>
      <path id="Tracé_326" data-name="Tracé 326" d="M332.463,276.246c.168-.142.357-.306.575-.472.426-.35.958-.725,1.545-1.132s1.262-.8,1.975-1.189a25.2,25.2,0,0,1,3.78-1.669c.5-.17.912-.3,1.2-.377l.444-.132-.476-.017a9.726,9.726,0,0,0-1.3.059,11.352,11.352,0,0,0-4.145,1.3,11.673,11.673,0,0,0-1.99,1.386,11.257,11.257,0,0,0-1.375,1.428c-.183.214-.329.426-.459.608s-.235.344-.314.478c-.161.271-.248.422-.248.422l.365-.325C332.147,276.511,332.292,276.385,332.463,276.246Z" transform="translate(-240.968 -234.277)" fill="#fff"/>
      <path id="Tracé_327" data-name="Tracé 327" d="M333.13,263.276c.1-.115.214-.245.354-.375a9.495,9.495,0,0,1,.994-.86c.394-.3.841-.595,1.325-.895.964-.6,1.878-1.094,2.533-1.474s1.055-.631,1.055-.631a9.559,9.559,0,0,0-1.26.189,8.931,8.931,0,0,0-2.87,1.105,6.737,6.737,0,0,0-1.344,1.1,5.379,5.379,0,0,0-.826,1.174,3.658,3.658,0,0,0-.224.5,2.5,2.5,0,0,0-.126.39c-.057.22-.078.338-.078.338l.212-.265A3.571,3.571,0,0,1,333.13,263.276Z" transform="translate(-241.602 -226.5)" fill="#fff"/>
      <path id="Tracé_328" data-name="Tracé 328" d="M333.065,254.575c-.057.076-.111.149-.159.212l.086.1a46.957,46.957,0,0,1,5.08-3.47,38.187,38.187,0,0,1,4.162-2.088c.547-.233.994-.415,1.306-.531l.482-.187-.53.044a13.057,13.057,0,0,0-1.436.222,15.141,15.141,0,0,0-4.514,1.723,15.368,15.368,0,0,0-3.018,2.307,14.606,14.606,0,0,0-1.3,1.468c-.073.048-.2.138-.421.3l.084.1C332.952,254.693,333.013,254.63,333.065,254.575Z" transform="translate(-241.689 -219.856)" fill="#fff"/>
      <path id="Tracé_329" data-name="Tracé 329" d="M161.83,236.879a3.057,3.057,0,0,0,.635-1.684,4.456,4.456,0,0,0-1.384,1.063,4.1,4.1,0,0,0-.8,1.5A2.941,2.941,0,0,0,161.83,236.879Z" transform="translate(-131.828 -211.315)" fill="#fff"/>
      <path id="Tracé_330" data-name="Tracé 330" d="M299.482,239.985c.9.883,1.683,1.707,2.235,2.319l.889,1s-.036-.128-.115-.356a8.658,8.658,0,0,0-.39-.945,9.6,9.6,0,0,0-4.784-4.646,8.14,8.14,0,0,0-.973-.375l-.371-.111,1.082.895C297.714,238.324,298.578,239.1,299.482,239.985Z" transform="translate(-218.237 -212.384)" fill="#fff"/>
      <path id="Tracé_331" data-name="Tracé 331" d="M210.891,209.431c-.226-.063-.483-.113-.763-.206s-.583-.17-.9-.291c-.321-.1-.656-.243-1.007-.379A24.1,24.1,0,0,1,206,207.492c-.759-.425-1.461-.872-2.09-1.31a19.568,19.568,0,0,1-1.606-1.285c-.229-.191-.415-.386-.589-.551s-.321-.312-.436-.436l-.373-.384s.09.17.252.474a5.1,5.1,0,0,0,.319.543,7.752,7.752,0,0,0,.474.688,11.364,11.364,0,0,0,1.463,1.606,12.065,12.065,0,0,0,2.158,1.53,11.278,11.278,0,0,0,4.5,1.34c.3.036.568.023.8.031a4.718,4.718,0,0,0,.6-.019l.509-.038-.509-.113C211.315,209.536,211.118,209.5,210.891,209.431Z" transform="translate(-157.7 -191.148)" fill="#fff"/>
      <path id="Tracé_332" data-name="Tracé 332" d="M162.3,237.232a9.558,9.558,0,0,0,1.551-2.942,15.584,15.584,0,0,0-2.329,2.357,14.189,14.189,0,0,0-1.7,2.74A9.1,9.1,0,0,0,162.3,237.232Z" transform="translate(-131.533 -210.738)" fill="#fff"/>
      <path id="Tracé_333" data-name="Tracé 333" d="M196.944,314.386c-.971-.21-2.273-.551-3.69-.992-.705-.226-1.378-.455-1.994-.677s-1.168-.44-1.633-.643-.849-.361-1.109-.486l-.415-.187s.117.113.331.314a10.834,10.834,0,0,0,.958.786,12.468,12.468,0,0,0,1.55.975,13.042,13.042,0,0,0,2.059.856,12.229,12.229,0,0,0,3.931.541,10.64,10.64,0,0,0,1.181-.1l.426-.065-.434-.088C197.829,314.578,197.43,314.492,196.944,314.386Z" transform="translate(-149.544 -259.844)" fill="#fff"/>
      <path id="Tracé_334" data-name="Tracé 334" d="M336.971,342.036a34.364,34.364,0,0,1,2.866-2.132c1.141-.767,2.206-1.388,2.994-1.818.4-.212.717-.384.942-.5l.346-.179-.4.038a8.7,8.7,0,0,0-1.09.2,10.389,10.389,0,0,0-3.363,1.47,10.545,10.545,0,0,0-2.654,2.589,8.93,8.93,0,0,0-.606.956c-.124.235-.193.369-.193.369l.312-.273C336.319,342.581,336.611,342.333,336.971,342.036Z" transform="translate(-243.606 -276.408)" fill="#fff"/>
      <path id="Tracé_335" data-name="Tracé 335" d="M439.744,337.1a12.012,12.012,0,0,0,1.212.294,13.421,13.421,0,0,0,1.506.23,16.178,16.178,0,0,0,1.755.1,17.833,17.833,0,0,0,4.02-.478,18.266,18.266,0,0,0,3.814-1.424,17.8,17.8,0,0,0,1.533-.9c.231-.157.459-.3.667-.453s.4-.31.585-.457a11.745,11.745,0,0,0,.962-.837c.138-.126.264-.247.381-.356l.3-.323.547-.606-.654.5c-.105.08-.22.17-.348.266l-.43.292c-.308.208-.65.453-1.057.681-.2.121-.407.247-.623.375s-.457.241-.7.365c-.472.268-1.013.48-1.558.74a26.129,26.129,0,0,1-3.717,1.212,24.435,24.435,0,0,1-3.822.591l-.864.048c-.279.015-.551,0-.813.008-.53.013-1.017-.027-1.463-.048s-.847-.084-1.2-.114-.658-.084-.9-.128l-.768-.126.744.275A7.629,7.629,0,0,0,439.744,337.1Z" transform="translate(-308.749 -272.884)" fill="#fff"/>
      <path id="Tracé_336" data-name="Tracé 336" d="M456.738,332.341a16.528,16.528,0,0,0,2.486-.348,17.02,17.02,0,0,0,2.946-.941,17.384,17.384,0,0,0,2.73-1.5,16.891,16.891,0,0,0,1.99-1.587c.269-.241.5-.482.694-.688s.365-.392.5-.547l.4-.482-.508.373c-.161.125-.36.27-.6.429s-.5.353-.8.543c-.591.4-1.323.824-2.134,1.279-.82.438-1.732.885-2.705,1.3a32.076,32.076,0,0,1-5.106,1.686c-.667.157-1.212.273-1.59.336l-.587.111.61.04A13.747,13.747,0,0,0,456.738,332.341Z" transform="translate(-319.158 -269.301)" fill="#fff"/>
      <path id="Tracé_337" data-name="Tracé 337" d="M338.653,339.307a16.461,16.461,0,0,1,1.289-1.172c.511-.421.99-.778,1.363-1.029l.617-.407a2.074,2.074,0,0,0-.216-.032,2.818,2.818,0,0,0-.6-.008,3.259,3.259,0,0,0-2.866,2.392,2.735,2.735,0,0,0-.107.6c-.009.143-.008.224-.008.224l.143-.157C338.359,339.615,338.493,339.473,338.653,339.307Z" transform="translate(-245.081 -275.92)" fill="#fff"/>
      <path id="Tracé_338" data-name="Tracé 338" d="M333.017,265.564l.021.025a.019.019,0,0,0,.006-.008l-.021-.023A.006.006,0,0,0,333.017,265.564Z" transform="translate(-241.827 -230.65)" fill="#fff"/>
      <path id="Tracé_339" data-name="Tracé 339" d="M335.583,250.935c.319-.26.717-.541,1.153-.849s.937-.606,1.461-.91a22.927,22.927,0,0,1,2.774-1.361c.369-.147.671-.266.883-.337l.329-.12s-.128-.016-.363-.027a6.309,6.309,0,0,0-.994.021,7.736,7.736,0,0,0-3.143,1,7.816,7.816,0,0,0-2.453,2.252,6.558,6.558,0,0,0-.526.87c-.109.214-.161.337-.161.337l.279-.241C335,251.409,335.258,251.191,335.583,250.935Z" transform="translate(-242.798 -219.036)" fill="#fff"/>
      <path id="Tracé_340" data-name="Tracé 340" d="M340.828,347.064a8.415,8.415,0,0,0-2.239,2.08,7.624,7.624,0,0,0-.516.784c-.109.2-.166.306-.166.306s.4-.285,1.021-.738,1.487-1.025,2.443-1.623,1.826-1.111,2.472-1.472,1.05-.583,1.05-.583-.12,0-.336.015a7.481,7.481,0,0,0-.912.122A8.315,8.315,0,0,0,340.828,347.064Z" transform="translate(-244.941 -281.761)" fill="#fff"/>
      <path id="Tracé_341" data-name="Tracé 341" d="M339.462,357.9a7.193,7.193,0,0,0-1.086,1.55,4.146,4.146,0,0,0-.264.629,5.944,5.944,0,0,1,.4-.553,8.6,8.6,0,0,1,1.307-1.29,35.926,35.926,0,0,1,5.086-3.281,40.309,40.309,0,0,1,5.429-2.428c.715-.252,1.3-.446,1.7-.57l.629-.2-.673.05c-.43.038-1.057.115-1.826.256a20.38,20.38,0,0,0-5.779,2.061A19.409,19.409,0,0,0,339.462,357.9Z" transform="translate(-245.071 -285.545)" fill="#fff"/>
      <path id="Tracé_342" data-name="Tracé 342" d="M339.4,353.248l1.994-1.126,5.053-2.824a13.989,13.989,0,0,0-1.692.388,17.83,17.83,0,0,0-3.875,1.61,18.067,18.067,0,0,0-1.948,1.277,9.185,9.185,0,0,0-1.443,1.3,4.355,4.355,0,0,0-.713,1.1,2.818,2.818,0,0,0-.157.443,3.959,3.959,0,0,1,.285-.363,5.64,5.64,0,0,1,.921-.828A16.355,16.355,0,0,1,339.4,353.248Z" transform="translate(-244.122 -283.977)" fill="#fff"/>
      <path id="Tracé_343" data-name="Tracé 343" d="M308.681,351.7a13.5,13.5,0,0,0-1.727-3.533,13.7,13.7,0,0,0-2.717-2.9,11.956,11.956,0,0,0-.985-.711c-.245-.153-.378-.239-.378-.239s.392.5,1.019,1.3,1.436,1.906,2.283,3.135,1.57,2.357,2.078,3.183.82,1.344.82,1.344l-.084-.428A11.851,11.851,0,0,0,308.681,351.7Z" transform="translate(-222.632 -280.809)" fill="#fff"/>
      <path id="Tracé_344" data-name="Tracé 344" d="M183.594,426.923c-1.866-.03-3.572,0-4.824.019s-2.042.063-2.042.063.768.2,2.017.423a31.019,31.019,0,0,0,4.883.468,30.291,30.291,0,0,0,4.8-.317c1.206-.176,1.933-.35,1.933-.35s-.765-.067-1.99-.132S185.46,426.952,183.594,426.923Z" transform="translate(-142.301 -333.4)" fill="#fff"/>
      <path id="Tracé_345" data-name="Tracé 345" d="M273.27,423.261a25.114,25.114,0,0,0-4.78-.747,24.522,24.522,0,0,0-4.737.2c-.6.086-1.073.172-1.4.243s-.507.109-.507.109l.53.042,1.43.09c1.2.074,2.845.176,4.676.287s3.5.191,4.722.256c.616.035,1.116.061,1.464.082s.543.023.543.023-.186-.061-.516-.174S273.874,423.418,273.27,423.261Z" transform="translate(-196.505 -330.578)" fill="#fff"/>
      <path id="Tracé_346" data-name="Tracé 346" d="M210.816,411.087l-.839-.47a21.394,21.394,0,0,0-5.761-1.99,32.312,32.312,0,0,0-8.966-.392,75.911,75.911,0,0,0-10.681,1.91c-3.711.87-7.2,1.7-10.414,2.147a57.76,57.76,0,0,1-8.552.579c-2.434-.015-4.4-.17-5.745-.31-.673-.074-1.195-.134-1.547-.182l-.539-.069s.186.036.539.111.88.174,1.558.295a51.443,51.443,0,0,0,14.557.367,95.773,95.773,0,0,0,10.551-2.036,90.064,90.064,0,0,1,10.511-2.009,34.118,34.118,0,0,1,8.737.084,26.02,26.02,0,0,1,3.3.746c.474.155.918.3,1.319.451s.766.3,1.088.449.606.287.852.4.444.245.608.333l.5.277s-.168-.111-.487-.317C211.25,411.363,211.057,411.227,210.816,411.087Z" transform="translate(-130.229 -321.419)" fill="#fff"/>
      <path id="Tracé_347" data-name="Tracé 347" d="M250.93,428.847a74.626,74.626,0,0,0-17.2.034c-1.072.128-1.935.251-2.527.346l-.918.147,12.047-.035,8.607,0c2.223,0,3.61.008,3.61.008s-.348-.056-.971-.151S252.044,428.973,250.93,428.847Z" transform="translate(-176.405 -334.329)" fill="#fff"/>
      <path id="Tracé_348" data-name="Tracé 348" d="M288.259,416.766c-.168-.165-.422-.394-.751-.658a11.625,11.625,0,0,0-2.8-1.659,11.347,11.347,0,0,0-3.1-.784c-.4-.04-.729-.057-.954-.057h-.348s.119.053.327.151.514.224.883.386c.742.319,1.738.757,2.845,1.216s2.134.858,2.9,1.168c.384.151.7.278.916.363s.344.134.344.134S288.427,416.933,288.259,416.766Z" transform="translate(-208.261 -324.93)" fill="#fff"/>
      <path id="Tracé_349" data-name="Tracé 349" d="M301.343,397.254a7.637,7.637,0,0,0-.3-.75,11.788,11.788,0,0,0-1.017-1.835,12.567,12.567,0,0,0-1.66-1.942,11.67,11.67,0,0,0-3.848-2.407,9.92,9.92,0,0,0-1.3-.4l-.48-.1.436.252c.141.077.312.17.5.295s.417.243.65.407c.474.3,1.021.69,1.6,1.142s1.189.973,1.8,1.554,1.166,1.17,1.658,1.726.908,1.094,1.237,1.564c.176.23.314.451.446.642s.241.359.325.5l.277.436s-.05-.18-.139-.5A5.343,5.343,0,0,0,301.343,397.254Z" transform="translate(-216.179 -309.778)" fill="#fff"/>
      <path id="Tracé_350" data-name="Tracé 350" d="M281.6,403.836a10.873,10.873,0,0,0-1.325-1.555,13.3,13.3,0,0,0-2.39-1.839,15.973,15.973,0,0,0-3.334-1.508,24.566,24.566,0,0,0-6.383-1.04c-.813-.034-1.468-.038-1.922-.036l-.7.008.7.145c.449.086,1.1.214,1.906.371a52.754,52.754,0,0,1,6.16,1.5,20.01,20.01,0,0,1,5.667,2.79,14.044,14.044,0,0,1,1.508,1.269c.176.159.3.3.386.388s.134.136.134.136-.035-.057-.1-.162S281.742,404.029,281.6,403.836Z" transform="translate(-198.858 -314.9)" fill="#fff"/>
      <path id="Tracé_351" data-name="Tracé 351" d="M306.826,253.531a7.164,7.164,0,0,0-1.071-2.336,7.241,7.241,0,0,0-1.866-1.805,5.939,5.939,0,0,0-.961-.535l2.047,2.921,1.424,1.988c.365.512.6.828.6.828A5.833,5.833,0,0,0,306.826,253.531Z" transform="translate(-222.666 -220.013)" fill="#fff"/>
      <path id="Tracé_352" data-name="Tracé 352" d="M275.731,400.666a7.91,7.91,0,0,0-1.6-2.335,12.328,12.328,0,0,0-1.482-1.264,16.785,16.785,0,0,0-1.893-1.155,28.86,28.86,0,0,0-4.629-1.872A25.433,25.433,0,0,0,261.3,393a17.83,17.83,0,0,0-4.009,0,14.776,14.776,0,0,0-2.617.553l-.918.327s.346-.063.968-.182a18.392,18.392,0,0,1,2.65-.218,21.481,21.481,0,0,1,3.894.346A35.125,35.125,0,0,1,265.92,395a41.746,41.746,0,0,1,4.537,1.682,19.357,19.357,0,0,1,1.87.975,13.247,13.247,0,0,1,1.5,1.061,8.354,8.354,0,0,1,1.77,2.029,5.277,5.277,0,0,1,.36.661l.117.239-.078-.256A5.034,5.034,0,0,0,275.731,400.666Z" transform="translate(-191.349 -311.735)" fill="#fff"/>
      <path id="Tracé_353" data-name="Tracé 353" d="M315.443,394.85a9.525,9.525,0,0,0-1.95-2.245,10.523,10.523,0,0,0-1-.765s.229.426.621,1.075.924,1.51,1.5,2.46a20.665,20.665,0,0,1,1.292,2.449c.138.325.245.595.308.784s.107.294.107.294.019-.113.04-.325a4.676,4.676,0,0,0,.008-.9A6.594,6.594,0,0,0,315.443,394.85Z" transform="translate(-228.759 -311.069)" fill="#fff"/>
      <path id="Tracé_354" data-name="Tracé 354" d="M334.109,400.7a6.531,6.531,0,0,0-2.306,2.778,4.83,4.83,0,0,0-.308,1.054c-.04.254-.048.394-.048.394l.191-.342a7.2,7.2,0,0,1,.585-.86,11.167,11.167,0,0,1,2.47-2.244c1.073-.738,2.118-1.313,2.874-1.751s1.214-.721,1.214-.721a12.757,12.757,0,0,0-1.428.285A9.936,9.936,0,0,0,334.109,400.7Z" transform="translate(-240.827 -315.631)" fill="#fff"/>
      <path id="Tracé_355" data-name="Tracé 355" d="M304.127,271.541l.862,1.13a10.262,10.262,0,0,0-.453-1.4,12.407,12.407,0,0,0-4.338-5.556,10.636,10.636,0,0,0-1.271-.807s.363.447.939,1.159,1.342,1.684,2.17,2.749S303.6,270.841,304.127,271.541Z" transform="translate(-220.118 -230.238)" fill="#fff"/>
      <path id="Tracé_356" data-name="Tracé 356" d="M305.373,276.944a5.152,5.152,0,0,0-.887-.558s.2.34.516.874.726,1.254,1.164,2.042l1.115,2.013c.283.522.465.851.465.851a4.857,4.857,0,0,0-.009-1.025A6.083,6.083,0,0,0,307,278.8,6.171,6.171,0,0,0,305.373,276.944Z" transform="translate(-223.658 -237.546)" fill="#fff"/>
      <path id="Tracé_357" data-name="Tracé 357" d="M119.35,427.907c-3.155.1-6.034.166-8.135.182l-3.418.025.92.145c.592.092,1.449.207,2.508.32a59.33,59.33,0,0,0,8.238.3,58.341,58.341,0,0,0,8.037-.839c1.007-.178,1.816-.34,2.371-.467l.858-.2-3.332.186C125.338,427.671,122.5,427.8,119.35,427.907Z" transform="translate(-98.404 -333.696)" fill="#fff"/>
      <path id="Tracé_358" data-name="Tracé 358" d="M306.319,261.147a3.336,3.336,0,0,0-.765-.363s.157.269.405.69.558.981.9,1.585c.7,1.229,1.256,2.222,1.256,2.222a3.29,3.29,0,0,0,.084-.826,4,4,0,0,0-.5-1.893A4.039,4.039,0,0,0,306.319,261.147Z" transform="translate(-224.338 -227.61)" fill="#fff"/>
      <path id="Tracé_359" data-name="Tracé 359" d="M138.118,404.788l.723-.17-2.812.09a57.047,57.047,0,0,1-6.73-.13,25.418,25.418,0,0,1-6.588-1.4,18.826,18.826,0,0,1-1.925-.831l-.692-.36.159.13c.105.08.252.214.461.363a13.563,13.563,0,0,0,1.822,1.155,16.368,16.368,0,0,0,2.948,1.2,19.1,19.1,0,0,0,3.8.717,26.939,26.939,0,0,0,6.838-.365C136.971,405.04,137.651,404.895,138.118,404.788Z" transform="translate(-106.234 -317.528)" fill="#fff"/>
      <path id="Tracé_360" data-name="Tracé 360" d="M313.474,334.912a117.909,117.909,0,0,0,.409-12.2,92.819,92.819,0,0,0-1.115-12.3c-.5-3.155-1-5.1-1-5.1s-.113,2.007-.216,5.206c-.048,1.562-.1,3.409-.126,5.449a6.358,6.358,0,0,0-1.216-1.464,5.516,5.516,0,0,0-.726-.555s.113.327.321.824a20,20,0,0,0,.883,1.853c.245.447.493.845.721,1.189,0,.283,0,.57,0,.86a12.474,12.474,0,0,0-.891-1.814,12.9,12.9,0,0,0-2.554-3.038,11.3,11.3,0,0,0-.952-.751l-.369-.25.262.357c.17.23.411.564.7.975.581.82,1.334,1.965,2.1,3.24.7,1.164,1.283,2.237,1.713,3.072,0,.494.01.989.019,1.491a12.178,12.178,0,0,0-1.39-3.044,13,13,0,0,0-1.594-1.983,12.321,12.321,0,0,0-1.589-1.344c-.237-.176-.466-.316-.665-.44s-.375-.224-.522-.3c-.294-.149-.457-.234-.457-.234l.369.358c.119.111.262.252.423.421s.348.35.539.568c.4.419.833.948,1.3,1.533s.933,1.263,1.4,1.983a26.061,26.061,0,0,1,2.024,3.845c.075.179.143.342.207.5.012.394.023.784.04,1.17a7.163,7.163,0,0,0-.979-1.9c-.772-1.074-1.579-1.864-2.1-2.482-.264-.3-.472-.558-.608-.736s-.216-.279-.216-.279.023.128.084.358a6.565,6.565,0,0,0,.35.948,17.316,17.316,0,0,0,1.715,2.776,11.665,11.665,0,0,1,1.543,2.734,5.043,5.043,0,0,1,.241.973c.033.245.044.386.044.386s.021-.056.049-.155c.161,2.858.388,5.393.621,7.408.35,3.07.686,4.934.686,4.934S313.216,338.026,313.474,334.912Z" transform="translate(-224.123 -255.969)" fill="#fff"/>
      <path id="Tracé_361" data-name="Tracé 361" d="M209.427,401.264c2.449-.273,4.644-.467,6.231-.587l2.564-.184s-.249-.038-.694-.1-1.1-.138-1.91-.2a34.665,34.665,0,0,0-6.361.113,35.065,35.065,0,0,0-6.292,1.313c-.791.243-1.424.465-1.86.627l-.673.262,2.663-.419C204.73,401.838,206.976,401.535,209.427,401.264Z" transform="translate(-157.395 -316.326)" fill="#fff"/>
    </g>
    <text id="Une_histoire" data-name="Une histoire" transform="translate(43.701 212.844) rotate(-20.396)" fill="#0c212b" font-size="40" font-family="BlackChancery"><tspan x="0" y="0">Une histoire</tspan></text>
  </g>
</svg>
