<svg id="Groupe_11694" data-name="Groupe 11694" xmlns="http://www.w3.org/2000/svg" xmlns:xlink="http://www.w3.org/1999/xlink" width="80.148" height="104.435" viewBox="0 0 80.148 104.435">
  <defs>
    <clipPath id="clip-path">
      <rect id="Rectangle_4025" data-name="Rectangle 4025" width="80.148" height="104.435" fill="none"/>
    </clipPath>
  </defs>
  <path id="Tracé_1162" data-name="Tracé 1162" d="M71.918,42.841,65.731,40.3,53.18,65.407l6.186,2.538Z" transform="translate(-19.089 -14.467)" fill="#bf5a36" fill-rule="evenodd"/>
  <path id="Tracé_1163" data-name="Tracé 1163" d="M95.533,40.768l12.9,26.069,6-2.439-12.9-26.075Z" transform="translate(-34.292 -13.757)" fill="#bf5a36"/>
  <rect id="Rectangle_4020" data-name="Rectangle 4020" width="9.216" height="34.396" transform="translate(47.059 57.774)" fill="#bf5a36"/>
  <g id="Groupe_11693" data-name="Groupe 11693">
    <g id="Groupe_11692" data-name="Groupe 11692" clip-path="url(#clip-path)">
      <path id="Rectangle_4021" data-name="Rectangle 4021" d="M8.126,0h4.587A8.127,8.127,0,0,1,20.84,8.127V31.435a8.126,8.126,0,0,1-8.126,8.126H8.127A8.127,8.127,0,0,1,0,31.434V8.126A8.126,8.126,0,0,1,8.126,0Z" transform="translate(46.831 21.906)" fill="#bf5a36"/>
      <path id="Tracé_1164" data-name="Tracé 1164" d="M94.5,11.508a11.062,11.062,0,0,1-.058,1.128,10.951,10.951,0,0,1-.173,1.117,11.136,11.136,0,0,1-.287,1.1,11.276,11.276,0,0,1-.4,1.063q-.226.522-.5,1.021t-.606.969q-.329.47-.7.907t-.792.837q-.418.4-.874.758t-.947.673q-.491.314-1.012.581t-1.066.483q-.546.216-1.111.38t-1.144.274q-.579.111-1.167.166t-1.178.055q-.59,0-1.178-.055t-1.167-.166q-.579-.11-1.144-.274t-1.111-.38q-.545-.216-1.066-.483T75.8,21.077q-.49-.314-.947-.673t-.874-.758q-.417-.4-.792-.837t-.7-.907a11.357,11.357,0,0,1-1.111-1.99,11.108,11.108,0,0,1-.4-1.063,11.051,11.051,0,0,1,0-6.681,11.108,11.108,0,0,1,.4-1.063,11.357,11.357,0,0,1,1.111-1.99q.328-.47.7-.907t.792-.837q.417-.4.874-.758t.947-.673q.491-.314,1.012-.581T77.876.876Q78.422.659,78.987.5T80.131.221Q80.711.111,81.3.055T82.477,0q.59,0,1.178.055t1.167.166Q85.4.331,85.966.5t1.111.38q.545.216,1.066.483t1.012.581q.491.314.947.673t.874.758q.417.4.792.837t.7.907q.328.47.606.969t.5,1.021a11.276,11.276,0,0,1,.4,1.063,11.136,11.136,0,0,1,.287,1.1,11.008,11.008,0,0,1,.231,2.245" transform="translate(-25.29)" fill="#bf5a36"/>
      <rect id="Rectangle_4022" data-name="Rectangle 4022" width="9.493" height="34.302" transform="translate(57.875 57.953)" fill="#bf5a36"/>
      <path id="Tracé_1165" data-name="Tracé 1165" d="M0,31.373l5.567-3.529L23,50.42l-5.562,3.529Z" transform="translate(0 -9.995)" fill="#f2eb88" fill-rule="evenodd"/>
      <path id="Tracé_1166" data-name="Tracé 1166" d="M66.552,24.721l5.557,3.187L55.269,52.064l-5.562-3.182Z" transform="translate(-17.843 -8.874)" fill="#f2eb88" fill-rule="evenodd"/>
      <rect id="Rectangle_4023" data-name="Rectangle 4023" width="9.216" height="34.396" transform="translate(17.34 69.954)" fill="#f2eb88"/>
      <path id="Tracé_1167" data-name="Tracé 1167" d="M47.531,58.382a5.212,5.212,0,0,0-5.21-5.209H31.9a5.214,5.214,0,0,0-5.215,5.209V87.525A5.214,5.214,0,0,0,31.9,92.734h10.42a5.212,5.212,0,0,0,5.21-5.209Z" transform="translate(-9.579 -19.087)" fill="#f2eb88" fill-rule="evenodd"/>
      <path id="Tracé_1168" data-name="Tracé 1168" d="M48.137,30.508a11.062,11.062,0,0,1-.517,3.34,11.282,11.282,0,0,1-.4,1.063q-.226.522-.5,1.021t-.606.969q-.329.47-.7.907t-.792.837q-.418.4-.874.758t-.947.673q-.491.314-1.012.581t-1.066.483q-.546.216-1.111.38t-1.144.274q-.579.111-1.167.166t-1.178.055q-.59,0-1.178-.055t-1.167-.166q-.579-.11-1.144-.274t-1.111-.38q-.545-.216-1.066-.483t-1.012-.581q-.49-.314-.947-.673t-.874-.758q-.418-.4-.792-.837t-.7-.907a11.356,11.356,0,0,1-1.111-1.99,11.1,11.1,0,0,1-.4-1.063,11.051,11.051,0,0,1,0-6.681,11.1,11.1,0,0,1,.4-1.063,11.356,11.356,0,0,1,1.111-1.99q.328-.47.7-.907t.792-.837q.417-.4.874-.758t.947-.673q.491-.314,1.012-.581t1.066-.483q.546-.216,1.111-.38t1.144-.274q.58-.111,1.167-.166T36.117,19q.59,0,1.178.055t1.167.166q.579.11,1.144.274t1.111.38q.545.216,1.066.483t1.012.581q.491.314.947.673t.874.758q.417.4.792.837t.7.907q.328.47.606.969t.5,1.021a11.281,11.281,0,0,1,.4,1.063,11.036,11.036,0,0,1,.517,3.34" transform="translate(-8.649 -6.82)" fill="#f2eb88"/>
      <rect id="Rectangle_4024" data-name="Rectangle 4024" width="9.493" height="34.302" transform="translate(28.157 70.133)" fill="#f2eb88"/>
    </g>
  </g>
</svg>
