<svg id="Groupe_11700" data-name="Groupe 11700" xmlns="http://www.w3.org/2000/svg" xmlns:xlink="http://www.w3.org/1999/xlink" width="84.509" height="104.435" viewBox="0 0 84.509 104.435">
  <defs>
    <clipPath id="clip-path">
      <rect id="Rectangle_4046" data-name="Rectangle 4046" width="84.509" height="104.435" fill="none"/>
    </clipPath>
  </defs>
  <path id="Tracé_1179" data-name="Tracé 1179" d="M102.113,56.686l-5.047-2.077L86.82,75.1l5.047,2.072Z" transform="translate(-39.908 -25.102)" fill="#112a37" fill-rule="evenodd"/>
  <path id="Tracé_1180" data-name="Tracé 1180" d="M127.835,54.693l10.533,21.285,4.9-1.993L132.732,52.7Z" transform="translate(-58.761 -24.224)" fill="#112a37"/>
  <rect id="Rectangle_4035" data-name="Rectangle 4035" width="7.525" height="28.078" transform="translate(57.5 55.58)" fill="#112a37"/>
  <g id="Groupe_11699" data-name="Groupe 11699">
    <g id="Groupe_11698" data-name="Groupe 11698" clip-path="url(#clip-path)">
      <path id="Rectangle_4036" data-name="Rectangle 4036" d="M7.871,0H9.142a7.872,7.872,0,0,1,7.872,7.872V24.423a7.87,7.87,0,0,1-7.87,7.87H7.872A7.872,7.872,0,0,1,0,24.421V7.871A7.871,7.871,0,0,1,7.871,0Z" transform="translate(57.308 26.303)" fill="#112a37"/>
      <path id="Tracé_1181" data-name="Tracé 1181" d="M123.176,24.976a8.961,8.961,0,0,1-.189,1.833,8.947,8.947,0,0,1-.234.894,9.212,9.212,0,0,1-.736,1.7,9.3,9.3,0,0,1-.495.791q-.268.384-.574.741t-.647.683q-.341.327-.714.619t-.774.55q-.4.256-.826.474t-.87.394q-.446.177-.907.311t-.934.224q-.473.09-.953.135t-.962.045q-.482,0-.962-.045t-.953-.135q-.473-.09-.935-.224t-.907-.311q-.446-.176-.87-.394t-.826-.474q-.4-.257-.774-.55t-.714-.619q-.341-.326-.647-.683T105.2,30.2a9.178,9.178,0,0,1-1.231-2.493,8.951,8.951,0,0,1-.234-.894,8.988,8.988,0,0,1,0-3.666,8.951,8.951,0,0,1,.234-.894,9.239,9.239,0,0,1,1.231-2.493q.268-.384.574-.741t.647-.683q.341-.327.714-.619t.774-.55q.4-.256.826-.474t.87-.394q.446-.177.907-.311t.935-.224q.473-.09.953-.135t.962-.045q.482,0,.962.045t.953.135q.473.09.934.224t.907.311q.445.177.87.394t.826.474q.4.257.774.55t.714.619q.34.327.647.683t.574.741a9.3,9.3,0,0,1,.495.791,9.212,9.212,0,0,1,.736,1.7,8.946,8.946,0,0,1,.234.894,8.961,8.961,0,0,1,.189,1.833" transform="translate(-47.596 -7.162)" fill="#112a37"/>
      <rect id="Rectangle_4037" data-name="Rectangle 4037" width="7.747" height="28.002" transform="translate(66.325 55.726)" fill="#112a37"/>
      <path id="Tracé_1182" data-name="Tracé 1182" d="M15.3,60.064l-5.052-2.072L0,78.483l5.052,2.076Z" transform="translate(0 -26.657)" fill="#112a37" fill-rule="evenodd"/>
      <path id="Tracé_1183" data-name="Tracé 1183" d="M46.681,54.443l-4.822,2.3,10.752,18.53,4.822-2.3Z" transform="translate(-19.241 -25.026)" fill="#112a37" fill-rule="evenodd"/>
      <rect id="Rectangle_4038" data-name="Rectangle 4038" width="7.525" height="28.078" transform="translate(10.588 57.408)" fill="#112a37"/>
      <path id="Rectangle_4039" data-name="Rectangle 4039" d="M7.871,0H9.142a7.872,7.872,0,0,1,7.872,7.872V24.423a7.87,7.87,0,0,1-7.87,7.87H7.872A7.872,7.872,0,0,1,0,24.421V7.871A7.871,7.871,0,0,1,7.871,0Z" transform="translate(10.4 28.127)" fill="#112a37"/>
      <path id="Tracé_1184" data-name="Tracé 1184" d="M36.357,28.359a9.123,9.123,0,0,1-1.16,4.429,9.3,9.3,0,0,1-.495.791q-.268.384-.574.741T33.482,35q-.341.327-.714.619t-.774.55c-.267.171-.542.329-.826.474s-.574.276-.87.394-.6.222-.907.311-.619.164-.934.224-.632.1-.953.135-.64.045-.962.045-.642-.015-.961-.045-.638-.075-.953-.135-.626-.135-.934-.224-.61-.193-.907-.311-.587-.249-.87-.394-.559-.3-.827-.474-.525-.354-.773-.55-.486-.4-.714-.619a9.4,9.4,0,0,1-.647-.683q-.306-.357-.574-.741t-.494-.791a8.977,8.977,0,0,1-.412-.834,9.27,9.27,0,0,1-.325-.868,8.946,8.946,0,0,1-.233-.894,8.955,8.955,0,0,1,0-3.666,8.946,8.946,0,0,1,.233-.894,9.27,9.27,0,0,1,.325-.868,8.977,8.977,0,0,1,.412-.834q.227-.407.494-.791t.574-.741q.306-.357.647-.683c.228-.218.465-.424.714-.619s.506-.378.773-.55.542-.329.827-.474.573-.276.87-.394.6-.222.907-.311.619-.164.934-.224.633-.1.953-.135.64-.045.961-.045.642.015.962.045.638.075.953.135.627.135.934.224.61.193.907.311.587.249.87.394.559.3.826.474.525.354.774.55.486.4.714.619.443.445.647.683.395.485.574.741a9.3,9.3,0,0,1,.495.791,9.212,9.212,0,0,1,.736,1.7,8.949,8.949,0,0,1,.234.894,9.015,9.015,0,0,1,.189,1.833" transform="translate(-7.689 -8.717)" fill="#112a37"/>
      <rect id="Rectangle_4040" data-name="Rectangle 4040" width="7.747" height="28.002" transform="translate(19.417 57.554)" fill="#112a37"/>
      <path id="Tracé_1185" data-name="Tracé 1185" d="M57.434,42.442,52.22,40.3,41.64,61.463,46.855,63.6Z" transform="translate(-19.14 -18.526)" fill="#bf5a36" fill-rule="evenodd"/>
      <path id="Tracé_1186" data-name="Tracé 1186" d="M89.053,38.324l-5.06,2.06L94.869,62.358l5.06-2.055Z" transform="translate(-38.608 -17.616)" fill="#bf5a36" fill-rule="evenodd"/>
      <rect id="Rectangle_4041" data-name="Rectangle 4041" width="7.767" height="28.992" transform="translate(33.43 48.698)" fill="#bf5a36"/>
      <path id="Rectangle_4042" data-name="Rectangle 4042" d="M8.126,0H9.439a8.127,8.127,0,0,1,8.127,8.127V25.22A8.126,8.126,0,0,1,9.44,33.346H8.127A8.127,8.127,0,0,1,0,25.219V8.126A8.126,8.126,0,0,1,8.126,0Z" transform="translate(33.238 18.465)" fill="#bf5a36"/>
      <path id="Tracé_1187" data-name="Tracé 1187" d="M79.18,9.7a9.324,9.324,0,0,1-.436,2.816,9.506,9.506,0,0,1-.335.9q-.19.44-.425.861t-.511.816q-.277.4-.593.765t-.667.705q-.353.337-.737.639t-.8.567q-.414.265-.853.49t-.9.407q-.46.182-.936.32t-.965.231q-.488.093-.983.14t-.993.046q-.5,0-.993-.046t-.984-.14q-.488-.092-.965-.231t-.936-.32q-.46-.182-.9-.407t-.853-.49Q63,17.5,62.62,17.2t-.736-.639q-.353-.336-.668-.705t-.592-.765a9.574,9.574,0,0,1-.936-1.677,9.361,9.361,0,0,1-.335-.9,9.315,9.315,0,0,1,0-5.631,9.36,9.36,0,0,1,.335-.9,9.573,9.573,0,0,1,.936-1.677q.276-.4.592-.765t.668-.705q.352-.337.736-.639t.8-.567q.414-.265.853-.49t.9-.407q.46-.182.936-.32t.965-.231q.489-.093.984-.14T69.048,0q.5,0,.993.046t.983.14q.488.092.965.231t.936.32q.46.182.9.407t.853.49q.414.265.8.567t.737.639q.352.336.667.705t.593.765q.276.4.511.816t.425.861a9.506,9.506,0,0,1,.335.9A9.3,9.3,0,0,1,79.18,9.7" transform="translate(-27.081 0)" fill="#bf5a36"/>
      <rect id="Rectangle_4043" data-name="Rectangle 4043" width="8.002" height="28.913" transform="translate(42.547 48.848)" fill="#bf5a36"/>
      <path id="Tracé_1188" data-name="Tracé 1188" d="M35.341,61.183l4.692-2.975,14.7,19.029-4.689,2.975Z" transform="translate(-16.245 -26.756)" fill="#f2eb88" fill-rule="evenodd"/>
      <path id="Tracé_1189" data-name="Tracé 1189" d="M99.247,55.085l4.684,2.686L89.737,78.133l-4.688-2.682Z" transform="translate(-39.094 -25.321)" fill="#f2eb88" fill-rule="evenodd"/>
      <rect id="Rectangle_4044" data-name="Rectangle 4044" width="7.768" height="28.992" transform="translate(33.712 75.371)" fill="#f2eb88"/>
      <path id="Tracé_1190" data-name="Tracé 1190" d="M79.6,87.928a4.394,4.394,0,0,0-4.391-4.391H66.424a4.394,4.394,0,0,0-4.4,4.391v24.564a4.395,4.395,0,0,0,4.4,4.391h8.783a4.394,4.394,0,0,0,4.391-4.391Z" transform="translate(-28.512 -38.399)" fill="#f2eb88" fill-rule="evenodd"/>
      <path id="Tracé_1191" data-name="Tracé 1191" d="M79.7,59.064a9.325,9.325,0,0,1-.436,2.816,9.509,9.509,0,0,1-.335.9q-.19.44-.425.861t-.511.816q-.277.4-.593.765t-.667.705q-.353.337-.737.639t-.8.567q-.414.265-.853.49t-.9.407q-.46.182-.936.32t-.965.231q-.488.093-.983.14t-.993.046q-.5,0-.993-.046t-.984-.14q-.488-.092-.965-.231t-.936-.32q-.46-.182-.9-.407t-.853-.49q-.413-.265-.8-.567t-.736-.639q-.353-.336-.668-.705t-.592-.765a9.574,9.574,0,0,1-.936-1.677,9.364,9.364,0,0,1-.335-.9,9.315,9.315,0,0,1,0-5.631,9.363,9.363,0,0,1,.335-.9,9.574,9.574,0,0,1,.936-1.677q.276-.4.592-.765t.668-.705q.352-.337.736-.639t.8-.567q.414-.265.853-.49t.9-.407q.46-.182.936-.32t.965-.231q.489-.093.984-.14t.993-.046q.5,0,.993.046t.983.14q.488.092.965.231t.936.32q.46.182.9.407T75.2,51q.414.265.8.567t.737.639q.352.336.667.705t.593.765q.276.4.511.816t.425.861a9.508,9.508,0,0,1,.335.9,9.3,9.3,0,0,1,.436,2.816" transform="translate(-27.321 -22.691)" fill="#f2eb88"/>
      <rect id="Rectangle_4045" data-name="Rectangle 4045" width="8.002" height="28.913" transform="translate(42.829 75.522)" fill="#f2eb88"/>
    </g>
  </g>
</svg>
