<svg id="Groupe_11703" data-name="Groupe 11703" xmlns="http://www.w3.org/2000/svg" xmlns:xlink="http://www.w3.org/1999/xlink" width="80.278" height="104.435" viewBox="0 0 80.278 104.435">
  <defs>
    <clipPath id="clip-path">
      <rect id="Rectangle_4060" data-name="Rectangle 4060" width="80.278" height="104.435" fill="none"/>
    </clipPath>
  </defs>
  <path id="Tracé_1192" data-name="Tracé 1192" d="M103.03,56.559,98.292,54.61,88.673,73.851,93.412,75.8Z" transform="translate(-76.585 -26.869)" fill="#112a37" fill-rule="evenodd"/>
  <path id="Tracé_1193" data-name="Tracé 1193" d="M129.688,54.571l9.889,19.983,4.6-1.871L134.286,52.7Z" transform="translate(-96.794 -25.929)" fill="#112a37"/>
  <rect id="Rectangle_4047" data-name="Rectangle 4047" width="7.065" height="26.36" transform="translate(22.028 52.218)" fill="#112a37"/>
  <g id="Groupe_11702" data-name="Groupe 11702">
    <g id="Groupe_11701" data-name="Groupe 11701" clip-path="url(#clip-path)">
      <path id="Rectangle_4048" data-name="Rectangle 4048" d="M7.871,0H8.1a7.872,7.872,0,0,1,7.872,7.872V22.447a7.87,7.87,0,0,1-7.87,7.87H7.87A7.87,7.87,0,0,1,0,22.447V7.871A7.871,7.871,0,0,1,7.871,0Z" transform="translate(54.742 24.694)" fill="#112a37"/>
      <path id="Tracé_1194" data-name="Tracé 1194" d="M123.828,24.4a8.56,8.56,0,0,1-1.088,4.158,8.73,8.73,0,0,1-.465.742q-.252.361-.539.7t-.607.641q-.32.307-.67.581t-.726.516q-.377.24-.776.445t-.817.37q-.419.166-.852.292t-.877.211q-.444.084-.894.127t-.9.043q-.453,0-.9-.043t-.894-.127q-.444-.084-.878-.211t-.851-.292q-.419-.165-.817-.37t-.776-.445q-.377-.241-.726-.516t-.67-.581A8.828,8.828,0,0,1,107.49,30q-.287-.335-.539-.7a8.616,8.616,0,0,1-1.156-2.34,8.4,8.4,0,0,1-.22-.84,8.438,8.438,0,0,1,0-3.441,8.4,8.4,0,0,1,.22-.84,8.674,8.674,0,0,1,1.156-2.34q.252-.361.539-.7t.607-.641q.32-.307.67-.581t.726-.516q.376-.24.776-.445t.817-.37q.418-.166.851-.292t.878-.211q.444-.084.894-.127t.9-.043q.453,0,.9.043t.894.127q.444.084.877.211t.852.292q.418.166.817.37t.776.445q.377.241.726.516t.67.581q.32.307.607.641t.539.7a8.729,8.729,0,0,1,.465.742,8.648,8.648,0,0,1,.691,1.6,8.4,8.4,0,0,1,.22.84,8.412,8.412,0,0,1,.177,1.721" transform="translate(-51.933 -7.678)" fill="#112a37"/>
      <rect id="Rectangle_4049" data-name="Rectangle 4049" width="7.273" height="26.289" transform="translate(63.207 52.317)" fill="#112a37"/>
      <path id="Tracé_1195" data-name="Tracé 1195" d="M16.215,59.938l-4.743-1.945L1.854,77.23,6.6,79.179Z" transform="translate(-0.913 -28.574)" fill="#112a37" fill-rule="evenodd"/>
      <path id="Tracé_1196" data-name="Tracé 1196" d="M48.24,54.444,43.713,56.6,53.807,74l4.527-2.158Z" transform="translate(-21.538 -26.826)" fill="#112a37" fill-rule="evenodd"/>
      <rect id="Rectangle_4050" data-name="Rectangle 4050" width="7.065" height="26.36" transform="translate(10.881 53.895)" fill="#112a37"/>
      <path id="Rectangle_4051" data-name="Rectangle 4051" d="M7.871,0H8.1a7.872,7.872,0,0,1,7.872,7.872V22.447a7.87,7.87,0,0,1-7.87,7.87H7.872A7.872,7.872,0,0,1,0,22.445V7.871A7.871,7.871,0,0,1,7.871,0Z" transform="translate(10.704 26.406)" fill="#112a37"/>
      <path id="Tracé_1197" data-name="Tracé 1197" d="M37.009,27.784a8.48,8.48,0,0,1-.4,2.561,8.679,8.679,0,0,1-1.156,2.34q-.252.361-.539.7t-.607.642q-.32.307-.67.581t-.726.516q-.377.24-.776.445t-.817.37q-.419.166-.852.292t-.877.21c-.3.057-.594.1-.894.127s-.6.043-.9.043-.6-.014-.9-.043-.6-.07-.894-.127-.588-.126-.878-.21-.572-.181-.851-.292-.551-.234-.817-.37-.525-.285-.776-.445-.493-.333-.726-.516-.457-.377-.67-.581-.416-.418-.607-.642a8.778,8.778,0,0,1-.539-.7,8.753,8.753,0,0,1-.852-1.524q-.173-.4-.3-.815a8.469,8.469,0,0,1,0-5.121,8.744,8.744,0,0,1,1.695-3.035q.287-.335.607-.642t.67-.581q.35-.274.726-.515t.776-.445c.266-.136.538-.259.817-.37s.563-.208.851-.291.581-.154.878-.211.594-.1.894-.127.6-.043.9-.043.6.014.9.043.6.071.894.127.588.127.877.211.573.181.852.291.551.234.817.37.525.285.776.445.493.333.726.515.457.377.67.581.415.419.607.642.371.455.539.7a8.647,8.647,0,0,1,.465.742,8.487,8.487,0,0,1,1.088,4.158" transform="translate(-9.155 -9.344)" fill="#112a37"/>
      <rect id="Rectangle_4052" data-name="Rectangle 4052" width="7.273" height="26.289" transform="translate(19.169 54.032)" fill="#112a37"/>
      <path id="Tracé_1198" data-name="Tracé 1198" d="M58.321,42.312l-4.9-2.008L43.494,60.169l4.9,2.008Z" transform="translate(-21.43 -19.859)" fill="#bf5a36" fill-rule="evenodd"/>
      <path id="Tracé_1199" data-name="Tracé 1199" d="M90.6,38.325l-4.751,1.934L96.057,60.888l4.751-1.93Z" transform="translate(-42.298 -18.884)" fill="#bf5a36" fill-rule="evenodd"/>
      <rect id="Rectangle_4053" data-name="Rectangle 4053" width="7.292" height="27.218" transform="translate(32.325 45.719)" fill="#bf5a36"/>
      <path id="Rectangle_4054" data-name="Rectangle 4054" d="M8.127,0h.237a8.127,8.127,0,0,1,8.127,8.127V23.179a8.126,8.126,0,0,1-8.126,8.126H8.127A8.127,8.127,0,0,1,0,23.178V8.127A8.127,8.127,0,0,1,8.127,0Z" transform="translate(32.145 17.335)" fill="#bf5a36"/>
      <path id="Tracé_1200" data-name="Tracé 1200" d="M79.793,9.108a8.754,8.754,0,0,1-.409,2.643,8.925,8.925,0,0,1-.315.842q-.179.413-.4.808t-.48.766q-.26.372-.556.718t-.626.662q-.331.317-.692.6t-.75.533q-.389.249-.8.46t-.844.382q-.432.171-.879.3t-.905.217q-.458.088-.923.131t-.932.044q-.467,0-.932-.044t-.924-.131q-.458-.087-.905-.217t-.879-.3q-.431-.171-.844-.382t-.8-.46q-.388-.249-.75-.533t-.691-.6q-.331-.316-.627-.662t-.556-.718a8.987,8.987,0,0,1-.879-1.575,8.788,8.788,0,0,1-.315-.842,8.745,8.745,0,0,1,0-5.287,8.788,8.788,0,0,1,.315-.842,8.987,8.987,0,0,1,.879-1.575q.259-.372.556-.718t.627-.662q.33-.317.691-.6T65,1.536q.389-.249.8-.46T66.64.694q.432-.171.879-.3t.905-.217q.459-.088.924-.131T70.281,0q.467,0,.932.044t.923.131q.458.087.905.217t.879.3q.431.171.844.382t.8.46q.389.249.75.533t.692.6q.33.316.626.662t.556.718q.259.372.48.766t.4.808a8.925,8.925,0,0,1,.315.842,8.733,8.733,0,0,1,.409,2.643" transform="translate(-29.942 0)" fill="#bf5a36"/>
      <rect id="Rectangle_4055" data-name="Rectangle 4055" width="7.512" height="27.144" transform="translate(40.884 45.86)" fill="#bf5a36"/>
      <path id="Tracé_1201" data-name="Tracé 1201" d="M0,73.6l4.405-2.793L18.2,88.67l-4.4,2.793Z" transform="translate(0 -34.888)" fill="#f2eb88" fill-rule="evenodd"/>
      <path id="Tracé_1202" data-name="Tracé 1202" d="M63.037,67.682l4.4,2.522L54.109,89.319l-4.4-2.518Z" transform="translate(-24.492 -33.349)" fill="#f2eb88" fill-rule="evenodd"/>
      <rect id="Rectangle_4056" data-name="Rectangle 4056" width="7.293" height="27.218" transform="translate(13.722 77.149)" fill="#f2eb88"/>
      <path id="Tracé_1203" data-name="Tracé 1203" d="M43.181,100.256a4.125,4.125,0,0,0-4.123-4.122H30.813a4.126,4.126,0,0,0-4.127,4.122v23.061a4.126,4.126,0,0,0,4.127,4.122h8.246a4.125,4.125,0,0,0,4.123-4.122Z" transform="translate(-13.149 -47.368)" fill="#f2eb88" fill-rule="evenodd"/>
      <path id="Tracé_1204" data-name="Tracé 1204" d="M43.12,71.068a8.754,8.754,0,0,1-.409,2.643,8.928,8.928,0,0,1-.315.842q-.179.413-.4.808t-.48.766q-.26.372-.556.718t-.626.662q-.331.317-.692.6t-.75.533q-.389.249-.8.46t-.844.382q-.432.171-.879.3T35.464,80q-.458.088-.923.131t-.932.044q-.467,0-.932-.044T31.752,80q-.458-.087-.905-.217t-.879-.3q-.431-.171-.844-.382t-.8-.46q-.388-.249-.75-.533t-.691-.6q-.331-.316-.627-.662t-.556-.718a8.986,8.986,0,0,1-.879-1.575,8.789,8.789,0,0,1-.315-.842,8.745,8.745,0,0,1,0-5.287,8.787,8.787,0,0,1,.315-.842,8.986,8.986,0,0,1,.879-1.575q.259-.372.556-.718t.627-.662q.33-.317.691-.6t.75-.533q.389-.249.8-.46t.844-.382q.432-.171.879-.3t.905-.217q.459-.088.924-.131t.932-.044q.467,0,.932.044t.923.131q.458.087.905.217t.879.3q.431.171.844.382t.8.46q.389.249.75.533t.692.6q.33.316.626.662t.556.718q.259.372.48.766t.4.808a8.926,8.926,0,0,1,.315.842,8.733,8.733,0,0,1,.409,2.643" transform="translate(-11.872 -30.53)" fill="#f2eb88"/>
      <rect id="Rectangle_4057" data-name="Rectangle 4057" width="7.512" height="27.144" transform="translate(22.281 77.291)" fill="#f2eb88"/>
      <path id="Tracé_1205" data-name="Tracé 1205" d="M71.544,70.216l4.405-2.793,13.8,17.865-4.4,2.793Z" transform="translate(-35.252 -33.221)" fill="#f2eb88" fill-rule="evenodd"/>
      <path id="Tracé_1206" data-name="Tracé 1206" d="M134.581,64.3l4.4,2.522L125.653,85.937l-4.4-2.518Z" transform="translate(-59.744 -31.682)" fill="#f2eb88" fill-rule="evenodd"/>
      <rect id="Rectangle_4058" data-name="Rectangle 4058" width="7.293" height="27.218" transform="translate(50.014 75.434)" fill="#f2eb88"/>
      <path id="Tracé_1207" data-name="Tracé 1207" d="M114.725,96.873a4.125,4.125,0,0,0-4.123-4.122h-8.246a4.126,4.126,0,0,0-4.127,4.122v23.061a4.126,4.126,0,0,0,4.127,4.122H110.6a4.125,4.125,0,0,0,4.123-4.122Z" transform="translate(-48.4 -45.701)" fill="#f2eb88" fill-rule="evenodd"/>
      <path id="Tracé_1208" data-name="Tracé 1208" d="M114.665,67.686a8.752,8.752,0,0,1-.046.893c-.03.3-.077.591-.136.884s-.137.582-.227.867a8.928,8.928,0,0,1-.315.842q-.179.413-.4.808t-.48.766q-.26.372-.556.718t-.626.662q-.331.317-.692.6t-.749.533q-.39.249-.8.46t-.844.382c-.288.114-.58.215-.879.3s-.6.159-.905.217-.613.1-.923.131-.62.044-.932.044-.622-.014-.932-.044-.618-.073-.924-.131-.607-.13-.9-.217-.591-.187-.88-.3-.569-.241-.844-.382-.542-.294-.8-.46-.509-.343-.75-.533-.471-.389-.691-.6-.429-.432-.627-.662-.382-.47-.556-.718-.333-.5-.48-.766a8.913,8.913,0,0,1-.4-.808,8.908,8.908,0,0,1-.541-1.709,8.725,8.725,0,0,1,0-3.553,8.908,8.908,0,0,1,.541-1.709,8.912,8.912,0,0,1,.4-.808q.221-.394.48-.766t.556-.718q.3-.345.627-.662t.691-.6q.361-.284.75-.533t.8-.46q.412-.211.844-.382c.289-.114.581-.215.88-.3s.6-.159.9-.217.613-.1.924-.131.621-.044.932-.044.622.014.932.044.618.073.923.131.607.13.905.217.591.187.879.3.569.241.844.382.542.294.8.46.508.343.749.533.471.389.692.6.429.432.626.662.383.47.556.718.333.5.48.766.28.533.4.808a8.927,8.927,0,0,1,.315.842q.135.428.227.867c.06.292.106.587.136.884a8.752,8.752,0,0,1,.046.893" transform="translate(-47.124 -28.863)" fill="#f2eb88"/>
      <rect id="Rectangle_4059" data-name="Rectangle 4059" width="7.512" height="27.144" transform="translate(58.574 75.575)" fill="#f2eb88"/>
    </g>
  </g>
</svg>
