<svg id="Groupe_11697" data-name="Groupe 11697" xmlns="http://www.w3.org/2000/svg" xmlns:xlink="http://www.w3.org/1999/xlink" width="73.846" height="104.435" viewBox="0 0 73.846 104.435">
  <defs>
    <clipPath id="clip-path">
      <rect id="Rectangle_4034" data-name="Rectangle 4034" width="73.846" height="104.435" fill="none"/>
    </clipPath>
  </defs>
  <path id="Tracé_1169" data-name="Tracé 1169" d="M0,63.782l5.569,2.287L16.875,43.457l-5.569-2.291Z" transform="translate(0 -16.622)" fill="#112a37"/>
  <path id="Tracé_1170" data-name="Tracé 1170" d="M46.419,39.256l-5.4,2.2L52.639,64.942l5.408-2.2Z" transform="translate(-16.561 -15.85)" fill="#112a37" fill-rule="evenodd"/>
  <rect id="Rectangle_4026" data-name="Rectangle 4026" width="8.304" height="30.982" transform="translate(11.683 53.314)" fill="#112a37"/>
  <g id="Groupe_11696" data-name="Groupe 11696">
    <g id="Groupe_11695" data-name="Groupe 11695" clip-path="url(#clip-path)">
      <path id="Rectangle_4027" data-name="Rectangle 4027" d="M7.871,0H10.9a7.872,7.872,0,0,1,7.872,7.872V27.763a7.87,7.87,0,0,1-7.87,7.87H7.872A7.872,7.872,0,0,1,0,27.761V7.871A7.871,7.871,0,0,1,7.871,0Z" transform="translate(11.472 21.009)" fill="#112a37"/>
      <path id="Tracé_1171" data-name="Tracé 1171" d="M38.388,12.5a9.889,9.889,0,0,1-.208,2.023,9.876,9.876,0,0,1-.258.987,10.165,10.165,0,0,1-.813,1.878,10.257,10.257,0,0,1-.546.872q-.3.424-.633.817t-.714.754q-.377.36-.788.683t-.854.606q-.443.282-.912.523t-.961.435q-.492.195-1,.343t-1.031.247c-.348.067-.7.116-1.051.149s-.707.05-1.062.05-.708-.017-1.061-.05-.7-.082-1.051-.149-.692-.148-1.031-.247-.673-.213-1-.343-.648-.275-.961-.435-.617-.335-.912-.523-.58-.392-.854-.606-.537-.443-.788-.683a10.376,10.376,0,0,1-.714-.754q-.337-.394-.633-.817a10.257,10.257,0,0,1-.546-.872c-.168-.3-.319-.606-.455-.92a10.224,10.224,0,0,1-.358-.958,9.874,9.874,0,0,1-.258-.987,9.924,9.924,0,0,1,0-4.045,9.906,9.906,0,0,1,.258-.986,10.2,10.2,0,0,1,1.359-2.75q.3-.424.633-.817t.714-.754q.377-.36.788-.683t.854-.606q.442-.283.912-.523t.961-.435q.492-.2,1-.343t1.031-.248q.521-.1,1.051-.149t1.061-.05q.532,0,1.062.05t1.051.149q.522.1,1.031.248t1,.343q.491.195.961.435t.912.523q.443.284.854.606t.788.683q.376.36.714.754t.633.817a10.257,10.257,0,0,1,.546.872A10.165,10.165,0,0,1,37.921,9.5a9.907,9.907,0,0,1,.258.986,10.068,10.068,0,0,1,.156,1.007,9.966,9.966,0,0,1,.052,1.015" transform="translate(-6.754 -0.863)" fill="#112a37"/>
      <rect id="Rectangle_4028" data-name="Rectangle 4028" width="8.548" height="30.899" transform="translate(21.421 53.475)" fill="#112a37"/>
      <path id="Tracé_1172" data-name="Tracé 1172" d="M69.436,42.664,63.682,40.3,52.008,63.652l5.754,2.361Z" transform="translate(-20.999 -16.273)" fill="#bf5a36" fill-rule="evenodd"/>
      <path id="Tracé_1173" data-name="Tracé 1173" d="M99.944,38.324,94.361,40.6l12,24.247,5.584-2.268Z" transform="translate(-38.099 -15.474)" fill="#bf5a36" fill-rule="evenodd"/>
      <rect id="Rectangle_4029" data-name="Rectangle 4029" width="8.571" height="31.992" transform="translate(43.07 53.736)" fill="#bf5a36"/>
      <path id="Rectangle_4030" data-name="Rectangle 4030" d="M8.126,0h3.13a8.127,8.127,0,0,1,8.127,8.127V28.669A8.126,8.126,0,0,1,11.257,36.8H8.127A8.127,8.127,0,0,1,0,28.668V8.126A8.126,8.126,0,0,1,8.126,0Z" transform="translate(42.858 20.375)" fill="#bf5a36"/>
      <path id="Tracé_1174" data-name="Tracé 1174" d="M91.645,10.7a10.289,10.289,0,0,1-.481,3.107,10.494,10.494,0,0,1-.37.989q-.21.486-.469.95t-.564.9q-.306.437-.654.844t-.736.778q-.389.372-.813.705t-.881.626q-.457.292-.941.54t-.992.449q-.508.2-1.033.354t-1.064.255q-.538.1-1.085.154t-1.1.051q-.549,0-1.1-.051T78.283,21.2q-.538-.1-1.064-.255t-1.033-.354q-.507-.2-.992-.449t-.941-.54q-.456-.292-.881-.626t-.813-.705q-.389-.371-.737-.778t-.653-.844A10.562,10.562,0,0,1,70.134,14.8a10.326,10.326,0,0,1-.37-.989,10.278,10.278,0,0,1,0-6.214,10.326,10.326,0,0,1,.37-.989,10.562,10.562,0,0,1,1.033-1.851q.3-.437.653-.844t.737-.778q.388-.372.813-.705t.881-.626q.457-.292.941-.54t.992-.449q.508-.2,1.033-.354T78.283.206q.539-.1,1.086-.154T80.464,0q.549,0,1.1.051t1.085.154q.538.1,1.064.255t1.033.354q.507.2.992.449t.941.54q.457.292.881.626t.813.705q.388.371.736.778t.654.844q.3.437.564.9t.469.95a10.494,10.494,0,0,1,.37.989,10.264,10.264,0,0,1,.481,3.107" transform="translate(-27.974)" fill="#bf5a36"/>
      <rect id="Rectangle_4031" data-name="Rectangle 4031" width="8.83" height="31.904" transform="translate(53.131 53.901)" fill="#bf5a36"/>
      <path id="Tracé_1175" data-name="Tracé 1175" d="M18.447,43.371l5.178-3.282,16.216,21-5.174,3.282Z" transform="translate(-7.448 -16.186)" fill="#f2eb88" fill-rule="evenodd"/>
      <path id="Tracé_1176" data-name="Tracé 1176" d="M83.821,36.965l5.169,2.964L73.327,62.4l-5.173-2.959Z" transform="translate(-27.518 -14.925)" fill="#f2eb88" fill-rule="evenodd"/>
      <rect id="Rectangle_4032" data-name="Rectangle 4032" width="8.571" height="31.992" transform="translate(27.127 72.364)" fill="#f2eb88"/>
      <path id="Tracé_1177" data-name="Tracé 1177" d="M64.521,70.262a4.848,4.848,0,0,0-4.846-4.845H49.983a4.849,4.849,0,0,0-4.85,4.845V97.367a4.849,4.849,0,0,0,4.85,4.845h9.692a4.848,4.848,0,0,0,4.846-4.845Z" transform="translate(-18.223 -26.413)" fill="#f2eb88" fill-rule="evenodd"/>
      <path id="Tracé_1178" data-name="Tracé 1178" d="M64.9,41.948a10.289,10.289,0,0,1-.481,3.107,10.49,10.49,0,0,1-.37.989q-.21.486-.469.95t-.564.9q-.306.437-.654.844t-.736.778q-.389.372-.813.705t-.881.626q-.457.292-.941.54T58,51.837q-.508.2-1.033.354t-1.064.255q-.538.1-1.085.154t-1.1.051q-.549,0-1.1-.051t-1.086-.154q-.538-.1-1.064-.255t-1.033-.354q-.507-.2-.992-.449t-.941-.54q-.456-.292-.881-.626t-.813-.705q-.389-.371-.737-.778t-.653-.844a10.562,10.562,0,0,1-1.033-1.851,10.326,10.326,0,0,1-.37-.989,10.278,10.278,0,0,1,0-6.214,10.326,10.326,0,0,1,.37-.989A10.562,10.562,0,0,1,44.427,36q.3-.437.653-.844t.737-.778q.388-.372.813-.705t.881-.626q.457-.292.941-.54t.992-.449q.508-.2,1.033-.354t1.064-.255q.539-.1,1.086-.154t1.1-.051q.549,0,1.1.051t1.085.154q.538.1,1.064.255T58,32.058q.507.2.992.449t.941.54q.457.292.881.626t.813.705q.388.371.736.778T63.02,36q.3.437.564.9t.469.95a10.49,10.49,0,0,1,.37.989,10.263,10.263,0,0,1,.481,3.107" transform="translate(-17.177 -12.615)" fill="#f2eb88"/>
      <rect id="Rectangle_4033" data-name="Rectangle 4033" width="8.83" height="31.904" transform="translate(37.187 72.531)" fill="#f2eb88"/>
    </g>
  </g>
</svg>
