<svg xmlns="http://www.w3.org/2000/svg" xmlns:xlink="http://www.w3.org/1999/xlink" width="70.034" height="70" viewBox="0 0 70.034 70">
  <defs>
    <clipPath id="clip-path">
      <rect id="Rectangle_4078" data-name="Rectangle 4078" width="70.034" height="70" fill="none"/>
    </clipPath>
  </defs>
  <g id="Groupe_11709" data-name="Groupe 11709" transform="translate(0 32)">
    <g id="Groupe_11708" data-name="Groupe 11708" transform="translate(0 -32)" clip-path="url(#clip-path)">
      <path id="Tracé_1229" data-name="Tracé 1229" d="M94.918,5.478c0-1.024.006-2.048,0-3.072C94.9.483,92.663-.875,91.174.669,89.868,2.025,90.536,5.5,90.541,7.2s.372,4.452,2.87,3.623c2.1-.7,1.506-3.664,1.506-5.349m27.344,27.34c-1.024,0-2.049-.006-3.073,0-1.923.015-3.281,2.253-1.737,3.742,1.355,1.306,4.834.638,6.536.633s4.453-.372,3.623-2.87c-.7-2.095-3.664-1.506-5.35-1.506m-45.9-16.674a8.436,8.436,0,0,0-.687-1.257A26.407,26.407,0,0,0,73.018,12.2a11.688,11.688,0,0,0-2.447-2.3,2.2,2.2,0,0,0-3.02,2.854,12.25,12.25,0,0,0,2.5,2.667,25.237,25.237,0,0,0,2.79,2.727c1.694,1.225,3.435-.119,3.518-2m35.23,35.229a2.277,2.277,0,0,0-2.27,1.285c-.953,2.109,1.972,4.011,3.243,5.276,1.145,1.14,2.671,3.268,4.507,2.126,2.088-1.3.545-3.254-.638-4.456a21.044,21.044,0,0,0-4.842-4.23M71.17,59.051a5.417,5.417,0,0,0,1.287-.742c1.013-.961,2-1.945,2.986-2.936A7.829,7.829,0,0,0,77.5,52.982a2.147,2.147,0,0,0-2.991-2.615,11.065,11.065,0,0,0-2.591,2.384,26.357,26.357,0,0,0-2.6,2.618c-1.281,1.72-.188,3.541,1.85,3.682M112.6,17.664a5.184,5.184,0,0,0,1.238-.725c1.012-.962,2-1.946,2.986-2.938a7.807,7.807,0,0,0,2.039-2.37A2.142,2.142,0,0,0,115.882,9a11.432,11.432,0,0,0-2.7,2.489,25.438,25.438,0,0,0-2.5,2.523c-1.287,1.727-.156,3.6,1.914,3.649" transform="translate(-57.731 0)" fill="#f2eb88"/>
      <path id="Tracé_1230" data-name="Tracé 1230" d="M0,231.3c.966-2.261,3.717-1.617,5.687-1.624,1.772-.006,5.246-.546,5.246,2.171s-3.476,2.176-5.246,2.171C3.725,234.016.965,234.655,0,232.4Z" transform="translate(0 -196.846)" fill="#f2eb88"/>
      <path id="Tracé_1231" data-name="Tracé 1231" d="M231.267,424.986c-2.262-.966-1.617-3.717-1.624-5.686-.006-1.772-.547-5.245,2.171-5.245s2.176,3.476,2.171,5.245c-.006,1.962.634,4.721-1.624,5.686Z" transform="translate(-196.813 -354.986)" fill="#f2eb88"/>
      <path id="Tracé_1232" data-name="Tracé 1232" d="M146.694,127.23a19.689,19.689,0,1,1-19.519-19.856,19.7,19.7,0,0,1,19.519,19.856M127,142.366A15.306,15.306,0,1,0,111.7,127.057,15.346,15.346,0,0,0,127,142.366" transform="translate(-92.005 -92.055)" fill="#f2eb88"/>
      <path id="Tracé_1233" data-name="Tracé 1233" d="M233.315,5.477c0,1.685.589,4.653-1.506,5.349-2.5.83-2.866-1.911-2.871-3.623s-.673-5.18.633-6.535c1.489-1.545,3.727-.186,3.742,1.737.008,1.024,0,2.048,0,3.072" transform="translate(-196.128 0.001)" fill="#f2eb88"/>
      <path id="Tracé_1234" data-name="Tracé 1234" d="M419.416,229.588c1.685,0,4.653-.589,5.35,1.506.83,2.5-1.911,2.865-3.623,2.87s-5.181.673-6.536-.633c-1.545-1.489-.186-3.726,1.737-3.742,1.024-.008,2.049,0,3.073,0" transform="translate(-354.884 -196.77)" fill="#f2eb88"/>
      <path id="Tracé_1235" data-name="Tracé 1235" d="M76.359,74.164c-.083,1.883-1.824,3.227-3.518,2a25.249,25.249,0,0,1-2.791-2.727,12.249,12.249,0,0,1-2.5-2.667,2.2,2.2,0,0,1,3.02-2.854,11.688,11.688,0,0,1,2.447,2.3,26.392,26.392,0,0,1,2.653,2.692,8.44,8.44,0,0,1,.687,1.257" transform="translate(-57.73 -58.019)" fill="#f2eb88"/>
      <path id="Tracé_1236" data-name="Tracé 1236" d="M362.763,360.108a21.042,21.042,0,0,1,4.842,4.23c1.183,1.2,2.726,3.157.638,4.456-1.836,1.142-3.362-.986-4.507-2.126-1.271-1.265-4.2-3.167-3.243-5.276a2.277,2.277,0,0,1,2.27-1.285" transform="translate(-308.904 -308.735)" fill="#f2eb88"/>
      <path id="Tracé_1237" data-name="Tracé 1237" d="M79.784,360.444c-2.038-.141-3.131-1.961-1.85-3.682a26.343,26.343,0,0,1,2.6-2.618,11.064,11.064,0,0,1,2.591-2.384,2.147,2.147,0,0,1,2.991,2.614,7.828,7.828,0,0,1-2.056,2.391c-.983.991-1.973,1.975-2.986,2.936a5.419,5.419,0,0,1-1.287.742" transform="translate(-66.344 -301.393)" fill="#f2eb88"/>
      <path id="Tracé_1238" data-name="Tracé 1238" d="M369.81,70.482c-2.07-.051-3.2-1.922-1.914-3.649a25.433,25.433,0,0,1,2.5-2.523,11.432,11.432,0,0,1,2.7-2.489,2.142,2.142,0,0,1,2.978,2.628,7.807,7.807,0,0,1-2.039,2.37c-.983.991-1.974,1.976-2.986,2.938a5.184,5.184,0,0,1-1.238.725" transform="translate(-314.944 -52.818)" fill="#f2eb88"/>
    </g>
  </g>
</svg>
