<svg id="Groupe_11720" data-name="Groupe 11720" xmlns="http://www.w3.org/2000/svg" xmlns:xlink="http://www.w3.org/1999/xlink" width="21.296" height="27.687" viewBox="0 0 21.296 27.687">
  <defs>
    <clipPath id="clip-path">
      <path id="Tracé_1245" data-name="Tracé 1245" d="M0,19.261H21.3V-8.426H0Z" transform="translate(0 8.426)" fill="#f28f38"/>
    </clipPath>
  </defs>
  <g id="Groupe_11719" data-name="Groupe 11719" clip-path="url(#clip-path)">
    <g id="Groupe_11717" data-name="Groupe 11717" transform="translate(5.546 4.48)">
      <path id="Tracé_1243" data-name="Tracé 1243" d="M7.015,2.629c-.01-.066-.02-.131-.033-.2-.013-.049-.026-.1-.039-.141l-.049-.158A.935.935,0,0,0,6.858,2a1.746,1.746,0,0,0-.076-.181l-.059-.148A.576.576,0,0,0,6.687,1.6c-.039-.085-.085-.168-.131-.25L6.5,1.255c-.01-.02-.016-.036-.026-.053-.062-.1-.128-.194-.2-.286C6.266.9,6.253.881,6.24.861c-.1-.128-.181-.223-.266-.322L5.938.5A3.885,3.885,0,0,0,5.629.194L5.6.164A5.373,5.373,0,0,0,2.057-1.147L2-1.15c-2.793,0-5.07,2.011-5.07,4.482S-.8,7.811,2,7.814l.062,0A5.39,5.39,0,0,0,5.612,6.483a4.256,4.256,0,0,0,.322-.315c.016-.016.03-.033.043-.046.082-.092.168-.194.246-.3.03-.043.043-.059.056-.079.069-.1.135-.191.2-.289L6.5,5.412l.036-.072L6.562,5.3c.043-.076.089-.151.125-.23a.8.8,0,0,0,.033-.079l.062-.151a1.746,1.746,0,0,0,.076-.181.935.935,0,0,0,.036-.128l.049-.161.039-.138c.013-.066.023-.131.033-.2l.026-.158a.709.709,0,0,0,.016-.089,4.257,4.257,0,0,0,.026-.457,4.208,4.208,0,0,0-.026-.457.764.764,0,0,0-.016-.092Z" transform="translate(3.069 1.15)" fill="#f28f38"/>
    </g>
    <g id="Groupe_11718" data-name="Groupe 11718" transform="translate(-0.001 -0.002)">
      <path id="Tracé_1244" data-name="Tracé 1244" d="M13.56,10.316c.053-.072.105-.151.181-.25a.221.221,0,0,0,.023-.036c.138-.227.345-.549.352-.568a9.014,9.014,0,0,0,1.249-4.577c0-.174,0-.342-.013-.513,0-.072-.01-.148-.013-.217l-.013-.148-.01-.138c-.007-.059-.013-.118-.023-.177l-.016-.131c-.007-.062-.013-.125-.023-.184s-.016-.1-.026-.148L15.2,3.1c-.01-.069-.02-.141-.036-.21s-.026-.108-.036-.168l-.036-.148c-.01-.053-.023-.105-.036-.154-.02-.072-.043-.145-.062-.22l-.036-.122c-.01-.039-.02-.076-.033-.118-.026-.079-.056-.158-.082-.233l-.033-.1c-.013-.039-.026-.079-.039-.112-.03-.079-.062-.154-.092-.233l-.043-.1c-.013-.036-.03-.072-.043-.105C14.555,1,14.516.915,14.476.83L14.43.738a.534.534,0,0,0-.036-.076c-.056-.115-.118-.223-.177-.332L14.174.251c-.066-.108-.131-.214-.21-.342l-.033-.053c-.072-.112-.151-.22-.24-.345a.346.346,0,0,0-.023-.036c-.082-.112-.168-.217-.26-.332,0,0-.02-.03-.023-.033-.1-.112-.191-.223-.283-.325L13.08-1.24c-.1-.112-.207-.22-.322-.335s-.223-.214-.342-.319h0a11.386,11.386,0,0,0-7.7-2.619c-6.269,0-10.649,3.864-10.649,9.4A9.159,9.159,0,0,0-4.5,9.771l.161.263c.007.01.013.016.02.026l.266.365c.03.039.059.079.076.1l6.812,10.1H2.828l1.58,2.346a.489.489,0,0,0,.4.2h0a.478.478,0,0,0,.4-.207l1.541-2.34h0L13.4,10.536c.059-.076.105-.148.158-.22M10.681,4.99c-.007.053-.013.1-.023.148l-.023.125c-.013.085-.026.174-.046.256-.013.062-.033.128-.053.191l-.039.138c-.016.059-.033.118-.053.177-.03.079-.062.158-.1.233l-.053.125a1.082,1.082,0,0,1-.056.128c-.043.1-.1.191-.151.283l-.046.085c-.016.03-.033.062-.053.1a3.961,3.961,0,0,1-.237.342.843.843,0,0,1-.062.092c-.092.122-.194.24-.3.355-.02.023-.03.036-.043.049-.112.122-.237.243-.368.361A6.431,6.431,0,0,1,4.75,9.764H4.691c-3.319,0-6.02-2.386-6.02-5.313s2.7-5.313,6.02-5.313h.062A6.407,6.407,0,0,1,8.969.712l.023.023c.135.122.253.237.358.352a.491.491,0,0,1,.039.046c.108.122.21.237.3.361.016.02.033.043.049.066.1.135.177.25.25.368.02.033.036.066.053.1l.023.039c.069.122.128.223.174.325.023.043.039.089.059.131l.049.122c.033.076.066.154.1.233.02.056.036.118.053.181l.039.131c.02.066.039.128.056.2s.03.164.043.25l.023.125a1.247,1.247,0,0,1,.023.148,4.951,4.951,0,0,1,.03.542,4.891,4.891,0,0,1-.03.539" transform="translate(5.932 4.513)" fill="#f28f38"/>
    </g>
  </g>
</svg>
