<svg id="Groupe_11725" data-name="Groupe 11725" xmlns="http://www.w3.org/2000/svg" xmlns:xlink="http://www.w3.org/1999/xlink" width="27.01" height="27.291" viewBox="0 0 27.01 27.291">
  <defs>
    <clipPath id="clip-path">
      <path id="Tracé_1249" data-name="Tracé 1249" d="M0,19.622H27.01V-7.669H0Z" transform="translate(0 7.669)" fill="#f28f38"/>
    </clipPath>
  </defs>
  <g id="Groupe_11724" data-name="Groupe 11724" clip-path="url(#clip-path)">
    <g id="Groupe_11721" data-name="Groupe 11721" transform="translate(0 3.314)">
      <path id="Tracé_1246" data-name="Tracé 1246" d="M6.123,6.115,6.945,5.2A3.755,3.755,0,0,0,7.92,2.471,3.759,3.759,0,0,0,6.678-.152L5.29-1.408A3.782,3.782,0,0,0,2.75-2.39,3.8,3.8,0,0,0-.062-1.141L-.884-.23a3.7,3.7,0,0,0-.3.384L-1.225.2A4.627,4.627,0,0,0-2.282,4.464,21.257,21.257,0,0,0,16.6,21.559a5.3,5.3,0,0,0,3.256-.68,3.844,3.844,0,0,0,.925-.747l.826-.907a3.8,3.8,0,0,0-.27-5.356l-1.391-1.26a3.763,3.763,0,0,0-2.537-.979A3.806,3.806,0,0,0,14.6,12.876l-.822.911a3.807,3.807,0,0,0-.783,1.334l-.071.221-.217-.085A15.966,15.966,0,0,1,4.273,7.514l-.114-.238L4.408,7.2A3.8,3.8,0,0,0,6.123,6.115" transform="translate(2.393 2.39)" fill="#f28f38"/>
    </g>
    <g id="Groupe_11722" data-name="Groupe 11722" transform="translate(13.14 0)">
      <path id="Tracé_1247" data-name="Tracé 1247" d="M0,.635a.88.88,0,0,0,.883.883A11.244,11.244,0,0,1,12.106,12.752a.883.883,0,0,0,1.765,0A13.009,13.009,0,0,0,.883-.248.882.882,0,0,0,0,.635" transform="translate(0 0.248)" fill="#f28f38"/>
    </g>
    <g id="Groupe_11723" data-name="Groupe 11723" transform="translate(12.997 4.323)">
      <path id="Tracé_1248" data-name="Tracé 1248" d="M0,.635a.883.883,0,0,0,.883.886A7.056,7.056,0,0,1,7.929,8.57a.883.883,0,1,0,1.765,0A8.826,8.826,0,0,0,.883-.248.882.882,0,0,0,0,.635" transform="translate(0 0.248)" fill="#f28f38"/>
    </g>
  </g>
</svg>
