<svg id="Groupe_11731" data-name="Groupe 11731" xmlns="http://www.w3.org/2000/svg" xmlns:xlink="http://www.w3.org/1999/xlink" width="27.01" height="19.345" viewBox="0 0 27.01 19.345">
  <defs>
    <clipPath id="clip-path">
      <path id="Tracé_1254" data-name="Tracé 1254" d="M0,13.863H27.01V-5.482H0Z" transform="translate(0 5.482)" fill="#f28f38"/>
    </clipPath>
  </defs>
  <g id="Groupe_11730" data-name="Groupe 11730" clip-path="url(#clip-path)">
    <g id="Groupe_11726" data-name="Groupe 11726" transform="translate(-0.001 2.737)">
      <path id="Tracé_1250" data-name="Tracé 1250" d="M.038,10.783,11.867,3.274-.015-4.264V10.324a2.175,2.175,0,0,0,.053.459" transform="translate(0.015 4.264)" fill="#f28f38"/>
    </g>
    <g id="Groupe_11727" data-name="Groupe 11727" transform="translate(0.251 10.609)">
      <path id="Tracé_1251" data-name="Tracé 1251" d="M8.707,0-3.443,7.711a1.846,1.846,0,0,0,1.62,1.023H21.443a1.871,1.871,0,0,0,1.7-1.179L11.241,0,9.974.8Z" transform="translate(3.443)" fill="#f28f38"/>
    </g>
    <g id="Groupe_11728" data-name="Groupe 11728" transform="translate(15.457 2.946)">
      <path id="Tracé_1252" data-name="Tracé 1252" d="M8.277,10.305V-4.075L-3.273,3.254,8.252,10.573a2.227,2.227,0,0,0,.025-.268" transform="translate(3.273 4.075)" fill="#f28f38"/>
    </g>
    <g id="Groupe_11729" data-name="Groupe 11729" transform="translate(0.001 -0.001)">
      <path id="Tracé_1253" data-name="Tracé 1253" d="M1.34,0A1.944,1.944,0,0,0-.53,2.011v.064l13.667,8.674L26.476,2.28V2.011A1.944,1.944,0,0,0,24.606,0Z" transform="translate(0.53)" fill="#f28f38"/>
    </g>
  </g>
</svg>
