<svg id="Groupe_11660" data-name="Groupe 11660" xmlns="http://www.w3.org/2000/svg" xmlns:xlink="http://www.w3.org/1999/xlink" width="182.994" height="114.437" viewBox="0 0 182.994 114.437">
  <defs>
    <clipPath id="clip-path">
      <rect id="Rectangle_4000" data-name="Rectangle 4000" width="182.994" height="114.437" fill="none"/>
    </clipPath>
  </defs>
  <path id="Tracé_1128" data-name="Tracé 1128" d="M64.113,45.693l-6.865-2.832L43.313,70.819l6.865,2.827Z" transform="translate(-12.858 -12.723)" fill="#112a37" fill-rule="evenodd"/>
  <path id="Tracé_1129" data-name="Tracé 1129" d="M208.293,47.657l-6.865-2.827L187.493,72.783l6.865,2.827Z" transform="translate(-55.658 -13.308)" fill="#112a37" fill-rule="evenodd"/>
  <path id="Tracé_1130" data-name="Tracé 1130" d="M92.842,40.859l-6.66,2.718,14.327,29.036,6.667-2.718Z" transform="translate(-25.583 -12.129)" fill="#112a37" fill-rule="evenodd"/>
  <path id="Tracé_1131" data-name="Tracé 1131" d="M230.361,45.538l14.327,29.036,6.667-2.719L237.022,42.82Z" transform="translate(-68.384 -12.711)" fill="#112a37"/>
  <rect id="Rectangle_3988" data-name="Rectangle 3988" width="10.235" height="38.303" transform="translate(44.857 65.704)" fill="#112a37"/>
  <rect id="Rectangle_3989" data-name="Rectangle 3989" width="10.235" height="38.303" transform="translate(146.236 67.089)" fill="#112a37"/>
  <g id="Groupe_11659" data-name="Groupe 11659">
    <g id="Groupe_11658" data-name="Groupe 11658" clip-path="url(#clip-path)">
      <path id="Tracé_1132" data-name="Tracé 1132" d="M86.563,42.446a5.8,5.8,0,0,0-5.785-5.8H69.207a5.8,5.8,0,0,0-5.785,5.8V74.9a5.8,5.8,0,0,0,5.785,5.8h11.57a5.8,5.8,0,0,0,5.785-5.8Z" transform="translate(-18.827 -10.878)" fill="#112a37" fill-rule="evenodd"/>
      <path id="Tracé_1133" data-name="Tracé 1133" d="M230.743,44.407a5.8,5.8,0,0,0-5.785-5.8h-11.57a5.8,5.8,0,0,0-5.785,5.8v32.45a5.8,5.8,0,0,0,5.785,5.8h11.57a5.8,5.8,0,0,0,5.785-5.8Z" transform="translate(-61.627 -11.46)" fill="#112a37" fill-rule="evenodd"/>
      <path id="Tracé_1134" data-name="Tracé 1134" d="M87.494,14.764a12.419,12.419,0,0,1-1.016,4.9,12.636,12.636,0,0,1-1.234,2.216q-.364.523-.78,1.01t-.88.932q-.463.445-.97.844t-1.053.75q-.545.35-1.124.647t-1.184.537q-.605.242-1.233.424t-1.271.306q-.643.122-1.3.184t-1.309.062q-.656,0-1.309-.062t-1.3-.184q-.643-.123-1.271-.306T69.036,26.6q-.605-.24-1.184-.537t-1.124-.647q-.545-.35-1.052-.75t-.971-.844q-.464-.445-.88-.932t-.78-1.01q-.364-.523-.674-1.079a12.442,12.442,0,0,1-.56-1.138,12.358,12.358,0,0,1,0-9.809,12.442,12.442,0,0,1,.56-1.138q.309-.555.674-1.079t.78-1.01q.416-.486.88-.932t.971-.844q.506-.4,1.052-.75t1.124-.647q.578-.3,1.184-.537T70.27,2.5q.628-.182,1.271-.306t1.3-.184q.653-.062,1.309-.062t1.309.062q.652.061,1.3.184T78.02,2.5q.628.182,1.233.424t1.184.537q.579.3,1.124.647t1.053.75q.506.4.97.844t.88.932q.416.487.78,1.01A12.635,12.635,0,0,1,86.478,9.86a12.337,12.337,0,0,1,1.016,4.9" transform="translate(-18.047 -0.578)" fill="#112a37"/>
      <path id="Tracé_1135" data-name="Tracé 1135" d="M231.674,16.725a12.419,12.419,0,0,1-1.016,4.9,12.645,12.645,0,0,1-.56,1.138q-.309.555-.674,1.079t-.78,1.01q-.417.486-.88.932t-.97.844q-.507.4-1.053.75t-1.124.647q-.578.3-1.184.537t-1.233.424q-.628.182-1.271.306t-1.3.184q-.653.062-1.309.062t-1.309-.062q-.653-.061-1.3-.184t-1.271-.306q-.629-.182-1.234-.424t-1.184-.537q-.578-.3-1.124-.647t-1.052-.75q-.507-.4-.971-.844t-.88-.932q-.417-.487-.78-1.01t-.674-1.079a12.438,12.438,0,0,1-.56-1.138,12.364,12.364,0,0,1,0-9.81,12.516,12.516,0,0,1,.56-1.137q.309-.555.674-1.079t.78-1.01q.416-.486.88-.932t.971-.844q.506-.4,1.052-.75t1.124-.647q.578-.3,1.184-.537t1.234-.424q.628-.182,1.271-.306t1.3-.184q.653-.062,1.309-.062t1.309.062q.652.061,1.3.184t1.271.306q.628.182,1.233.424t1.184.537q.579.3,1.124.647t1.053.75q.506.4.97.844t.88.932q.416.487.78,1.01a12.609,12.609,0,0,1,.674,1.079q.309.556.56,1.137A12.368,12.368,0,0,1,231.1,13a12.19,12.19,0,0,1,.318,1.22,12.245,12.245,0,0,1,.257,2.5" transform="translate(-60.848 -1.16)" fill="#112a37"/>
      <rect id="Rectangle_3990" data-name="Rectangle 3990" width="10.537" height="38.2" transform="translate(56.859 65.904)" fill="#112a37"/>
      <rect id="Rectangle_3991" data-name="Rectangle 3991" width="10.537" height="38.2" transform="translate(158.238 67.288)" fill="#112a37"/>
      <path id="Tracé_1136" data-name="Tracé 1136" d="M143.2,46.717l-6.871-2.827L122.4,71.843l6.87,2.833Z" transform="translate(-36.334 -13.029)" fill="#112a37" fill-rule="evenodd"/>
      <path id="Tracé_1137" data-name="Tracé 1137" d="M169.926,40.08l-7.342,3.511,16.373,28.3,7.342-3.511Z" transform="translate(-48.264 -11.898)" fill="#112a37" fill-rule="evenodd"/>
      <rect id="Rectangle_3992" data-name="Rectangle 3992" width="10.235" height="38.303" transform="translate(100.465 66.428)" fill="#112a37"/>
      <path id="Tracé_1138" data-name="Tracé 1138" d="M165.656,43.467a5.8,5.8,0,0,0-5.785-5.8H148.3a5.8,5.8,0,0,0-5.785,5.8v32.45a5.8,5.8,0,0,0,5.785,5.8h11.57a5.8,5.8,0,0,0,5.785-5.8Z" transform="translate(-42.306 -11.181)" fill="#112a37" fill-rule="evenodd"/>
      <path id="Tracé_1139" data-name="Tracé 1139" d="M166.579,15.793a12.433,12.433,0,0,1-1.016,4.905q-.251.581-.56,1.137t-.674,1.079q-.364.523-.78,1.01t-.88.932q-.463.445-.97.844t-1.053.75q-.545.35-1.124.647t-1.184.537q-.605.242-1.233.424t-1.271.306q-.643.122-1.3.184t-1.309.062q-.656,0-1.309-.062t-1.3-.184q-.643-.123-1.271-.306t-1.234-.424q-.605-.24-1.184-.537t-1.124-.647q-.545-.35-1.052-.75t-.971-.844q-.464-.445-.88-.932t-.78-1.01q-.364-.524-.674-1.079a12.52,12.52,0,0,1-.56-1.137,12.364,12.364,0,0,1-.442-1.185,12.19,12.19,0,0,1-.319-1.22,12.333,12.333,0,0,1,0-5,12.19,12.19,0,0,1,.319-1.22,12.364,12.364,0,0,1,.442-1.185,12.519,12.519,0,0,1,.56-1.137q.309-.555.674-1.079t.78-1.01q.416-.486.88-.932t.971-.844q.506-.4,1.052-.75t1.124-.647q.578-.3,1.184-.537t1.234-.424q.628-.182,1.271-.306t1.3-.184q.653-.062,1.309-.062t1.309.062q.652.061,1.3.184t1.271.306q.628.182,1.233.424t1.184.537q.579.3,1.124.647t1.053.75q.506.4.97.844t.88.932q.416.487.78,1.01T165,9.751q.309.556.56,1.137A12.371,12.371,0,0,1,166,12.073a12.19,12.19,0,0,1,.319,1.22,12.249,12.249,0,0,1,.257,2.5" transform="translate(-41.524 -0.883)" fill="#112a37"/>
      <rect id="Rectangle_3993" data-name="Rectangle 3993" width="10.537" height="38.2" transform="translate(112.473 66.627)" fill="#112a37"/>
      <path id="Tracé_1140" data-name="Tracé 1140" d="M21.482,54.086l-7.093-2.918L0,80.033l7.093,2.917Z" transform="translate(0 -15.189)" fill="#bf5a36" fill-rule="evenodd"/>
      <path id="Tracé_1141" data-name="Tracé 1141" d="M51.149,49.093,44.266,51.9,59.06,81.879l6.882-2.8Z" transform="translate(-13.141 -14.573)" fill="#bf5a36" fill-rule="evenodd"/>
      <rect id="Rectangle_3994" data-name="Rectangle 3994" width="10.565" height="39.551" transform="translate(14.867 72.703)" fill="#bf5a36"/>
      <path id="Tracé_1142" data-name="Tracé 1142" d="M44.663,50.73a5.985,5.985,0,0,0-5.973-5.989H26.745a5.985,5.985,0,0,0-5.974,5.989V84.24a5.985,5.985,0,0,0,5.974,5.989H38.69a5.985,5.985,0,0,0,5.973-5.989Z" transform="translate(-6.166 -13.282)" fill="#bf5a36" fill-rule="evenodd"/>
      <path id="Tracé_1143" data-name="Tracé 1143" d="M45.619,22.15a12.65,12.65,0,0,1-.265,2.582,12.843,12.843,0,0,1-.328,1.259,12.711,12.711,0,0,1-.456,1.223q-.259.6-.578,1.174T43.3,29.5q-.377.54-.806,1.043t-.908.962q-.478.46-1,.873t-1.086.773q-.562.361-1.159.667t-1.223.555q-.625.249-1.273.437t-1.312.316q-.663.127-1.337.191t-1.351.064q-.676,0-1.351-.064t-1.337-.191q-.664-.127-1.312-.316t-1.273-.437q-.625-.249-1.223-.555t-1.16-.667q-.562-.362-1.086-.773t-1-.873q-.478-.459-.908-.962T20.378,29.5q-.377-.541-.7-1.114a12.964,12.964,0,0,1-.578-1.174,12.71,12.71,0,0,1-.456-1.223,12.7,12.7,0,0,1-.527-2.544,12.732,12.732,0,0,1,.2-3.879,12.848,12.848,0,0,1,.329-1.259,12.71,12.71,0,0,1,.456-1.223,12.964,12.964,0,0,1,.578-1.174q.32-.574.7-1.114t.806-1.043q.429-.5.908-.962t1-.873q.523-.412,1.086-.773t1.16-.667q.6-.307,1.223-.555t1.273-.437q.648-.189,1.312-.316t1.337-.191q.674-.063,1.351-.064t1.351.064q.673.063,1.337.191t1.312.316q.648.189,1.273.437t1.223.555q.6.306,1.159.667t1.086.773q.523.412,1,.873t.908.962q.429.5.806,1.043t.7,1.114q.319.573.578,1.174a12.711,12.711,0,0,1,.456,1.223,12.843,12.843,0,0,1,.328,1.259,12.65,12.65,0,0,1,.265,2.582" transform="translate(-5.36 -2.647)" fill="#bf5a36"/>
      <rect id="Rectangle_3995" data-name="Rectangle 3995" width="10.883" height="39.442" transform="translate(27.267 72.908)" fill="#bf5a36"/>
      <path id="Tracé_1144" data-name="Tracé 1144" d="M76.943,22.068l6.382-4.058,19.988,25.959-6.376,4.058Z" transform="translate(-22.841 -5.347)" fill="#f2eb88" fill-rule="evenodd"/>
      <path id="Tracé_1145" data-name="Tracé 1145" d="M148.207,14.736l6.37,3.664-19.3,27.777L128.9,42.519Z" transform="translate(-38.263 -4.375)" fill="#f2eb88" fill-rule="evenodd"/>
      <rect id="Rectangle_3996" data-name="Rectangle 3996" width="10.565" height="39.551" transform="translate(73.982 72.577)" fill="#f2eb88"/>
      <path id="Tracé_1146" data-name="Tracé 1146" d="M128.733,50.552a5.985,5.985,0,0,0-5.974-5.989H110.815a5.986,5.986,0,0,0-5.979,5.989v33.51a5.986,5.986,0,0,0,5.979,5.989h11.944a5.985,5.985,0,0,0,5.974-5.989Z" transform="translate(-31.121 -13.229)" fill="#f2eb88" fill-rule="evenodd"/>
      <path id="Tracé_1147" data-name="Tracé 1147" d="M129.691,21.972a12.65,12.65,0,0,1-.265,2.582,12.828,12.828,0,0,1-.784,2.482q-.259.6-.578,1.174t-.7,1.114q-.377.54-.806,1.043t-.908.962q-.479.46-1,.873t-1.086.773q-.562.361-1.159.667t-1.223.555q-.625.249-1.273.437t-1.312.316q-.663.127-1.337.191t-1.351.064q-.676,0-1.351-.064t-1.337-.191q-.664-.127-1.312-.316t-1.273-.437q-.625-.249-1.223-.555t-1.16-.667q-.562-.362-1.086-.773t-1-.873q-.478-.459-.908-.962t-.806-1.043q-.377-.541-.7-1.114a12.962,12.962,0,0,1-.578-1.174,12.769,12.769,0,0,1,0-10.128,13.066,13.066,0,0,1,.578-1.174q.32-.573.7-1.114t.806-1.043q.429-.5.908-.962t1-.873q.523-.412,1.086-.773t1.159-.667q.6-.307,1.223-.555t1.273-.437q.648-.189,1.312-.316t1.337-.191q.674-.063,1.351-.064t1.351.064q.673.063,1.337.191t1.312.316q.648.189,1.273.437t1.223.555q.6.306,1.159.667t1.086.773q.523.412,1,.873t.908.962q.429.5.806,1.043t.7,1.114q.319.574.578,1.174a12.742,12.742,0,0,1,1.049,5.064" transform="translate(-30.317 -2.594)" fill="#f2eb88"/>
      <rect id="Rectangle_3997" data-name="Rectangle 3997" width="10.883" height="39.442" transform="translate(86.382 72.782)" fill="#f2eb88"/>
      <path id="Tracé_1148" data-name="Tracé 1148" d="M187.218,54.969l-7.093-2.918L165.736,80.917l7.093,2.917Z" transform="translate(-49.199 -15.452)" fill="#bf5a36" fill-rule="evenodd"/>
      <path id="Tracé_1149" data-name="Tracé 1149" d="M214.811,48.113l-7.581,3.625,16.907,29.23,7.581-3.625Z" transform="translate(-61.517 -14.282)" fill="#bf5a36" fill-rule="evenodd"/>
      <rect id="Rectangle_3998" data-name="Rectangle 3998" width="10.565" height="39.551" transform="translate(131.403 73.323)" fill="#bf5a36"/>
      <path id="Tracé_1150" data-name="Tracé 1150" d="M210.4,51.614a5.984,5.984,0,0,0-5.973-5.989H192.48a5.984,5.984,0,0,0-5.973,5.989v33.51a5.984,5.984,0,0,0,5.973,5.989h11.945a5.984,5.984,0,0,0,5.973-5.989Z" transform="translate(-55.365 -13.544)" fill="#bf5a36" fill-rule="evenodd"/>
      <path id="Tracé_1151" data-name="Tracé 1151" d="M211.355,23.033a12.65,12.65,0,0,1-.265,2.582,12.848,12.848,0,0,1-.328,1.259,12.709,12.709,0,0,1-.456,1.223q-.259.6-.578,1.174t-.7,1.114q-.377.54-.806,1.043t-.908.962q-.478.46-1,.873t-1.086.773q-.562.361-1.16.667t-1.223.555q-.625.249-1.273.437t-1.312.316q-.663.127-1.337.191t-1.351.064q-.677,0-1.351-.064t-1.337-.191q-.664-.127-1.312-.316t-1.273-.437q-.625-.249-1.223-.555t-1.16-.667q-.562-.362-1.086-.773t-1-.873q-.478-.459-.908-.962t-.806-1.043q-.377-.541-.7-1.114a13.07,13.07,0,0,1-.578-1.174,12.705,12.705,0,0,1-.456-1.223,12.7,12.7,0,0,1-.527-2.544,12.767,12.767,0,0,1,0-2.595,12.831,12.831,0,0,1,.983-3.767,12.965,12.965,0,0,1,.578-1.174q.32-.574.7-1.114t.806-1.043q.429-.5.908-.962t1-.873q.523-.412,1.086-.773t1.16-.667q.6-.307,1.223-.555t1.273-.437q.648-.189,1.312-.316t1.337-.191q.674-.063,1.351-.064t1.351.064q.673.063,1.337.191t1.312.316q.648.189,1.273.437t1.223.555q.6.306,1.16.667t1.086.773q.523.412,1,.873t.908.962q.429.5.806,1.043t.7,1.114q.319.573.578,1.174a12.829,12.829,0,0,1,.784,2.482,12.65,12.65,0,0,1,.265,2.582" transform="translate(-54.559 -2.909)" fill="#bf5a36"/>
      <rect id="Rectangle_3999" data-name="Rectangle 3999" width="10.883" height="39.442" transform="translate(143.803 73.529)" fill="#bf5a36"/>
    </g>
  </g>
</svg>
