<svg id="Groupe_11662" data-name="Groupe 11662" xmlns="http://www.w3.org/2000/svg" xmlns:xlink="http://www.w3.org/1999/xlink" width="121.293" height="123.402" viewBox="0 0 121.293 123.402">
  <defs>
    <clipPath id="clip-path">
      <rect id="Rectangle_4001" data-name="Rectangle 4001" width="121.293" height="123.402" fill="none"/>
    </clipPath>
  </defs>
  <g id="Groupe_11661" data-name="Groupe 11661" transform="translate(0)" clip-path="url(#clip-path)">
    <path id="Tracé_1152" data-name="Tracé 1152" d="M76.541,79A5.039,5.039,0,0,0,77.73,80.73a5.412,5.412,0,0,0,2.441,1.315,5.456,5.456,0,0,0,.923.136,5.395,5.395,0,0,0,3.514-1.036,6.524,6.524,0,0,0,.62-.553,4.95,4.95,0,0,0,1.207-4.876l4.184-4.195a12.756,12.756,0,0,1,.634,8.414,10.539,10.539,0,0,1-4.343,6.309,9.265,9.265,0,0,1-1.672.795,10.9,10.9,0,0,1-10.832-1.979,10.994,10.994,0,0,1-1.166-1.166,10.321,10.321,0,0,1-2.361-4.857,10.863,10.863,0,0,1,6.361-12.2,11.241,11.241,0,0,1,8-.069,11.774,11.774,0,0,1,1.644.683l-4.359,4.277a5.471,5.471,0,0,0-1.38-.172,4.8,4.8,0,0,0-3.723,1.728l-.31.415A5.586,5.586,0,0,0,76.541,79m28.541-3.493A25.428,25.428,0,0,1,96.227,95.4a22.985,22.985,0,0,1-11,4.909,23.671,23.671,0,0,1-16.289-3.3,20.971,20.971,0,0,1-3.448-2.645,24.149,24.149,0,0,1-7.653-15.313,22.489,22.489,0,0,1,.207-6,23.248,23.248,0,0,1,4.137-10.007,23.06,23.06,0,0,1,9.67-7.967,22.368,22.368,0,0,1,4.189-1.366,23.521,23.521,0,0,1,3.033-.484,22.061,22.061,0,0,1,6.154.139,22.325,22.325,0,0,1,6.016,1.866,26.854,26.854,0,0,1,4.947,2.99l.045.013-4.1,4.018c-.3-.235-.593-.467-.9-.679a16.031,16.031,0,0,0-6.015-2.54,16.27,16.27,0,0,0-3.706-.4c-.31,0-.6,0-.9.017a18,18,0,0,0-12.567,5.859,18.394,18.394,0,0,0-4.361,8.538,17.4,17.4,0,0,0-.379,5.03c.017.328.051.639.086.951a18.2,18.2,0,0,0,6.309,11.77,17.661,17.661,0,0,0,13.066,4.269,16.46,16.46,0,0,0,2.448-.38,18.066,18.066,0,0,0,6.033-2.524,19.362,19.362,0,0,0,4.137-3.7c5.817-6.929,5.026-17.1.517-22.267l4.351-4.362a24.994,24.994,0,0,1,4.821,13.666m10.577-33.276-1.353-5.487a5.98,5.98,0,0,0-2.179,5.887l-.043.034-.044.035-10.016,9.851a31.258,31.258,0,0,0-16.8-7.444,28.052,28.052,0,0,0-3.809-.243,31.578,31.578,0,0,0-15.755,4.217,32.06,32.06,0,0,0-7.068,5.5,6.373,6.373,0,0,0-.465.519,31.335,31.335,0,0,0-8.378,17.957,32.162,32.162,0,0,0-.207,4.476c.017.5.034,1.02.086,1.521a32.332,32.332,0,0,0,7.136,17.975,35.343,35.343,0,0,0,3.4,3.63,28.456,28.456,0,0,0,2.879,2.351,30.875,30.875,0,0,0,19.824,5.876,21.423,21.423,0,0,0,2.361-.224,29.52,29.52,0,0,0,6.034-1.349A32.136,32.136,0,0,0,105.294,98q.939-1.05,1.78-2.181t1.579-2.331q.737-1.2,1.366-2.463t1.141-2.575q.514-1.313.908-2.667t.667-2.738q.272-1.383.42-2.786t.171-2.813q.023-1.41-.079-2.817t-.33-2.8q-.227-1.392-.577-2.758t-.82-2.7q-.47-1.329-1.057-2.611t-1.285-2.506q-.7-1.225-1.5-2.382t-1.708-2.238c-.051-.029-.172-.095-.345-.172l10.07-10.1c.015-.015.024-.033.038-.046a7.282,7.282,0,0,0,3.221-.844,7.122,7.122,0,0,0,2.322-2ZM24.345,20.083V19.34c-.018-1.711-.018-3.439,0-5.151.017-1.607.6-2.178,2.189-2.212,1.138-.034,2.293-.018,3.431-.018H32.74c2.482-.034,3.464-1.036,3.533-3.542l.018-.726a14.215,14.215,0,0,1,.086-1.918,6.535,6.535,0,0,1,.682-2.242A6.51,6.51,0,0,1,40.477.446,6.5,6.5,0,0,1,42.772,0h.052a6.5,6.5,0,0,1,3.387.951,6.52,6.52,0,0,1,1.763,1.575A6.552,6.552,0,0,1,49.306,5.79c.069.605.069,1.21.086,1.815,0,.4,0,.778.018,1.158a2.938,2.938,0,0,0,.014.643,2.976,2.976,0,0,0,.154.625,2.937,2.937,0,0,0,.286.577,2.907,2.907,0,0,0,.4.5,2.937,2.937,0,0,0,.5.4,2.939,2.939,0,0,0,1.2.428,2.925,2.925,0,0,0,.642.008c1.189.034,2.361.017,3.533.017.949,0,1.9,0,2.844.018,1.775.018,2.327.57,2.344,2.385,0,2.022.018,4.044,0,6.067-.017,1.693-.586,2.281-2.275,2.281-3.9.018-7.792,0-11.7,0H26.9c-2.069,0-2.551-.5-2.551-2.627m6.74,50.26a4.563,4.563,0,0,1-.759,1.037l-.189.224q-5.353,6.456-10.7,12.876a3.947,3.947,0,0,1-2.741,1.8h-.1a4.2,4.2,0,0,1-2.827-1.573c-2.12-2.109-4.154-4.148-6.188-6.2a3.06,3.06,0,0,1-.47-.444,3.045,3.045,0,0,1-.611-1.136,3.045,3.045,0,0,1,.369-2.493,3.026,3.026,0,0,1,4.531-.637,3.067,3.067,0,0,1,.439.476c1.12,1.123,2.223,2.264,3.4,3.457l1.052,1.106,8.894-10.681a15.023,15.023,0,0,1,1.311-1.47,2.794,2.794,0,0,1,.9-.658,2.752,2.752,0,0,1,.527-.184,2.8,2.8,0,0,1,1.11-.044,2.865,2.865,0,0,1,.539.143,2.832,2.832,0,0,1,.944.587,2.884,2.884,0,0,1,.586,3.819ZM30.4,95.265Q28.973,97,27.552,98.687l-3.362,4.061q-2.456,2.93-4.913,5.894a3.7,3.7,0,0,1-2.585,1.59.337.337,0,0,1-.121.018,3.714,3.714,0,0,1-2.517-1.3c-2.189-2.178-4.378-4.355-6.533-6.55A3.593,3.593,0,0,1,6.4,99.862a2.8,2.8,0,0,1,.949-2.057,3.067,3.067,0,0,1,1.065-.624,2.975,2.975,0,0,1,.6-.139,3.057,3.057,0,0,1,1.806.327,3.1,3.1,0,0,1,.518.342,3.05,3.05,0,0,1,.438.44c1.155,1.158,2.275,2.333,3.448,3.561l1.052,1.106,8.86-10.664c.19-.242.4-.484.6-.726A4.067,4.067,0,0,1,28.413,89.8a2.674,2.674,0,0,1,2.052.761c1.361,1.193,1.327,2.99-.069,4.7M7.245,49.983a2.845,2.845,0,0,1,2.086-.9,3.178,3.178,0,0,1,2.241.968c1.207,1.21,2.362,2.455,3.568,3.751l1.069,1.141L24.983,44.4c.4-.484.792-.968,1.223-1.418a2.918,2.918,0,0,1,1.411-.97,2.919,2.919,0,0,1,2.244.2,3.128,3.128,0,0,1,1.62,2.306,3.085,3.085,0,0,1-.724,2.333c-1.379,1.728-2.81,3.44-4.223,5.133L23.1,56.1c-1.345,1.607-2.69,3.215-4,4.84a3.359,3.359,0,0,1-2.361,1.417.466.466,0,0,1-.155.018,2.944,2.944,0,0,1-2.1-.951c-2.138-2.039-4.361-4.269-7.223-7.224a2.969,2.969,0,0,1-.372-.451,2.9,2.9,0,0,1-.278-.514A3,3,0,0,1,6.381,52.1a2.991,2.991,0,0,1,.055-.582,2.952,2.952,0,0,1,.167-.56,2.952,2.952,0,0,1,.642-.97M54.7,103.008H41.342a6.814,6.814,0,0,1-1.655-.139,2.857,2.857,0,0,1-1.9-1.313,2.159,2.159,0,0,1-.242-1.8,4.8,4.8,0,0,1,1.707-2.23L39.5,97.3a1.647,1.647,0,0,1,1.379-.294c.1,0,.207.017.293.017H49.96a37.717,37.717,0,0,1-5.74-17.975H40.842A5.1,5.1,0,0,1,40.118,79a2.965,2.965,0,0,1-.034-5.894,9.9,9.9,0,0,1,1.259-.052h3A37.111,37.111,0,0,1,51.012,55.1H41.083a6.643,6.643,0,0,1-1.017-.07,2.966,2.966,0,0,1,.069-5.893,9.88,9.88,0,0,1,1.241-.052H56.3a36.667,36.667,0,0,1,28.925-9.419V22.209c0-2.73-.31-3.042-3.1-3.042H67.353v.294c0,.588.018,1.089,0,1.573a7.673,7.673,0,0,1-4.71,7.1,7.654,7.654,0,0,1-2.926.592c-11.463.052-22.823.052-33.769,0a7.657,7.657,0,0,1-6.342-3.431,7.691,7.691,0,0,1-1.277-4.26c-.018-.536-.018-1.072-.018-1.642v-.225H3.212a3.233,3.233,0,0,0-2.258.5,3.042,3.042,0,0,0-.5,2.23V35.621Q.479,46.25.471,56.862q0,18.873-.017,37.746L.436,120.741a2.9,2.9,0,0,0,.518,2.091,2.823,2.823,0,0,0,2.068.518H82.661c2.086,0,2.568-.5,2.568-2.609V114.19a35.067,35.067,0,0,1-3.809.207A37.189,37.189,0,0,1,54.7,103.008" transform="translate(-0.122)" fill="#112a37"/>
  </g>
</svg>
