<svg id="Groupe_11664" data-name="Groupe 11664" xmlns="http://www.w3.org/2000/svg" xmlns:xlink="http://www.w3.org/1999/xlink" width="107.054" height="121.293" viewBox="0 0 107.054 121.293">
  <defs>
    <clipPath id="clip-path">
      <rect id="Rectangle_4002" data-name="Rectangle 4002" width="107.054" height="121.293" fill="none"/>
    </clipPath>
  </defs>
  <g id="Groupe_11663" data-name="Groupe 11663" clip-path="url(#clip-path)">
    <path id="Tracé_1153" data-name="Tracé 1153" d="M73.286,44.85a3.645,3.645,0,0,0-3.649,3.639V82.451a3.649,3.649,0,0,0,7.3,0V48.489a3.645,3.645,0,0,0-3.649-3.639" transform="translate(-20.672 -13.314)" fill="#bf5a36"/>
    <path id="Tracé_1154" data-name="Tracé 1154" d="M52.743,114.015A44.879,44.879,0,1,1,97.754,69.137a45,45,0,0,1-45.011,44.878m54.142-85.139a25.059,25.059,0,0,0-5.162-8.576,25.206,25.206,0,0,0-8.6-5.146l-10.934,10.9A52.093,52.093,0,0,0,62.475,17.9V2.426A25.226,25.226,0,0,0,52.743,0a25.226,25.226,0,0,0-9.732,2.426V17.9a52.168,52.168,0,1,0,62.042,51.237,51.747,51.747,0,0,0-9.1-29.359Z" transform="translate(-0.129)" fill="#bf5a36"/>
  </g>
</svg>
